<svg width="142" height="125" viewBox="0 0 142 125" fill="none" xmlns="http://www.w3.org/2000/svg">
<path d="M3.81708 93.1548L5.41182 89.3368L7.00657 93.1548L10.8236 94.749L7.00657 96.3435L5.41182 100.159L3.81708 96.3435L0 94.749L3.81708 93.1548Z" fill="#FFAC09"/>
<path d="M62.1957 87.7428L63.7903 83.925L65.3849 87.7428L69.2029 89.3372L65.3849 90.9316L63.7903 94.7495L62.1957 90.9316L58.3777 89.3372L62.1957 87.7428Z" fill="#FFAC09"/>
<path d="M44.7455 66.9821L46.3393 63.1651L47.9367 66.9821L51.7535 68.5764L47.9367 70.1706L46.3393 73.9866L44.7455 70.1706L40.9287 68.5764L44.7455 66.9821Z" fill="#FFAC09"/>
<path d="M74.18 47.9099L75.7748 44.0928L77.3694 47.9099L81.1843 49.504L77.3694 51.0988L75.7748 54.9155L74.18 51.0988L70.3613 49.504L74.18 47.9099Z" fill="#FFAC09"/>
<path d="M105.798 11.1944L107.391 7.3769L108.985 11.1944L112.805 12.7887L108.985 14.3829L107.391 18.2L105.798 14.3829L101.978 12.7887L105.798 11.1944Z" fill="#FFAC09"/>
<path d="M125.014 36.488L126.608 32.671L128.207 36.488L132.021 38.0823L128.207 39.6766L126.608 43.4936L125.014 39.6766L121.196 38.0823L125.014 36.488Z" fill="#FFAC09"/>
<path d="M25.0173 66.9299L31.0766 65.2116L25.0991 63.5166L26.5455 60.0738L23.1374 61.4489L21.3463 53.416L19.5161 61.6351L17.0462 60.9124L17.7925 63.4601L11.616 65.2116L17.5082 66.8827L15.5109 71.0791L19.5089 69.1426L21.3463 79.6835L23.2191 68.9397L26.151 70.0149L25.0173 66.9299Z" fill="#FFAC09"/>
<path d="M101.334 40.6635L107.391 38.9451L101.415 37.2501L102.862 33.8073L99.4518 35.1826L97.662 27.1494L95.828 35.3684L93.3625 34.6458L94.1066 37.1937L87.9329 38.9451L93.8251 40.6164L91.8261 44.8128L95.824 42.8761L97.662 53.4163L99.5363 42.6734L102.464 43.7487L101.334 40.6635Z" fill="#FFAC09"/>
<path d="M135.693 13.5138L141.75 11.7956L135.773 10.1006L137.221 6.6581L133.809 8.03313L132.019 -2.09808e-05L130.19 8.21893L127.723 7.49607L128.468 10.0443L122.292 11.7956L128.184 13.4669L126.182 17.6631L130.182 15.7264L132.019 26.2667L133.894 15.5237L136.823 16.5991L135.693 13.5138Z" fill="#FFAC09"/>
<path d="M40.2811 111.411L46.3395 109.694L40.3613 107.998L41.8093 104.556L38.399 105.93L36.6081 97.8971L34.7771 106.117L32.3114 105.393L33.0555 107.941L26.8804 109.694L32.771 111.364L30.7722 115.56L34.7698 113.623L36.6081 124.163L38.4865 113.422L41.4154 114.495L40.2811 111.411Z" fill="#FFAC09"/>
<path d="M7.96863 91.3766C7.86433 91.3766 7.76005 91.3526 7.6627 91.2984C7.36025 91.128 7.249 90.745 7.41935 90.4422L17.2127 72.9306C17.3795 72.6279 17.762 72.5191 18.0679 72.6894C18.3704 72.8573 18.4781 73.2403 18.3078 73.5431L8.51445 91.0547C8.39972 91.2605 8.18765 91.3766 7.96863 91.3766Z" fill="#FFAC09"/>
<path d="M30.1658 107.612C30.0841 107.612 29.9989 107.593 29.9171 107.56L7.7205 97.9514C7.40077 97.8143 7.25514 97.4452 7.39369 97.1259C7.53224 96.8086 7.9017 96.6623 8.22144 96.7994L30.4145 106.405C30.7342 106.543 30.8799 106.914 30.7413 107.231C30.6418 107.47 30.4074 107.612 30.1658 107.612Z" fill="#FFAC09"/>
<path d="M45.2927 106.711C45.1245 106.711 44.9563 106.645 44.833 106.51C44.5975 106.255 44.6125 105.857 44.8667 105.623L59.9142 91.7589C60.1684 91.5245 60.5683 91.5414 60.8 91.7966C61.0355 92.05 61.0205 92.4472 60.7664 92.6838L45.7188 106.545C45.5992 106.657 45.446 106.711 45.2927 106.711Z" fill="#FFAC09"/>
<path d="M60.3407 86.4652C60.1538 86.4652 59.9706 86.3848 59.8436 86.2264L48.4885 71.8379C48.2717 71.5655 48.3166 71.1705 48.5894 70.9556C48.8623 70.7403 49.2585 70.787 49.4715 71.0595L60.8303 85.4479C61.0471 85.72 60.9985 86.115 60.7294 86.3303C60.6135 86.4226 60.4752 86.4652 60.3407 86.4652Z" fill="#FFAC09"/>
<path d="M50.1211 66.2456C49.9116 66.2456 49.7022 66.1379 49.5841 65.9433C49.4051 65.6467 49.5003 65.2606 49.7936 65.0802L71.4529 51.9252C71.75 51.7451 72.1384 51.8396 72.3173 52.1362C72.4963 52.4328 72.4011 52.8188 72.1041 52.9993L50.4485 66.1542C50.3457 66.2159 50.2315 66.2456 50.1211 66.2456Z" fill="#FFAC09"/>
<path d="M80.4554 48.0044C80.2279 48.0044 80.0044 47.8785 79.8945 47.6605C79.7377 47.3515 79.8632 46.9731 80.173 46.8163L90.0638 41.7896C90.3736 41.6323 90.7501 41.7558 90.907 42.0652C91.0639 42.3742 90.9423 42.7526 90.6325 42.9095L80.7377 47.9362C80.6515 47.9825 80.5534 48.0044 80.4554 48.0044Z" fill="#FFAC09"/>
<path d="M100.16 32.6006C100.104 32.6006 100.048 32.5933 99.992 32.5777C99.6553 32.4851 99.4589 32.1392 99.5511 31.8049L103.933 15.9961C104.025 15.6614 104.37 15.465 104.706 15.558C105.039 15.6506 105.235 15.9965 105.143 16.3312L100.766 32.14C100.686 32.4182 100.437 32.6006 100.16 32.6006Z" fill="#FFAC09"/>
<path d="M119.053 38.2753C119.041 38.2753 119.033 38.2753 119.024 38.2749L104.507 37.6264C104.163 37.6108 103.893 37.3171 103.909 36.9709C103.925 36.6243 104.224 36.3547 104.565 36.3715L119.078 37.0196C119.426 37.0352 119.692 37.3289 119.68 37.6755C119.664 38.0123 119.385 38.2753 119.053 38.2753Z" fill="#FFAC09"/>
<path d="M104.535 34.2226C104.345 34.2226 104.163 34.1388 104.04 33.9781C103.825 33.7038 103.874 33.3089 104.151 33.097L124.096 17.7034C124.369 17.4907 124.766 17.5423 124.976 17.8166C125.191 18.0913 125.138 18.4857 124.865 18.6976L104.919 34.0917C104.804 34.1801 104.672 34.2226 104.535 34.2226Z" fill="#FFAC09"/>
</svg>
