<svg width="102" height="91" viewBox="0 0 102 91" fill="none" xmlns="http://www.w3.org/2000/svg">
<path d="M23.1955 52.8604L24.5026 49.7327L25.8097 52.8604L28.9397 54.1673L25.8097 55.4743L24.5026 58.6039L23.1955 55.4743L20.0674 54.1673L23.1955 52.8604Z" fill="#FFAC09"/>
<path d="M27.6325 73.8312L28.9396 70.7016L30.2467 73.8312L33.3767 75.1382L30.2467 76.4451L28.9396 79.5747L27.6325 76.4451L24.5024 75.1382L27.6325 73.8312Z" fill="#FFAC09"/>
<path d="M68.5307 44.9956L69.8378 41.866L71.1449 44.9956L74.2749 46.3025L71.1449 47.6094L69.8378 50.7391L68.5307 47.6094L65.4026 46.3025L68.5307 44.9956Z" fill="#FFAC09"/>
<path d="M54.7731 37.0203L56.0802 33.8926L57.3873 37.0203L60.5174 38.3272L57.3873 39.6342L56.0802 42.7638L54.7731 39.6342L51.6431 38.3272L54.7731 37.0203Z" fill="#FFAC09"/>
<path d="M72.07 3.12763L73.3771 -6.48499e-05L74.6842 3.12763L77.8143 4.43455L74.6842 5.74147L73.3771 8.87109L72.07 5.74147L68.9419 4.43455L72.07 3.12763Z" fill="#FFAC09"/>
<path d="M10.9852 79.8869L15.9516 78.4772L11.052 77.0889L12.2378 74.2656L9.44348 75.3941L7.97581 68.8091L6.474 75.5454L4.45092 74.954L5.06277 77.0423L0 78.4772L4.83024 79.8481L3.19017 83.288L6.46818 81.6999L7.97581 90.3403L9.51253 81.5332L11.9138 82.4154L10.9852 79.8869Z" fill="#FFAC09"/>
<path d="M76.3869 77.4941L81.3534 76.0864L76.4547 74.6961L77.6397 71.8748L74.8451 73.0014L73.377 66.4163L71.876 73.1546L69.8533 72.5612L70.4642 74.6496L65.4026 76.0864L70.2315 77.4554L68.5928 80.8952L71.8702 79.3072L73.377 87.9476L74.9149 79.1423L77.3158 80.0227L76.3869 77.4941Z" fill="#FFAC09"/>
<path d="M96.7206 22.0703L101.687 20.6606L96.7885 19.2722L97.9734 16.4489L95.1788 17.5775L93.7127 10.9925L92.2098 17.7287L90.1871 17.1373L90.7979 19.2257L85.7363 20.6606L90.5672 22.0315L88.9265 25.4713L92.2039 23.8833L93.7127 32.5237L95.2487 23.7165L97.6495 24.5988L96.7206 22.0703Z" fill="#FFAC09"/>
<path d="M48.4723 17.4844L53.4389 16.0747L48.5382 14.6863L49.7251 11.8631L46.9305 12.9916L45.4625 6.40659L43.9595 13.1428L41.9368 12.5514L42.5496 14.6398L37.4861 16.0747L42.3169 17.4456L40.6763 20.8855L43.9537 19.2974L45.4625 27.9378L46.9984 19.1326L49.3993 20.0129L48.4723 17.4844Z" fill="#FFAC09"/>
<path d="M86.8398 14.9829C86.7389 14.9829 86.6362 14.9538 86.547 14.8898L76.6778 8.01202C76.4431 7.84914 76.3869 7.5292 76.5478 7.29651C76.7107 7.06189 77.0327 7.00565 77.2654 7.16853L87.1346 14.0464C87.3692 14.2073 87.4255 14.5292 87.2626 14.7619C87.1636 14.9054 87.0027 14.9829 86.8398 14.9829Z" fill="#FFAC09"/>
<path d="M52.7466 13.3387C52.5352 13.3387 52.3374 13.2088 52.2618 12.9974C52.1648 12.7298 52.3044 12.4351 52.5721 12.3381L68.7673 6.5074C69.0349 6.41045 69.3297 6.55006 69.4247 6.81765C69.5217 7.08524 69.384 7.37997 69.1164 7.47693L52.9211 13.3077C52.863 13.329 52.8048 13.3387 52.7466 13.3387Z" fill="#FFAC09"/>
<path d="M52.7466 34.4064C52.5449 34.4064 52.353 34.2881 52.2715 34.0904L47.7839 23.3383C47.6753 23.0766 47.7995 22.7741 48.0613 22.6655C48.325 22.555 48.6256 22.679 48.7342 22.9428L53.2218 33.6929C53.3304 33.9566 53.2063 34.2571 52.9444 34.3677C52.8785 34.3948 52.8126 34.4064 52.7466 34.4064Z" fill="#FFAC09"/>
<path d="M65.4026 43.9893C65.3444 43.9893 65.2882 43.9796 65.23 43.9602L58.8555 41.7186C58.5879 41.6236 58.4463 41.3289 58.5413 41.0613C58.6344 40.7937 58.9292 40.6522 59.1968 40.7472L65.5733 42.9887C65.8409 43.0837 65.9825 43.3785 65.8874 43.646C65.8138 43.8574 65.614 43.9893 65.4026 43.9893Z" fill="#FFAC09"/>
<path d="M73.377 64.1748C73.1093 64.1748 72.8844 63.9693 72.863 63.6978L71.971 51.7358C71.9496 51.4527 72.1629 51.2064 72.4461 51.1851C72.7292 51.1638 72.9775 51.3771 72.9988 51.6602L73.8909 63.6222C73.9122 63.9053 73.6989 64.1515 73.4157 64.1729C73.4022 64.1748 73.3905 64.1748 73.377 64.1748Z" fill="#FFAC09"/>
<path d="M27.4736 52.2128C27.2758 52.2128 27.0857 52.0964 27.0004 51.9025C26.8879 51.6427 27.0082 51.3383 27.27 51.2258L51.4397 40.7588C51.6995 40.6463 52.004 40.7666 52.1165 41.0264C52.2289 41.2882 52.1087 41.5906 51.8488 41.7051L27.6792 52.1701C27.6113 52.1992 27.5415 52.2128 27.4736 52.2128Z" fill="#FFAC09"/>
<path d="M11.4725 72.9974C11.3804 72.9974 11.2873 72.9722 11.2031 72.9199C10.9609 72.7706 10.8855 72.4545 11.0344 72.2121L20.6045 56.6609C20.7539 56.4186 21.0719 56.3429 21.3143 56.4922C21.5548 56.6415 21.6304 56.9595 21.4831 57.2019L11.9116 72.7512C11.8144 72.9102 11.6455 72.9974 11.4725 72.9974Z" fill="#FFAC09"/>
<path d="M15.1485 77.3235C14.8903 77.3235 14.6677 77.1296 14.6375 76.8659C14.6049 76.5847 14.8077 76.3288 15.0903 76.2958L23.7637 75.2991C24.0468 75.2662 24.3028 75.4698 24.3338 75.7509C24.3668 76.034 24.1651 76.29 23.882 76.3229L15.208 77.3196C15.1878 77.3215 15.1681 77.3235 15.1485 77.3235Z" fill="#FFAC09"/>
<path d="M67.4408 78.7681C67.4311 78.7681 67.4195 78.7681 67.4098 78.7661L34.3095 76.7728C34.0264 76.7553 33.8092 76.5129 33.8267 76.2279C33.8441 75.9448 34.0865 75.7296 34.3716 75.7451L67.4718 77.7384C67.755 77.7559 67.9722 78.0002 67.9547 78.2833C67.9373 78.5567 67.7104 78.7681 67.4408 78.7681Z" fill="#FFAC09"/>
</svg>
