<svg width="156" height="277" viewBox="0 0 156 277" fill="none" xmlns="http://www.w3.org/2000/svg">
<path d="M121.885 166.604L130.623 168.671L123.013 173.433L120.946 182.171L116.183 174.561L107.441 172.501L115.055 167.732L117.117 158.995L121.885 166.604Z" fill="#FFAC09"/>
<path d="M98.326 203.897L107.066 205.961L99.4542 210.727L97.3901 219.467L92.6248 211.855L83.8896 209.79L91.4967 205.025L93.5607 196.285L98.326 203.897Z" fill="#FFAC09"/>
<path d="M88.3042 33.4774L94.125 45.8425L95.6451 32.4436L103.529 34.3237L99.3766 27.5108L115.949 20.8341L97.6969 19.8197L98.3736 14.2787L93.1806 16.7779L87.2417 4.17334L85.7517 17.3811L76.0566 14.5816L81.6184 22.4599L59.6938 30.1268L83.3631 30.341L82.0966 36.9946L88.3042 33.4774Z" fill="#FFAC09"/>
<path d="M67.8454 259.447L73.6689 271.813L75.1839 258.413L83.0719 260.293L78.9166 253.48L95.4895 246.804L77.236 245.786L77.9127 240.25L72.7227 242.751L66.7853 230.142L65.2919 243.354L55.597 240.549L61.157 248.427L39.2345 256.097L62.9054 256.309L61.6361 262.962L67.8454 259.447Z" fill="#FFAC09"/>
<path d="M93.3175 50.0456C93.1984 49.3242 93.6756 48.6319 94.3966 48.487C95.1336 48.3396 95.8535 48.8182 96.0028 49.5565L117.225 155.348C117.358 156.054 116.89 156.8 116.153 156.949C115.416 157.098 114.696 156.62 114.547 155.883L93.3253 50.0925C93.3227 50.077 93.3202 50.0616 93.3175 50.0456Z" fill="#FFAC09"/>
<path d="M99.4813 199.929C99.4279 199.605 99.4902 199.257 99.686 198.957L113.776 177.366C114.189 176.736 115.032 176.559 115.667 176.972C116.297 177.386 116.473 178.223 116.06 178.858L101.971 200.449C101.557 201.079 100.715 201.262 100.085 200.843C99.7491 200.626 99.5409 200.289 99.4813 199.929Z" fill="#FFAC09"/>
<path d="M75.6023 236.777C75.5515 236.47 75.6067 236.135 75.7803 235.848L89.0207 213.997C89.409 213.354 90.2481 213.147 90.8918 213.54C91.5346 213.928 91.7416 214.768 91.3533 215.41L78.1128 237.262C77.7245 237.905 76.8854 238.112 76.2426 237.724C75.8854 237.504 75.6649 237.156 75.6023 236.777Z" fill="#FFAC09"/>
</svg>
