<svg width="134" height="125" viewBox="0 0 134 125" fill="none" xmlns="http://www.w3.org/2000/svg">
<path d="M72.3371 1.98473C73.4599 2.77343 74.5067 3.65042 75.5564 4.53281C78.0288 6.51157 80.0234 7.4599 83.2642 7.10207C85.8141 6.51119 87.9628 5.12303 90.052 3.58941C91.1093 2.82095 91.946 2.55747 93.2558 2.53449C94.561 2.88847 95.115 3.21267 95.9499 4.28302C97.0267 6.49168 96.2395 9.05455 95.6823 11.3128C95.6061 11.6243 95.5298 11.9358 95.4513 12.2567C94.2502 16.979 92.399 21.3642 90.1155 25.6579C90.3338 25.6512 90.552 25.6446 90.7768 25.6378C95.2962 25.5616 100.367 25.9884 104.104 28.7981C104.675 29.6545 104.675 29.6545 104.639 30.6358C104.364 31.7547 104.205 32.1643 103.247 32.7947C101.765 32.9076 100.71 32.6673 99.3399 32.1167C94.994 30.4881 91.1755 30.7509 86.6899 31.3673C87.3596 32.1003 88.0707 32.5708 88.9201 33.0802C98.4936 39.114 105.103 48.5291 108.689 59.1653C108.775 59.4182 108.86 59.6711 108.948 59.9316C109.332 61.1203 109.571 62.0807 109.528 63.3404C109.899 63.3344 110.271 63.3284 110.654 63.3223C112.036 63.3016 113.418 63.2885 114.8 63.2777C115.398 63.2719 115.995 63.2641 116.593 63.2542C117.453 63.2403 118.313 63.2339 119.174 63.2289C119.44 63.223 119.705 63.2171 119.979 63.211C121.863 63.2104 122.894 63.6049 124.278 64.9428C125.593 66.8254 125.389 68.8327 125.318 71.0482C125.311 71.4366 125.304 71.825 125.299 72.2135C125.282 73.1576 125.258 74.101 125.229 75.0448C125.559 75.0316 125.89 75.0183 126.23 75.0047C126.67 74.9939 127.109 74.9836 127.548 74.9734C127.765 74.9639 127.983 74.9543 128.206 74.9445C129.739 74.918 130.576 75.1754 131.795 76.1867C133.077 77.6417 133.272 78.5296 133.29 80.4287C133.292 80.6519 133.295 80.8751 133.297 81.1051C133.301 81.5784 133.304 82.0516 133.306 82.5248C133.311 83.2455 133.324 83.9657 133.336 84.6862C133.339 85.1464 133.342 85.6066 133.344 86.0668C133.349 86.2809 133.354 86.4951 133.359 86.7158C133.353 88.2023 133.023 89.0341 132.08 90.1749C131.223 90.8222 130.529 91.263 129.511 91.6023C129.511 93.8632 129.511 96.1242 129.511 98.4537C130.265 98.8305 131.018 99.2073 131.795 99.5956C133.575 101.512 133.304 103.446 133.322 105.918C133.327 106.399 133.335 106.88 133.345 107.361C133.361 108.056 133.367 108.752 133.372 109.448C133.378 109.66 133.384 109.873 133.391 110.092C133.385 111.704 132.895 112.694 131.795 113.869C130.464 114.843 129.326 115.047 127.703 115.046C127.392 115.047 127.082 115.047 126.762 115.048C126.25 115.047 126.25 115.047 125.728 115.045C125.366 115.046 125.004 115.046 124.63 115.046C123.624 115.047 122.618 115.046 121.611 115.044C120.526 115.043 119.441 115.043 118.356 115.044C116.476 115.044 114.596 115.043 112.715 115.041C109.997 115.039 107.279 115.038 104.56 115.038C100.15 115.037 95.7397 115.035 91.3294 115.033C87.0448 115.03 82.7603 115.028 78.4758 115.027C78.2118 115.027 77.9477 115.027 77.6757 115.027C76.3511 115.026 75.0265 115.026 73.7019 115.025C62.7108 115.023 51.7197 115.018 40.7286 115.011C40.7115 115.208 40.6944 115.405 40.6768 115.608C40.653 115.866 40.6292 116.124 40.6048 116.39C40.5818 116.646 40.5588 116.902 40.5351 117.165C40.3233 118.779 39.3584 119.944 38.1025 120.926C37.3776 121.383 36.6461 121.773 35.8755 122.148C35.6165 122.277 35.3574 122.406 35.0905 122.539C30.0115 124.865 23.9938 125.139 18.693 123.366C15.6297 122.216 12.7553 120.956 11.3248 117.866C10.9398 116.839 11.0184 115.813 11.0393 114.726C10.7998 114.694 10.7998 114.694 10.5554 114.661C7.2511 114.119 3.76194 112.85 1.61871 110.158C0.889847 108.704 0.654696 107.647 0.651615 105.995C0.649309 105.682 0.649307 105.682 0.646954 105.362C0.642892 104.668 0.644904 103.973 0.646941 103.278C0.645312 102.778 0.643324 102.278 0.641004 101.778C0.635889 100.423 0.636216 99.0686 0.637846 97.7138C0.638729 96.5816 0.63699 95.4493 0.635267 94.3171C0.631259 91.6455 0.631701 88.9739 0.634953 86.3023C0.638231 83.5486 0.63421 80.795 0.626559 78.0414C0.62023 75.6746 0.618341 73.3079 0.620017 70.9411C0.620978 69.5287 0.620293 68.1163 0.615377 66.7038C0.610956 65.3755 0.612098 64.0472 0.617464 62.7188C0.618515 62.2323 0.617633 61.7457 0.614641 61.2592C0.58698 56.3868 0.58698 56.3868 2.39484 54.1762C6.82715 50.3854 12.4219 49.5737 18.0647 50.0012C21.5495 50.3844 24.7101 51.3281 27.5968 53.3488C27.7352 53.0588 27.8735 52.7689 28.0161 52.4701C29.2284 49.9648 30.5207 47.6112 32.1644 45.3555C32.3314 45.1252 32.3314 45.1252 32.5017 44.8901C36.9175 38.8593 42.4006 34.672 48.7219 30.7964C48.5728 30.6499 48.4238 30.5035 48.2702 30.3526C42.9257 24.7928 37.6268 14.4054 37.4813 6.63818C37.5142 5.36874 37.88 4.6416 38.7303 3.67639C39.5581 3.00516 40.0604 2.83257 41.1211 2.69507C42.642 2.87862 43.6293 3.60834 44.868 4.44248C47.6712 6.29402 50.4172 7.67225 53.8604 7.10207C56.1262 6.33912 57.7528 5.04919 59.4662 3.42325C62.9785 0.28243 68.2365 -0.571613 72.3371 1.98473ZM61.0251 8.62646C58.1133 11.1531 54.8557 12.2297 50.9978 12.0666C48.399 11.8111 46.1553 10.8793 43.8688 9.67133C43.6804 9.67133 43.492 9.67133 43.2979 9.67133C43.8259 12.0348 44.5311 14.2398 45.4746 16.4692C45.6001 16.7668 45.7255 17.0644 45.8548 17.371C48.1674 22.735 51.6408 28.724 57.2861 31.0819C57.5687 31.0819 57.8513 31.0819 58.1425 31.0819C58.0906 30.8059 58.0906 30.8059 58.0377 30.5244C57.8797 29.6759 57.7256 28.8266 57.5715 27.9773C57.4899 27.5435 57.4899 27.5435 57.4065 27.1008C56.5623 22.3975 56.5623 22.3975 57.4467 20.9119C58.4168 20.3646 59.0445 20.3627 60.1408 20.5193C60.8403 20.9955 61.212 21.3928 61.4303 22.2212C61.5389 22.9195 61.6195 23.6168 61.6931 24.3197C62.0474 27.1338 62.5357 30.1066 64.1374 32.5092C64.7446 32.6278 64.7446 32.6278 65.4421 32.5929C65.6979 32.5901 65.9537 32.5873 66.2172 32.5845C66.4847 32.5773 66.7522 32.5701 67.0279 32.5628C67.2976 32.5589 67.5673 32.555 67.8453 32.551C68.5126 32.5409 69.1797 32.5268 69.8469 32.5092C71.5112 29.3451 72.2271 26.1725 72.5054 22.6314C72.726 21.5411 72.9529 21.1679 73.8435 20.5193C74.9399 20.3627 75.5675 20.3646 76.5377 20.9119C78.0433 23.4412 76.4883 27.9527 75.8129 30.6603C75.7282 30.9879 75.6436 31.3154 75.5564 31.6528C79.9975 30.5958 83.0918 27.6712 85.4749 23.8421C87.4606 20.5199 88.8382 17.1131 89.9907 13.4182C90.0932 13.0904 90.1957 12.7626 90.3013 12.4249C90.3934 12.1175 90.4856 11.8101 90.5806 11.4935C90.6632 11.2179 90.7458 10.9423 90.831 10.6584C91.0393 9.92244 91.0393 9.92244 90.6865 9.10039C90.2537 9.4095 90.2537 9.4095 89.8122 9.72486C86.3361 11.8594 82.359 12.6374 78.3632 11.7555C75.3857 10.7602 73.0081 8.95697 70.6911 6.89354C66.9525 4.02418 64.1055 5.9418 61.0251 8.62646ZM50.1671 35.7565C49.9243 35.8857 49.6816 36.0149 49.4315 36.148C47.3045 37.3086 45.4173 38.6277 43.5833 40.217C43.4282 40.3502 43.273 40.4834 43.1132 40.6207C38.4531 44.6609 34.7008 49.5895 32.1857 55.234C31.9552 55.7479 31.7088 56.2547 31.4548 56.7574C29.9537 60.0005 29.9425 62.9603 29.9988 66.4884C30.002 67.0839 30.0044 67.6794 30.0061 68.275C30.0126 69.828 30.0294 71.3807 30.0485 72.9337C30.0661 74.5241 30.0738 76.1145 30.0824 77.705C30.1007 80.815 30.1299 83.9248 30.1661 87.0347C30.6003 87.145 30.6003 87.145 31.0432 87.2575C31.4292 87.3575 31.8152 87.4576 32.2012 87.5577C32.3912 87.6057 32.5813 87.6538 32.7771 87.7033C35.7308 88.4749 38.1516 89.8713 39.8722 92.4587C40.3202 93.6157 40.5173 94.5958 40.5341 95.8335C40.5398 96.1535 40.5455 96.4734 40.5513 96.803C40.5546 97.1439 40.5579 97.4847 40.5613 97.8359C40.5669 98.1883 40.5724 98.5407 40.5781 98.9038C40.5951 100.026 40.6084 101.149 40.6215 102.272C40.6321 103.034 40.6436 103.797 40.655 104.559C40.6824 106.425 40.7067 108.292 40.7286 110.158C47.6719 110.178 54.6153 110.193 61.5586 110.202C64.7827 110.207 68.0068 110.213 71.2309 110.223C74.0417 110.231 76.8526 110.237 79.6635 110.239C81.1511 110.24 82.6387 110.242 84.1264 110.249C85.5283 110.254 86.9301 110.256 88.332 110.255C88.8449 110.255 89.3578 110.257 89.8707 110.26C94.7985 110.29 98.8702 109.535 102.583 106.027C105.321 103.054 106.431 99.8006 106.429 95.8061C106.43 95.5751 106.431 95.3441 106.432 95.1061C106.435 94.3445 106.435 93.5828 106.435 92.8211C106.436 92.2861 106.437 91.7511 106.438 91.2161C106.44 90.0933 106.441 88.9705 106.44 87.8477C106.44 86.4242 106.444 85.0007 106.449 83.5772C106.452 82.4704 106.453 81.3635 106.453 80.2566C106.453 79.7328 106.454 79.209 106.457 78.6853C106.474 74.1051 106.26 69.5252 105.192 65.0532C105.131 64.7934 105.07 64.5335 105.007 64.2658C102.122 52.4832 95.0072 42.5851 84.6915 36.2204C83.0409 35.1471 83.0409 35.1471 81.17 34.8499C80.2091 35.1387 79.3259 35.5224 78.4111 35.9349C78.5594 36.1804 78.7077 36.4258 78.8605 36.6787C82.568 42.9178 82.568 42.9178 82.1223 45.9265C81.6656 46.5402 81.4027 46.7532 80.6503 46.9167C80.4295 46.9197 80.2087 46.9226 79.9812 46.9257C79.65 46.9389 79.65 46.9389 79.3121 46.9524C78.6966 46.7829 78.6966 46.7829 78.2294 46.1618C77.8431 45.3615 77.5018 44.5602 77.18 43.7319C76.4971 42.0677 75.6932 40.5727 74.7 39.0751C74.5815 38.8668 74.463 38.6586 74.3409 38.444C73.9208 37.8076 73.6396 37.4773 72.9871 37.0768C72.0608 37.0417 72.0608 37.0417 71.0702 37.1694C70.7346 37.2031 70.399 37.2368 70.0533 37.2716C69.7968 37.3015 69.5403 37.3315 69.276 37.3623C69.272 37.7836 69.272 37.7836 69.2679 38.2135C69.2565 39.2558 69.2377 40.298 69.2167 41.3402C69.2087 41.7912 69.2026 42.2423 69.1986 42.6934C69.1925 43.342 69.1792 43.9901 69.1645 44.6385C69.1641 44.8402 69.1638 45.0418 69.1634 45.2496C69.136 46.1681 69.1081 46.6593 68.4622 47.3385C67.6257 47.7486 67.0565 47.7544 66.1358 47.6393C65.5222 47.3385 65.5222 47.3385 64.9939 46.7829C64.872 46.0308 64.8212 45.392 64.8199 44.6385C64.8152 44.4306 64.8105 44.2227 64.8056 44.0085C64.7917 43.3454 64.7857 42.6824 64.7798 42.0191C64.7717 41.5691 64.7632 41.1192 64.7541 40.6692C64.733 39.5669 64.7189 38.4647 64.7084 37.3623C64.1651 37.2376 63.6198 37.1223 63.0736 37.011C62.6184 36.9132 62.6184 36.9132 62.154 36.8134C61.2631 36.7074 61.2631 36.7074 60.58 37.2583C59.9633 37.9196 59.4816 38.5959 58.9989 39.3606C58.7665 39.7277 58.7665 39.7277 58.5294 40.1022C57.536 41.8099 56.8394 43.5907 56.1944 45.4548C55.8587 46.212 55.8587 46.212 55.0023 46.7829C54.0062 46.9376 53.0571 46.9522 52.1475 46.4974C51.5153 45.233 51.7306 44.0903 52.113 42.7885C53.0456 40.2215 54.3472 37.9167 55.8587 35.6494C55.5525 35.461 55.2464 35.2726 54.9309 35.0785C54.7587 34.9725 54.5865 34.8665 54.409 34.7573C52.8326 34.0396 51.5344 35.0271 50.1671 35.7565ZM6.11492 57.4882C5.58846 58.1625 5.58846 58.1625 5.40123 58.8977C5.75445 60.1045 6.58482 60.6704 7.61366 61.3421C11.8206 63.6 16.8303 63.4234 21.3164 62.1985C22.7899 61.6438 24.3962 60.9627 25.313 59.6292C25.575 58.941 25.575 58.941 25.313 58.2019C23.503 55.9639 20.6164 55.2551 17.8918 54.8654C14.0394 54.4646 9.15231 54.7759 6.11492 57.4882ZM5.32987 65.6242C5.31653 70.8849 5.30646 76.1457 5.30028 81.4064C5.29734 83.8491 5.29333 86.2917 5.28679 88.7344C5.2811 90.8633 5.27742 92.9923 5.27615 95.1213C5.2754 96.2486 5.27365 97.3759 5.2695 98.5032C5.26562 99.5644 5.26443 100.626 5.26529 101.687C5.26506 102.262 5.26198 102.836 5.25883 103.411C5.25961 103.754 5.2604 104.097 5.26121 104.451C5.26068 104.748 5.26016 105.046 5.25961 105.353C5.33471 106.217 5.49852 106.821 5.90081 107.589C6.56305 108.018 7.15526 108.35 7.86345 108.677C8.04192 108.766 8.2204 108.855 8.40428 108.946C9.37085 109.411 9.94671 109.587 11.0393 109.587C11.0404 109.404 11.0414 109.221 11.0425 109.032C11.0545 107.114 11.0743 105.197 11.0986 103.28C11.1066 102.565 11.1127 101.851 11.1167 101.137C11.1229 100.106 11.1362 99.0759 11.1509 98.0455C11.1512 97.7293 11.1516 97.4131 11.1519 97.0873C11.1901 95.0348 11.5622 93.4444 12.4667 91.6023C12.5631 91.3937 12.6595 91.1851 12.7587 90.9702C13.1305 90.2908 13.4695 90.1898 14.1796 89.8894C14.4651 89.7367 14.7507 89.584 15.0449 89.4267C18.4423 87.6476 21.4343 87.0605 25.313 86.4638C25.313 79.5867 25.313 72.7096 25.313 65.6242C23.8999 66.0952 22.4868 66.5662 21.0309 67.0515C16.2535 67.9164 11.7986 67.8395 7.19214 66.1673C6.57277 65.9458 5.96818 65.7779 5.32987 65.6242ZM117.249 67.9704C117.06 67.9768 116.872 67.9831 116.678 67.9896C116.079 68.0098 115.48 68.0303 114.88 68.0507C114.473 68.0645 114.066 68.0782 113.658 68.092C112.662 68.1256 111.666 68.1595 110.67 68.1934C110.71 69.0143 110.752 69.835 110.795 70.6557C110.806 70.8864 110.817 71.1171 110.829 71.3548C110.841 71.5812 110.852 71.8075 110.865 72.0406C110.875 72.247 110.886 72.4533 110.897 72.6658C110.967 73.464 111.109 74.2545 111.241 75.0448C114.255 75.0448 117.27 75.0448 120.376 75.0448C120.376 72.6897 120.376 70.3345 120.376 67.908C119.331 67.908 118.293 67.935 117.249 67.9704ZM111.241 79.8979C111.241 82.1588 111.241 84.4198 111.241 86.7492C113.469 86.7557 115.697 86.7609 117.926 86.764C118.96 86.7655 119.995 86.7675 121.029 86.7708C122.027 86.7739 123.025 86.7756 124.022 86.7763C124.59 86.7771 125.158 86.7793 125.725 86.7816C126.24 86.7816 126.24 86.7816 126.764 86.7816C127.068 86.7823 127.372 86.7829 127.684 86.7836C128.355 86.8267 128.355 86.8266 128.654 86.4638C128.683 86.0006 128.692 85.5361 128.692 85.0721C128.693 84.7909 128.693 84.5098 128.694 84.2201C128.692 83.7763 128.692 83.7763 128.69 83.3235C128.691 83.0277 128.692 82.7318 128.694 82.427C128.693 82.1458 128.693 81.8647 128.692 81.575C128.692 81.1853 128.692 81.1853 128.691 80.7877C128.722 80.1875 128.722 80.1875 128.369 79.8979C127.835 79.8711 127.299 79.8643 126.764 79.8655C126.25 79.8655 126.25 79.8655 125.725 79.8655C125.165 79.8677 125.165 79.8677 124.594 79.87C124.211 79.8705 123.827 79.8709 123.443 79.8712C122.432 79.8723 121.421 79.8751 120.409 79.8783C119.378 79.8812 118.347 79.8825 117.315 79.8839C115.29 79.887 113.265 79.892 111.241 79.8979ZM16.208 94.4225C15.8328 95.0222 15.8328 95.0222 15.9136 95.7584C16.4055 97.0555 17.5613 97.5515 18.7471 98.1682C20.6136 98.9402 22.4416 99.4634 24.4566 99.5956C24.7287 99.6176 24.7287 99.6176 25.0064 99.6402C28.431 99.7949 32.1717 98.9576 35.0191 97.0263C35.5796 96.5217 35.5796 96.5217 35.8755 95.8844C35.8501 95.0064 35.7416 94.61 35.1206 93.9831C32.7296 92.4364 30.16 91.4977 27.3113 91.3168C27.0813 91.3021 26.8513 91.2874 26.6144 91.2722C23.1275 91.1504 18.7841 91.8676 16.208 94.4225ZM111.241 91.6023C111.241 93.8632 111.241 96.1242 111.241 98.4537C115.574 98.4537 119.908 98.4537 124.372 98.4537C124.372 96.1927 124.372 93.9318 124.372 91.6023C120.039 91.6023 115.705 91.6023 111.241 91.6023ZM15.8924 102.165C15.8562 104.09 15.8312 106.015 15.814 107.941C15.8068 108.596 15.7971 109.251 15.7847 109.905C15.7674 110.847 15.7593 111.789 15.753 112.731C15.7456 113.023 15.7383 113.315 15.7307 113.617C15.7233 115.313 15.7233 115.313 16.5758 116.751C19.7253 119.054 23.721 120.004 27.5968 119.579C30.2146 119.134 33.6369 118.549 35.4755 116.501C35.9464 115.755 35.9797 115.355 35.9728 114.48C35.9727 114.206 35.9726 113.932 35.9726 113.649C35.9682 113.355 35.9637 113.061 35.9592 112.759C35.958 112.456 35.9568 112.154 35.9555 111.842C35.9507 110.876 35.94 109.91 35.9291 108.945C35.9248 108.29 35.9209 107.635 35.9174 106.98C35.9079 105.375 35.8936 103.77 35.8755 102.165C35.4507 102.313 35.4507 102.313 35.0172 102.464C29.3254 104.422 23.8217 104.729 18.0446 102.855C17.8362 102.789 17.6279 102.722 17.4132 102.654C16.9059 102.492 16.3991 102.329 15.8924 102.165ZM109.813 103.307C109.697 103.543 109.581 103.78 109.461 104.023C109.308 104.333 109.155 104.642 108.997 104.961C108.846 105.268 108.694 105.575 108.538 105.891C108.069 106.793 107.545 107.563 106.887 108.338C106.697 108.566 106.507 108.793 106.312 109.027C105.969 109.415 105.612 109.792 105.246 110.158C108.256 110.165 111.266 110.17 114.276 110.173C115.673 110.174 117.071 110.176 118.468 110.18C119.816 110.183 121.163 110.184 122.511 110.185C123.026 110.186 123.541 110.187 124.056 110.188C124.776 110.19 125.495 110.191 126.214 110.19C126.537 110.192 126.537 110.192 126.866 110.194C127.842 110.28 127.842 110.28 128.654 109.873C128.683 109.409 128.692 108.945 128.692 108.481C128.693 108.2 128.693 107.919 128.694 107.629C128.692 107.333 128.691 107.037 128.69 106.732C128.691 106.437 128.692 106.141 128.694 105.836C128.693 105.555 128.693 105.274 128.692 104.984C128.692 104.594 128.692 104.594 128.691 104.197C128.722 103.596 128.722 103.596 128.369 103.307C127.791 103.28 127.212 103.273 126.633 103.274C126.262 103.274 125.89 103.274 125.508 103.274C125.099 103.276 124.691 103.277 124.282 103.279C123.866 103.279 123.451 103.28 123.035 103.28C121.939 103.281 120.844 103.284 119.748 103.287C118.63 103.29 117.513 103.291 116.395 103.293C114.201 103.296 112.007 103.301 109.813 103.307Z" fill="white"/>
<path d="M66.9921 54.0624C67.1805 54.0594 67.3689 54.0565 67.563 54.0535C68.412 54.279 68.7472 54.6529 69.2758 55.347C69.4498 56.2079 69.4498 56.2079 69.4899 57.1312C69.5061 57.4389 69.5223 57.7465 69.539 58.0635C69.5464 58.2975 69.5537 58.5316 69.5613 58.7727C69.7615 58.8353 69.9617 58.8978 70.1679 58.9623C73.1907 59.9726 75.207 61.321 76.6982 64.1967C77.4566 65.982 77.7345 67.4402 77.2691 69.3352C76.7939 70.1106 76.4732 70.1746 75.5919 70.4236C74.6185 70.482 74.1199 70.3769 73.2725 69.9062C72.6952 69.0403 72.5685 68.5324 72.3625 67.5332C71.9417 65.8956 71.2612 65.0897 69.8468 64.1967C69.5642 64.0554 69.5642 64.0554 69.2758 63.9112C69.2758 67.2085 69.2758 70.5057 69.2758 73.9028C69.9353 73.997 70.5947 74.0912 71.2742 74.1883C71.9187 74.4258 71.9187 74.4258 72.4517 74.7057C72.6291 74.7959 72.8065 74.886 72.9892 74.9789C75.1077 76.2873 76.6957 78.3402 77.394 80.7542C77.9437 83.7991 77.6257 86.9643 75.8551 89.5671C74.3056 91.3902 72.5384 92.8908 70.1144 93.2615C69.8377 93.2792 69.561 93.2968 69.2758 93.315C69.2858 93.5491 69.2957 93.7831 69.306 94.0242C69.3137 94.3319 69.3214 94.6395 69.3294 94.9565C69.3443 95.4135 69.3443 95.4135 69.3595 95.8798C69.2661 96.8412 69.103 97.2116 68.4194 97.8826C67.2851 98.1977 66.6809 98.2867 65.6004 97.7934C64.9937 97.3116 64.9937 97.3116 64.7083 96.7407C64.6881 96.1582 64.6842 95.575 64.6904 94.9922C64.693 94.6794 64.6956 94.3666 64.6982 94.0443C64.7015 93.8036 64.7048 93.563 64.7083 93.315C64.4698 93.278 64.4698 93.278 64.2265 93.2403C61.5934 92.7555 59.8056 91.5473 58.0766 89.508C57.0108 87.9033 56.2658 85.8291 56.4295 83.8765C56.7625 82.8984 56.9903 82.4662 57.8569 81.8961C59.0653 81.6983 59.6225 81.7374 60.6403 82.4313C61.3691 83.4436 61.5946 84.3095 61.9082 85.5002C62.4002 86.9453 63.3992 87.522 64.7083 88.1765C64.6141 84.9735 64.5198 81.7705 64.4228 78.4704C63.3865 78.0936 62.3502 77.7167 61.2826 77.3285C58.8048 75.7844 57.3025 73.7766 56.5633 70.9343C56.0386 68.022 56.5054 65.3627 58.0532 62.8407C59.708 60.541 61.7683 59.6022 64.4228 58.7727C64.4301 58.5387 64.4375 58.3046 64.4451 58.0635C64.4613 57.7558 64.4775 57.4482 64.4942 57.1312C64.514 56.6742 64.514 56.6742 64.5343 56.2079C64.8127 54.8301 65.5508 54.0399 66.9921 54.0624ZM62.3799 65.3587C61.4253 66.3577 61.3148 67.268 61.1934 68.6037C61.3332 70.1982 61.7776 71.3855 62.9954 72.4398C63.8087 73.078 63.8087 73.078 64.7083 73.3319C64.7083 70.2231 64.7083 67.1142 64.7083 63.9112C63.7068 63.9112 63.095 64.7135 62.3799 65.3587ZM69.2758 79.0413C69.2758 82.0559 69.2758 85.0705 69.2758 88.1765C70.4956 87.8716 70.9568 87.6146 71.8451 86.7491C72.622 85.3561 72.973 84.0505 72.7015 82.467C72.1944 80.9702 71.5038 79.8853 70.1323 79.0413C69.8496 79.0413 69.567 79.0413 69.2758 79.0413Z" fill="#FFAC09"/>
<path d="M98.9453 84.0483C99.8417 84.2479 100.125 84.5878 100.678 85.3218C100.853 86.1711 100.845 87.0084 100.84 87.8732C100.842 88.1233 100.843 88.3733 100.845 88.631C100.847 89.1608 100.846 89.6906 100.843 90.2205C100.839 91.0208 100.848 91.8201 100.859 92.6204C100.877 96.6619 100.288 99.6752 97.3852 102.68C95.0753 104.737 92.6481 105.676 89.5503 105.686C89.2355 105.689 89.2355 105.689 88.9143 105.692C88.474 105.695 88.0338 105.696 87.5936 105.696C86.9207 105.698 86.2483 105.708 85.5754 105.719C85.1459 105.72 84.7164 105.721 84.2869 105.722C84.0867 105.726 83.8866 105.73 83.6804 105.734C82.7028 105.725 82.2065 105.656 81.4257 105.047C80.8105 104.22 80.8184 103.707 80.8668 102.708C81.0402 101.88 81.4558 101.513 82.1224 101.023C82.9159 100.626 83.5726 100.701 84.4597 100.697C84.8185 100.692 85.1773 100.686 85.547 100.681C86.3003 100.67 87.0527 100.666 87.8063 100.665C90.0925 100.621 91.9389 100.394 93.8268 99.0246C95.3005 97.4691 95.5793 96.0211 95.5999 93.9507C95.6079 93.5047 95.6161 93.0586 95.6244 92.6125C95.6362 91.9109 95.6467 91.2094 95.6543 90.5077C95.6622 89.8294 95.6753 89.1514 95.6891 88.4732C95.69 88.2647 95.691 88.0562 95.6919 87.8414C95.7484 85.4873 96.5436 84.1488 98.9453 84.0483Z" fill="#FFAC09"/>
</svg>
