<svg width="120" height="119" viewBox="0 0 120 119" fill="none" xmlns="http://www.w3.org/2000/svg">
<g clip-path="url(#clip0_93_3743)">
<path d="M57.4433 0.929636C57.6704 0.983265 57.8975 1.03689 58.1315 1.09215C66.2807 3.09239 73.507 7.20496 79.5234 13.0156C79.7518 13.2293 79.9803 13.443 80.2089 13.6565C84.222 17.4687 87.1876 22.2056 89.5176 27.1933C89.6416 27.4552 89.7656 27.717 89.8934 27.9868C91.2834 31.0621 92.1832 34.3111 92.8731 37.6087C92.9141 37.7987 92.955 37.9887 92.9972 38.1844C93.2177 39.3076 93.2743 40.2377 93.0039 41.371C92.4024 42.0413 92.0288 42.2657 91.1445 42.4315C90.1544 42.2458 89.8781 41.956 89.2851 41.1386C89.1745 40.7843 89.0795 40.425 88.9946 40.0637C88.1681 36.6375 86.2373 33.4961 84.1719 30.6796C84.0167 30.4678 83.8615 30.256 83.7016 30.0378C81.9316 27.7368 79.9043 25.7061 77.4316 24.1718C77.188 24.019 76.9445 23.8662 76.6935 23.7088C71.3117 20.4316 65.1761 19.3476 59.0095 20.7427C58.3879 20.8917 58.3879 20.8917 57.9082 21.1503C58.0745 21.3226 58.2407 21.4949 58.4121 21.6724C64.883 28.4708 69.5316 36.7992 72.115 45.8161C72.1615 45.9768 72.2081 46.1374 72.256 46.3029C72.5498 47.4065 72.6184 48.3743 72.5508 49.5058C72.0759 50.2181 71.751 50.394 70.9383 50.6534C70.0533 50.6715 69.7334 50.5492 69.0644 49.9707C68.4751 48.753 68.1086 47.5071 67.7425 46.2083C65.4433 38.3883 61.5102 31.3776 56.0488 25.3339C55.8359 25.0956 55.6232 24.8571 55.4106 24.6185C54.9284 24.08 54.4442 23.5436 53.957 23.0097C47.5447 26.8474 44.0635 33.5857 42.2633 40.6302C40.1436 49.4492 40.591 58.4137 42.8008 67.1699C42.8495 67.3634 42.8982 67.557 42.9484 67.7564C43.8925 71.3962 45.2738 75.026 47.0127 78.3615C47.3244 79.0175 47.319 79.4696 47.2168 80.1855C46.752 80.8536 46.4058 81.2614 45.5962 81.4602C45.1105 81.4929 45.1105 81.4929 44.1953 81.3476C37.4624 74.3798 36.566 59.458 36.7166 50.4052C36.9632 39.594 40.5319 29.4992 48.2672 21.8894C48.9552 21.2356 49.6632 20.7178 50.4707 20.2207C49.6081 19.3124 48.7002 18.5653 47.6816 17.8383C47.5414 17.7347 47.4012 17.631 47.2567 17.5242C46.1717 16.7182 46.1717 16.7182 44.8926 16.5019C44.1892 16.8062 43.5598 17.2055 42.917 17.6204C42.7313 17.7374 42.5456 17.8544 42.3544 17.975C40.7194 19.0202 39.1885 20.1533 37.6875 21.3828C37.5068 21.5281 37.5068 21.5281 37.3224 21.6764C34.0342 24.3241 31.1269 27.2806 28.623 30.6796C28.5252 30.8098 28.4274 30.94 28.3266 31.0741C24.6141 36.0185 21.875 41.5207 20.0234 47.414C19.9687 47.5854 19.9139 47.7568 19.8575 47.9334C16.8742 57.4131 16.0996 70.2118 20.2558 79.4882C21.7714 81.0284 23.7377 82.142 25.6015 83.207C25.7511 83.2924 25.9007 83.3779 26.0548 83.466C31.0329 86.2753 36.3986 88.0479 42.0831 88.759C42.7853 88.8601 43.1921 88.9473 43.7123 89.4442C44.1123 90.2472 44.1135 90.9315 43.9629 91.8066C43.6578 92.3876 43.6578 92.3876 43.0332 92.7363C41.2273 92.9119 39.4795 92.6233 37.7165 92.2569C37.3388 92.1793 37.3388 92.1793 36.9534 92.1001C25.9527 89.74 15.9451 83.2606 9.33201 74.1425C9.23632 74.0119 9.14063 73.8813 9.04205 73.7467C5.12913 68.3414 2.65617 62.2553 1.19724 55.7812C1.15522 55.6014 1.1132 55.4215 1.06991 55.2362C-0.184534 49.6324 -0.0507103 42.7769 1.19724 37.1875C1.24342 36.9759 1.28959 36.7643 1.33717 36.5464C3.81587 25.5119 10.1403 15.4943 19.3261 8.83198C19.4568 8.73629 19.5874 8.64061 19.722 8.54202C25.1283 4.62836 31.2131 2.15855 37.6875 0.697214C37.8661 0.655194 38.0447 0.613174 38.2287 0.569881C44.2471 -0.789147 51.4813 -0.491073 57.4433 0.929636ZM42.5683 3.95112C42.4952 4.15036 42.4221 4.3496 42.3468 4.55487C41.8131 5.98073 41.2589 7.29554 40.4765 8.59956C40.4765 8.75296 40.4765 8.90635 40.4765 9.0644C40.6149 9.13359 40.7533 9.20278 40.8959 9.27407C42.4605 10.0564 44.0252 10.8387 45.5898 11.621C46.0136 11.4825 46.0136 11.4825 46.4805 11.2434C46.6634 11.1566 46.8464 11.0698 47.0349 10.9803C47.2339 10.885 47.433 10.7896 47.638 10.6914C51.9995 8.67629 56.4739 7.51161 61.1621 6.50776C58.4302 3.77585 50.9496 3.76309 47.2936 3.71552C45.7152 3.72478 44.1415 3.82895 42.5683 3.95112ZM36.2902 5.13502C36.1142 5.18745 35.9382 5.23988 35.7568 5.2939C35.4829 5.37704 35.4829 5.37704 35.2035 5.46186C35.0182 5.51729 34.8329 5.57272 34.6419 5.62982C34.1849 5.76667 33.7281 5.90468 33.2715 6.04292C33.8271 6.41334 34.2728 6.65953 34.8839 6.89997C35.1171 6.9948 35.1171 6.9948 35.3551 7.09154C35.9274 7.22885 36.215 7.19811 36.7578 6.9726C37.1167 6.61596 37.1167 6.61596 37.3969 6.17365C37.4964 6.03014 37.5959 5.88663 37.6984 5.73877C37.9579 5.35336 37.9579 5.35336 37.9199 4.88081C37.2839 4.88081 36.8887 4.95503 36.2902 5.13502ZM24.7735 9.96504C24.4999 10.1364 24.4999 10.1364 24.2207 10.3113C22.5952 11.3453 21.0212 12.457 19.5586 13.7128C19.5586 13.7895 19.5586 13.8662 19.5586 13.9453C21.0914 13.8247 22.5565 13.6101 24.0472 13.2335C24.3411 13.1596 24.3411 13.1596 24.641 13.0842C26.196 12.6751 27.7009 12.1615 29.2041 11.592C29.4109 11.5138 29.6177 11.4356 29.8308 11.355C30.7741 10.9855 31.5447 10.6305 32.3418 9.99409C31.6742 9.79814 31.0059 9.60486 30.3371 9.41303C30.1493 9.35761 29.9614 9.30218 29.7679 9.24507C27.6636 8.64629 26.6102 8.78717 24.7735 9.96504ZM49.541 13.9453C50.6028 15.0779 51.8087 16.009 53.0273 16.9667C53.2191 17.1438 53.4108 17.3209 53.6084 17.5033C54.1442 17.9498 54.1442 17.9498 54.7078 17.8746C54.9203 17.8051 55.1327 17.7356 55.3515 17.664C55.6892 17.5731 56.0273 17.4837 56.3657 17.3953C56.9412 17.2395 57.5164 17.0828 58.0911 16.9241C65.367 14.9645 72.718 16.7916 79.1075 20.4366C79.9216 20.9238 80.6535 21.4749 81.3828 22.08C81.5362 22.0033 81.6896 21.9266 81.8476 21.8476C78.6666 17.7371 75.1821 14.155 70.9238 11.1562C70.7912 11.062 70.6585 10.9678 70.5218 10.8708C65.2731 7.18712 54.9188 11.5844 49.541 13.9453ZM35.9113 12.5145C31.2598 15.465 25.9439 16.8455 20.5464 17.7366C20.3144 17.7752 20.0824 17.8138 19.8434 17.8536C18.8771 18.0069 17.9287 18.1431 16.9502 18.1733C15.7238 18.2361 14.8615 18.3336 13.9877 19.231C13.2865 20.0514 12.7033 20.941 12.1211 21.8476C11.9359 22.1201 11.7501 22.3922 11.5636 22.6638C11.0251 23.4606 10.5205 24.2748 10.0293 25.1015C9.94995 25.2346 9.87063 25.3677 9.78891 25.5048C7.59615 29.2462 6.10944 33.432 5.14841 37.6523C5.11036 37.8154 5.07231 37.9786 5.03311 38.1466C3.86021 43.4538 3.81894 50.0372 5.14841 55.3164C5.19706 55.5112 5.24571 55.7061 5.29583 55.9068C5.66643 57.3517 6.0874 58.777 6.54294 60.1972C6.5953 60.3616 6.64766 60.526 6.7016 60.6953C8.24287 65.417 10.8038 70.4672 14.4453 73.9101C14.3514 72.672 14.254 71.4375 14.0939 70.2059C12.2154 55.6912 16.1644 40.6981 24.8316 28.9365C25.1632 28.5084 25.4972 28.0822 25.834 27.6582C25.9922 27.4553 26.1503 27.2525 26.3133 27.0435C30.5164 21.7665 35.5238 17.5885 41.1738 13.9453C40.5568 13.2088 39.8165 12.8987 38.9513 12.5072C38.6825 12.384 38.4138 12.2609 38.1369 12.134C37.097 11.7062 36.836 11.9262 35.9113 12.5145Z" fill="white"/>
<path d="M98.3871 44.1457C112.554 43.7895 112.554 43.7895 116.767 46.8647C117.313 47.5984 117.532 48.3576 117.757 49.2298C117.805 49.41 117.853 49.5902 117.903 49.7759C121.386 63.3344 119.594 78.2048 112.59 90.3703C109.792 95.0976 106.416 99.1139 102.562 103.006C102.436 103.135 102.31 103.263 102.181 103.395C99.7459 105.866 97.1284 108.043 94.224 109.95C94.0489 110.065 93.8739 110.18 93.6935 110.299C87.8457 114.096 81.4049 116.736 74.5699 118.143C74.4038 118.177 74.2377 118.211 74.0666 118.247C70.7052 118.884 67.3223 119.089 63.9075 119.073C63.7213 119.072 63.5352 119.072 63.3434 119.071C50.868 119.024 50.868 119.024 47.3098 116.142C46.9058 115.651 46.7915 115.246 46.6356 114.629C46.5785 114.405 46.5213 114.18 46.4624 113.949C46.4045 113.708 46.3466 113.467 46.287 113.218C46.2263 112.97 46.1656 112.721 46.103 112.465C42.7771 98.4165 45.2098 83.6684 52.6336 71.3131C53.2708 70.2932 53.9487 69.3056 54.6542 68.332C54.7485 68.2015 54.8428 68.0711 54.94 67.9367C56.5125 65.7836 58.2518 63.7971 60.1434 61.9168C60.6113 61.4458 61.0417 60.9675 61.4671 60.4587C62.3018 59.4989 63.2115 58.6903 64.1835 57.873C64.5057 57.5899 64.5057 57.5899 64.8345 57.301C74.0435 49.2503 86.1523 44.4967 98.3871 44.1457ZM68.5995 59.5C68.4717 59.6035 68.344 59.707 68.2123 59.8136C65.033 62.4136 62.0197 65.2864 59.5351 68.5644C59.3903 68.7504 59.3903 68.7504 59.2426 68.9402C55.6434 73.5707 52.8969 78.8228 51.0081 84.3691C50.9264 84.6064 50.8447 84.8438 50.7605 85.0883C50.6879 85.3112 50.6153 85.534 50.5405 85.7636C50.4762 85.9602 50.4119 86.1567 50.3456 86.3592C50.1885 87.1876 50.3097 87.7931 50.7124 88.5308C50.8118 88.6696 50.9112 88.8083 51.0135 88.9513C51.1254 89.1091 51.2373 89.2669 51.3526 89.4294C51.5344 89.6786 51.5344 89.6786 51.7199 89.9327C51.8453 90.107 51.9706 90.2813 52.0998 90.4609C55.8949 95.7002 60.1678 100.866 65.0841 105.091C65.6348 105.569 66.1725 106.059 66.7111 106.551C67.6988 107.445 68.7227 108.278 69.7771 109.092C70.2265 109.471 70.2265 109.471 70.4589 109.936C70.5644 111.387 70.5644 111.387 70.1974 111.998C69.5544 112.384 69.1216 112.478 68.3671 112.492C67.1127 111.869 66.1111 111.082 65.0696 110.153C64.917 110.019 64.7644 109.884 64.6072 109.746C64.1547 109.346 63.7041 108.944 63.2538 108.541C63.0285 108.342 62.8032 108.143 62.5711 107.938C59.6199 105.289 56.6252 102.514 54.1894 99.3757C53.731 98.7876 53.2533 98.223 52.767 97.6581C51.5329 96.2244 50.3935 94.7524 49.3085 93.2011C46.6348 97.8075 48.8633 107.027 50.0139 111.937C50.2008 112.745 50.2008 112.745 50.703 113.422C51.165 113.617 51.165 113.617 51.7099 113.728C51.9132 113.776 52.1165 113.824 52.3259 113.873C52.543 113.921 52.76 113.968 52.9837 114.017C53.2052 114.068 53.4268 114.118 53.6551 114.17C55.296 114.537 56.9338 114.858 58.6054 115.049C58.8307 115.075 59.056 115.1 59.2881 115.127C72.3916 116.364 85.5206 112.168 95.6537 103.814C96.2522 103.309 96.8367 102.789 97.4198 102.266C97.5383 102.16 97.6567 102.054 97.7788 101.945C102.39 97.8227 106.226 93.2387 109.273 87.8554C109.359 87.7077 109.445 87.5599 109.533 87.4077C111.197 84.521 112.388 81.4778 113.457 78.3261C113.542 78.1065 113.626 77.8869 113.713 77.6607C114.138 76.4603 114.138 76.4603 113.988 75.2293C113.684 74.6865 113.345 74.2118 112.963 73.7213C112.834 73.5425 112.704 73.3637 112.571 73.1795C112.177 72.6413 111.773 72.1131 111.365 71.5859C111.143 71.2906 110.92 70.9953 110.698 70.6998C110.085 69.8963 109.452 69.1114 108.808 68.332C108.703 68.2042 108.598 68.0763 108.49 67.9447C106.338 65.3394 104.059 62.8675 101.676 60.4732C101.513 60.3093 101.35 60.1453 101.182 59.9764C100.121 58.9182 99.0249 57.9158 97.8847 56.9433C97.7492 56.8273 97.6138 56.7113 97.4742 56.5918C97.0939 56.2672 96.7124 55.944 96.3303 55.6214C96.2044 55.5146 96.0784 55.4078 95.9486 55.2978C95.3768 54.8143 94.8047 54.3431 94.2041 53.8955C93.7011 53.457 93.7011 53.457 93.4832 52.6435C93.4693 51.8654 93.4816 51.5187 93.9335 50.9003C94.6988 50.5177 95.4346 50.5109 96.2577 50.6679C96.9775 51.0674 97.5641 51.5871 98.1752 52.1351C98.3474 52.2834 98.5196 52.4316 98.697 52.5844C99.2057 53.0251 99.7082 53.472 100.209 53.9218C100.409 54.1001 100.409 54.1001 100.613 54.2819C101.419 55.0026 102.208 55.7399 102.998 56.4785C103.259 56.7165 103.521 56.954 103.783 57.1912C104.983 58.2795 106.16 59.3616 107.2 60.6076C107.685 61.1721 108.193 61.71 108.705 62.2503C110.863 64.5327 112.813 66.9384 114.54 69.5649C114.694 69.76 114.694 69.76 114.851 69.9589C115.005 69.9589 115.158 69.9589 115.316 69.9589C115.498 68.6667 115.588 67.4109 115.596 66.1067C115.598 65.9213 115.599 65.7358 115.601 65.5448C115.605 64.9486 115.606 64.3524 115.607 63.7562C115.607 63.5528 115.607 63.3493 115.608 63.1398C115.605 60.2796 115.537 57.4828 114.958 54.6713C114.844 54.1192 114.746 53.5653 114.647 53.0103C114.576 52.6457 114.504 52.2813 114.43 51.9172C114.4 51.753 114.37 51.5889 114.34 51.4198C114.167 50.6525 114.004 50.2652 113.372 49.7854C112.154 49.3823 110.924 49.1343 109.666 48.8957C109.412 48.8454 109.159 48.795 108.898 48.7432C94.5084 45.9397 79.8521 50.3817 68.5995 59.5Z" fill="white"/>
<path d="M99.2792 63.6835C100.036 64.1878 100.18 64.4774 100.369 65.3686C100.139 66.6223 99.469 67.2225 98.582 68.0995C98.4097 68.2748 98.2374 68.4501 98.0599 68.6307C97.6179 69.0774 97.1722 69.5198 96.7226 69.9589C97.0675 70.757 97.53 71.2831 98.1316 71.9054C98.7011 72.537 99.0285 72.9303 99.3228 73.7358C99.2691 74.5235 99.0645 74.9166 98.582 75.537C97.7423 76.0968 97.4806 76.1701 96.4902 76.0019C95.8077 75.5219 95.2217 74.9621 94.6308 74.3749C94.439 74.188 94.2473 74.001 94.0497 73.8084C93.9347 73.6886 93.8196 73.5687 93.7011 73.4452C92.9194 73.784 92.4122 74.2148 91.8163 74.8198C91.641 74.9966 91.4658 75.1733 91.2852 75.3555C91.1045 75.54 90.9239 75.7246 90.7377 75.9147C90.4613 76.1943 90.4613 76.1943 90.1794 76.4794C89.7253 76.939 89.2723 77.3996 88.8202 77.8613C89.0385 78.1208 89.2574 78.3797 89.4767 78.6384C89.6594 78.8548 89.6594 78.8548 89.8459 79.0756C90.243 79.5356 90.243 79.5356 90.8685 80.0693C91.5238 80.8182 91.6093 81.2893 91.6093 82.2773C91.2966 82.9623 91.1246 83.3331 90.4472 83.6718C89.6562 83.8444 89.3426 83.9085 88.5878 83.6718C87.6461 82.8947 86.8383 82.0291 86.0312 81.1152C85.2495 81.4539 84.7423 81.8848 84.1464 82.4897C83.9711 82.6665 83.7958 82.8433 83.6153 83.0254C83.4346 83.2099 83.2539 83.3945 83.0678 83.5846C82.8835 83.771 82.6993 83.9574 82.5094 84.1494C82.0553 84.6089 81.6024 85.0696 81.1503 85.5312C81.3685 85.7884 81.5871 86.0452 81.8058 86.302C81.9275 86.4451 82.0492 86.5881 82.1745 86.7356C82.4066 87.0003 82.6457 87.2592 82.8943 87.5085C83.5094 88.1498 83.7908 88.6374 83.8377 89.5114C83.707 90.412 83.707 90.412 83.3583 90.9931C82.7057 91.3847 82.1819 91.5144 81.4182 91.4788C80.6054 91.2561 80.1038 90.7432 79.5134 90.1615C79.0084 89.6655 78.4491 89.2273 77.8964 88.7851C76.4391 90.2424 74.9818 91.6997 73.4804 93.2011C73.936 94.1122 74.2762 94.462 75.0202 95.1186C76.188 96.2601 76.188 96.2601 76.2259 97.2249C76.0205 98.1569 75.8916 98.4817 75.1074 99.0116C74.4422 99.2504 74.0836 99.284 73.4041 99.0879C72.6297 98.703 72.1467 98.2103 71.5484 97.5881C71.3432 97.3765 71.1379 97.165 70.9265 96.9471C70.695 96.7035 70.695 96.7035 70.4589 96.455C69.301 97.4158 68.2354 98.4317 67.1859 99.5101C66.6307 100.047 66.3931 100.161 65.6216 100.246C64.696 100.156 64.3533 99.9149 63.7187 99.2441C63.4705 98.5989 63.4472 98.2381 63.6143 97.5699C64.1084 96.6163 64.8381 95.9596 65.6071 95.2203C65.7602 95.0703 65.9133 94.9204 66.071 94.7659C66.4475 94.3976 66.8255 94.031 67.205 93.6659C66.8139 92.8282 66.3494 92.3041 65.6797 91.6613C64.4488 90.4757 64.4488 90.4757 64.3433 89.5259C64.4341 88.6003 64.6748 88.2576 65.3456 87.623C66.0085 87.368 66.3594 87.3489 67.0416 87.5404C67.8478 87.9446 68.4074 88.5174 69.0208 89.1628C69.1959 89.3425 69.1959 89.3425 69.3744 89.5259C69.6601 89.8197 69.9435 90.1157 70.2265 90.412C71.8902 89.0579 73.3702 87.5211 74.8749 85.996C74.5368 85.2071 74.1026 84.7223 73.4804 84.1366C72.863 83.5556 72.3891 83.0773 72.0859 82.2773C72.1032 81.3045 72.1768 80.8168 72.8122 80.0693C73.4804 79.7206 73.4804 79.7206 74.2503 79.6771C75.418 80.0531 76.108 80.7268 76.9667 81.58C77.1585 81.767 77.3502 81.9539 77.5478 82.1465C77.6628 82.2664 77.7779 82.3862 77.8964 82.5097C78.6781 82.1709 79.1853 81.7401 79.7812 81.1351C79.9565 80.9584 80.1318 80.7816 80.3123 80.5995C80.493 80.4149 80.6737 80.2304 80.8598 80.0402C81.0441 79.8539 81.2283 79.6675 81.4182 79.4755C81.8723 79.0159 82.3252 78.5553 82.7773 78.0937C82.5614 77.8372 82.3449 77.5813 82.1281 77.3256C81.9474 77.1117 81.9474 77.1117 81.763 76.8935C81.3979 76.4838 81.0143 76.1141 80.6128 75.7404C79.9862 75.0701 79.7558 74.8137 79.7558 73.9101C79.9362 73.2211 80.1328 72.8389 80.6274 72.3267C81.3684 71.9356 81.7126 71.8907 82.5449 72.0507C83.2282 72.53 83.8132 73.0902 84.4042 73.6777C84.5286 73.7987 84.6529 73.9197 84.781 74.0445C85.0463 74.306 85.307 74.5723 85.5663 74.8398C86.3481 74.501 86.8552 74.0702 87.4511 73.4652C87.6264 73.2884 87.8017 73.1117 87.9823 72.9296C88.1629 72.745 88.3436 72.5604 88.5297 72.3703C88.8061 72.0908 88.8061 72.0908 89.0881 71.8056C89.5422 71.346 89.9952 70.8854 90.4472 70.4238C89.5455 69.3627 89.5455 69.3627 88.6196 68.3229C87.4006 66.9888 87.4006 66.9888 87.4257 66.0077C87.955 64.6972 87.955 64.6972 88.5878 64.3808C89.3433 64.2459 89.7219 64.1898 90.4472 64.3808C91.1011 64.8575 91.6625 65.3782 92.2376 65.9469C92.7047 66.4069 93.1738 66.7839 93.7011 67.1698C93.8043 67.0655 93.9075 66.9611 94.0138 66.8535C94.4803 66.3821 94.9477 65.9117 95.4152 65.4412C95.6588 65.1947 95.6588 65.1947 95.9073 64.9432C96.0631 64.7867 96.2189 64.6301 96.3794 64.4689C96.523 64.324 96.6666 64.1792 96.8146 64.0299C97.6262 63.2758 98.2339 63.4492 99.2792 63.6835Z" fill="#FFAC09"/>
</g>
<defs>
<clipPath id="clip0_93_3743">
<rect width="119" height="119" fill="white" transform="translate(0.5)"/>
</clipPath>
</defs>
</svg>
