<svg width="114" height="115" viewBox="0 0 114 115" fill="none" xmlns="http://www.w3.org/2000/svg">
<path d="M36.4673 28.8751C39.9056 31.7844 41.8487 35.3224 42.3169 39.7916C42.6415 43.774 41.4221 47.2849 39.3029 50.6193C39.4664 50.6838 39.6299 50.7483 39.7983 50.8147C41.3951 51.4599 42.899 52.1979 44.3932 53.0538C44.5489 52.8692 44.7047 52.6846 44.8652 52.4945C47.7489 49.17 51.1011 47.2067 55.5532 46.6832C59.8359 46.4258 63.8243 47.576 67.1152 50.3539C68.0122 51.1998 68.826 52.1142 69.6231 53.0538C69.9518 52.8736 69.9518 52.8736 70.2871 52.6898C73.1673 51.1242 73.1673 51.1242 74.7134 50.6193C74.5959 50.4265 74.4783 50.2336 74.3572 50.0349C71.9574 46.0239 71.1158 41.9424 72.0576 37.3404C73.1076 33.3155 75.6008 30.0034 79.1397 27.8238C82.7842 25.8421 86.8598 25.1899 90.9524 26.0533C93.9163 26.9758 96.2552 28.48 98.3942 30.7009C98.5436 30.8461 98.6931 30.9914 98.8472 31.141C101.485 33.8663 102.527 37.9055 102.482 41.6062C102.368 44.4834 101.56 47.4651 99.7921 49.779C99.4571 50.154 99.4571 50.154 99.5007 50.6193C99.6565 50.6761 99.8123 50.7329 99.9728 50.7914C102.871 51.9149 105.242 53.5501 107.468 55.7096C107.62 55.8448 107.771 55.98 107.927 56.1194C111.111 59.0595 113.494 64.0497 113.687 68.3662C113.697 68.9536 113.7 69.5406 113.701 70.128C113.702 70.3509 113.703 70.5738 113.704 70.8035C113.707 71.5382 113.709 72.2729 113.71 73.0076C113.711 73.5191 113.712 74.0306 113.714 74.5421C113.716 75.6131 113.717 76.6842 113.718 77.7552C113.719 79.128 113.725 80.5008 113.731 81.8736C113.735 82.9294 113.736 83.9852 113.737 85.041C113.737 85.5473 113.739 86.0535 113.742 86.5597C113.746 87.267 113.745 87.9741 113.744 88.6813C113.747 88.9951 113.747 88.9951 113.75 89.3151C113.743 90.3944 113.71 91.1333 113.001 92.0053C112.075 92.818 111.57 93.1397 110.348 93.1385C110.115 93.1388 109.882 93.1391 109.641 93.1394C109.384 93.1386 109.127 93.1379 108.862 93.137C108.592 93.1371 108.322 93.1371 108.044 93.1371C107.303 93.137 106.562 93.1359 105.821 93.1343C105.046 93.133 104.272 93.1328 103.498 93.1326C102.032 93.1319 100.565 93.1301 99.0986 93.1278C97.4293 93.1254 95.7599 93.1242 94.0906 93.123C90.6562 93.1207 87.2218 93.1168 83.7873 93.1119C83.7895 93.4478 83.7896 93.4478 83.7918 93.7905C83.8053 95.9037 83.8152 98.0169 83.8217 100.13C83.8252 101.217 83.8299 102.303 83.8374 103.389C83.8447 104.438 83.8486 105.487 83.8503 106.536C83.8516 106.936 83.8539 107.335 83.8575 107.735C83.8624 108.296 83.863 108.857 83.8627 109.418C83.8663 109.664 83.8663 109.664 83.8699 109.915C83.8626 111.165 83.6231 112.229 82.7914 113.195C81.5852 114.106 80.6978 114.169 79.229 114.168C79.0324 114.169 78.8357 114.169 78.6331 114.17C77.9715 114.172 77.3099 114.172 76.6483 114.173C76.1751 114.174 75.7018 114.175 75.2285 114.176C73.9409 114.179 72.6532 114.18 71.3655 114.181C70.5614 114.182 69.7574 114.183 68.9533 114.184C66.4387 114.187 63.924 114.189 61.4094 114.19C58.5045 114.191 55.5996 114.195 52.6947 114.201C50.4507 114.206 48.2067 114.208 45.9627 114.208C44.6218 114.209 43.2809 114.21 41.94 114.214C40.6788 114.217 39.4176 114.218 38.1563 114.216C37.6933 114.216 37.2303 114.217 36.7672 114.219C36.1353 114.222 35.5035 114.221 34.8716 114.218C34.6882 114.22 34.5048 114.222 34.3158 114.224C33.0825 114.213 32.1465 113.998 31.1929 113.149C30.2206 111.923 30.1966 111.021 30.2039 109.493C30.2038 109.316 30.2038 109.139 30.2038 108.957C30.2039 108.372 30.2056 107.788 30.2074 107.203C30.2078 106.798 30.2081 106.392 30.2083 105.987C30.2092 104.92 30.2113 103.853 30.2138 102.786C30.216 101.697 30.2171 100.609 30.2182 99.5197C30.2205 97.3838 30.2243 95.2478 30.229 93.1119C30.0876 93.1127 29.9463 93.1135 29.8006 93.1144C26.3594 93.1339 22.9181 93.1486 19.4768 93.1578C17.8126 93.1623 16.1484 93.1686 14.4842 93.1787C13.0335 93.1875 11.5829 93.1932 10.1321 93.1952C9.36414 93.1964 8.59624 93.1991 7.82828 93.2055C6.97044 93.2126 6.11267 93.2128 5.2548 93.2124C5.00089 93.2156 4.74698 93.2188 4.48538 93.2221C3.10733 93.2149 2.28583 93.1491 1.23665 92.2266C1.10427 92.1125 0.971899 91.9984 0.835514 91.8808C0.345704 91.2879 0.322997 90.6953 0.318815 89.9605C0.317231 89.7692 0.315647 89.5779 0.314016 89.3808C0.313421 89.1714 0.312826 88.9621 0.312213 88.7464C0.310031 88.4148 0.310031 88.4148 0.307806 88.0765C0.303434 87.3427 0.300855 86.6089 0.29865 85.8751C0.297749 85.6237 0.296848 85.3724 0.295918 85.1134C0.291298 83.7805 0.288134 82.4477 0.286061 81.1148C0.283625 79.7454 0.276026 78.3761 0.267211 77.0067C0.261388 75.9481 0.25957 74.8896 0.258778 73.831C0.257708 73.3268 0.255154 72.8225 0.251021 72.3183C0.20032 65.7166 2.0334 60.291 6.68654 55.4744C8.81748 53.3384 11.6535 51.5734 14.5156 50.6193C14.2771 49.9255 13.9761 49.3635 13.5612 48.7658C11.5369 45.6183 11.1131 41.3391 11.8765 37.7243C12.6612 34.525 14.1791 32.093 16.5074 29.8157C16.6478 29.6682 16.7881 29.5207 16.9328 29.3687C22.0686 24.3351 31.0018 24.7045 36.4673 28.8751ZM20.09 36.054C18.7131 37.9431 18.2088 40.1221 18.4993 42.4307C19.0347 44.9496 20.3102 46.7879 22.387 48.2938C24.3038 49.4814 26.2286 49.7661 28.4585 49.5127C30.9156 48.9108 32.7369 47.5761 34.2127 45.5291C35.4346 43.3625 35.6734 41.0691 35.1757 38.6285C34.4158 36.3356 33.0005 34.7241 30.8929 33.578C30.6443 33.4407 30.6443 33.4407 30.3906 33.3005C26.6142 31.5031 22.6504 33.0532 20.09 36.054ZM80.4814 35.6338C78.7755 37.9298 78.45 40.069 78.6971 42.8733C79.1777 45.0944 80.3555 46.8124 82.2044 48.1148C84.426 49.4736 86.751 49.9182 89.3306 49.3692C91.595 48.6208 93.4038 47.1289 94.6318 45.0864C95.6651 42.8792 95.8561 40.7445 95.1712 38.4055C94.4178 36.3759 92.9558 34.5528 91.0242 33.5296C87.3833 31.8611 83.1389 32.4942 80.4814 35.6338ZM51.0741 56.0554C50.9144 56.2334 50.7546 56.4114 50.59 56.5948C50.4394 56.7592 50.2887 56.9235 50.1335 57.0928C48.6862 59.1471 48.4142 61.2067 48.5982 63.6769C49.1013 66.0412 50.5219 67.9041 52.453 69.3188C54.4311 70.4739 56.5953 70.852 58.821 70.3916C61.3597 69.7121 63.1477 68.3471 64.5329 66.1114C65.5549 64.1552 65.7746 62.0335 65.2487 59.8869C64.4256 57.4831 62.9174 55.724 60.7705 54.3817C60.1196 54.0822 59.4753 53.8823 58.7787 53.7177C58.6269 53.6809 58.4751 53.6441 58.3188 53.6062C55.5388 53.1172 53.0817 54.2263 51.0741 56.0554ZM10.6607 61.258C7.79551 64.7529 7.14191 68.2414 7.16894 72.6134C7.16977 73.0075 7.1704 73.4016 7.17084 73.7957C7.17252 74.8272 7.17686 75.8587 7.18177 76.8901C7.18632 77.945 7.18833 78.9999 7.19055 80.0547C7.19528 82.1202 7.20306 84.1857 7.21217 86.2511C9.62229 86.2511 12.0324 86.2511 14.5156 86.2511C14.5213 85.292 14.527 84.3328 14.5329 83.3446C14.5399 82.5778 14.5478 81.8109 14.5563 81.044C14.565 80.2357 14.5721 79.4274 14.5756 78.619C14.5789 77.8397 14.5866 77.0606 14.5971 76.2814C14.602 75.8408 14.6024 75.4002 14.6029 74.9597C14.6433 72.4535 14.6433 72.4535 15.6222 71.423C16.6278 70.7373 17.5366 70.5862 18.7206 70.759C19.7581 71.1381 20.3271 71.6084 20.9337 72.5296C21.1716 73.2517 21.189 73.9366 21.2005 74.6937C21.2071 75.079 21.2071 75.079 21.2139 75.4722C21.2176 75.7484 21.2213 76.0246 21.2251 76.3092C21.2297 76.5929 21.2343 76.8765 21.239 77.1688C21.2512 77.9212 21.2621 78.6736 21.2728 79.426C21.284 80.1945 21.2963 80.963 21.3085 81.7314C21.3324 83.238 21.3543 84.7445 21.3764 86.2511C24.5899 86.2511 27.8034 86.2511 31.1142 86.2511C31.5524 85.0826 31.9907 83.914 32.4421 82.7101C35.1109 77.1907 39.3584 74.0782 44.8358 71.6443C44.5612 71.0903 44.2782 70.5444 43.986 69.9991C42.8209 67.7978 41.956 65.7706 41.9423 63.2326C42.0149 61.1926 42.0149 61.1926 41.3674 59.3258C40.8453 58.9047 40.3586 58.6363 39.7455 58.3654C39.549 58.2635 39.3524 58.1617 39.1499 58.0567C36.355 56.6772 33.735 56.3394 30.6578 56.3286C30.378 56.3273 30.0983 56.3261 29.81 56.3248C29.2185 56.3227 28.6269 56.3211 28.0354 56.3204C27.4353 56.3194 26.8353 56.3163 26.2353 56.3113C20.2017 56.2615 15.0719 56.6 10.6607 61.258ZM72.2789 59.9146C72.2522 60.21 72.2392 60.5067 72.2322 60.8033C72.1144 64.5975 71.4118 67.4211 69.6231 70.759C69.4748 71.0537 69.327 71.3487 69.1805 71.6443C69.3062 71.6998 69.432 71.7552 69.5615 71.8123C72.1875 72.9829 74.5458 74.1532 76.7052 76.0706C76.9474 76.2803 76.9474 76.2803 77.1945 76.4942C80.0661 79.1614 81.6825 82.5923 82.9021 86.2511C86.1156 86.2511 89.3291 86.2511 92.64 86.2511C92.6482 85.3425 92.6565 84.4338 92.665 83.4977C92.6735 82.7701 92.6826 82.0425 92.6921 81.315C92.702 80.5486 92.7107 79.7823 92.7166 79.016C92.7235 78.1353 92.7356 77.2547 92.748 76.3741C92.7494 76.1013 92.7509 75.8285 92.7523 75.5474C92.776 74.1591 92.8241 73.0798 93.5252 71.8656C94.4979 70.9416 95.2651 70.6877 96.6107 70.7124C97.593 70.813 98.1989 71.2174 98.8664 71.9202C99.5973 73.0704 99.413 74.5223 99.4143 75.8337C99.4176 76.1345 99.4213 76.4353 99.4254 76.7361C99.435 77.5241 99.4395 78.3121 99.4428 79.1003C99.4471 79.9059 99.4564 80.7115 99.4653 81.517C99.4824 83.0951 99.4913 84.6729 99.5007 86.2511C101.911 86.2511 104.321 86.2511 106.804 86.2511C106.824 83.9962 106.84 81.7413 106.85 79.4862C106.855 78.4388 106.861 77.3915 106.871 76.3441C106.881 75.331 106.886 74.318 106.888 73.3048C106.89 72.9207 106.893 72.5365 106.898 72.1524C106.95 67.8189 105.976 64.0991 102.924 60.8559C99.7141 57.6248 95.8098 56.3441 91.313 56.3064C91.0508 56.3066 90.7886 56.3068 90.5184 56.307C90.2397 56.306 89.961 56.3051 89.6738 56.3041C89.0879 56.3028 88.5021 56.3025 87.9163 56.3037C87.3222 56.3047 86.7283 56.3032 86.1343 56.2991C85.2672 56.2937 84.4002 56.2928 83.5332 56.2931C83.2719 56.2911 83.0106 56.2891 82.7414 56.287C79.0658 56.307 74.9743 57.2192 72.2789 59.9146ZM40.5184 82.4568C38.1561 85.4701 37.0581 88.7924 37.0646 92.6031C37.0646 92.7631 37.0646 92.9231 37.0645 93.088C37.0647 93.6101 37.0664 94.1321 37.0681 94.6542C37.0686 95.0189 37.0689 95.3835 37.0691 95.7482C37.0699 96.7029 37.0721 97.6575 37.0746 98.6122C37.0768 99.5885 37.0778 100.565 37.079 101.541C37.0813 103.453 37.0852 105.364 37.0898 107.276C39.2077 107.276 41.3257 107.276 43.5079 107.276C43.5162 106.559 43.5245 105.842 43.533 105.104C43.5432 104.406 43.5546 103.709 43.566 103.012C43.5733 102.528 43.5795 102.045 43.5846 101.562C43.592 100.866 43.6036 100.17 43.616 99.4739C43.6181 99.1518 43.6181 99.1518 43.6203 98.8233C43.6526 97.3202 43.8327 96.1918 44.8496 95.0208C45.7338 94.2792 46.5779 94.341 47.6991 94.3464C48.5947 94.4698 49.0273 94.7899 49.6589 95.4124C50.1575 96.0755 50.1784 96.7036 50.1928 97.5025C50.1973 97.7226 50.2018 97.9427 50.2064 98.1694C50.21 98.4002 50.2136 98.631 50.2174 98.8687C50.2215 99.0812 50.2257 99.2937 50.2299 99.5127C50.245 100.307 50.2583 101.101 50.2719 101.895C50.3198 104.559 50.3198 104.559 50.3687 107.276C54.7507 107.276 59.1328 107.276 63.6476 107.276C63.6941 103.757 63.6941 103.757 63.7335 100.238C63.7406 99.7959 63.748 99.3539 63.7557 98.9119C63.7578 98.5692 63.7578 98.5692 63.7599 98.2195C63.7897 96.7346 63.9987 95.9626 64.9617 94.8133C66.0151 94.2328 67.1183 94.2661 68.2952 94.4398C69.2036 94.8914 69.6195 95.2955 70.0658 96.2103C70.2623 96.8598 70.3195 97.4534 70.3325 98.1306C70.3369 98.3344 70.3414 98.5381 70.3459 98.7481C70.3515 99.0752 70.3515 99.0752 70.3571 99.409C70.3617 99.6337 70.3663 99.8585 70.3711 100.09C70.3855 100.807 70.3986 101.524 70.4116 102.241C70.4211 102.728 70.4308 103.214 70.4405 103.7C70.4644 104.892 70.4864 106.084 70.5084 107.276C72.6264 107.276 74.7444 107.276 76.9266 107.276C76.9366 105.187 76.9447 103.097 76.9495 101.008C76.9518 100.037 76.9549 99.0667 76.9599 98.0963C76.9648 97.1578 76.9674 96.2193 76.9686 95.2808C76.9694 94.9247 76.9709 94.5686 76.9734 94.2126C77.0046 89.4063 76.0631 85.2298 72.7224 81.5828C68.4561 77.5243 63.5347 77.2475 57.966 77.2831C57.1684 77.2881 56.371 77.2851 55.5734 77.28C49.7707 77.2485 44.6109 77.7969 40.5184 82.4568Z" fill="white"/>
<path d="M78.1023 3.52058C78.9725 4.10751 79.4714 4.69564 79.8036 5.69224C79.955 7.11517 79.7094 8.17578 79.0913 9.44855C79.0169 9.60926 78.9425 9.76998 78.8658 9.93556C78.6286 10.4455 78.3863 10.9528 78.1438 11.4603C77.9878 11.7942 77.8322 12.1284 77.6769 12.4627C77.3674 13.1267 77.0528 13.7878 76.7337 14.4473C76.4152 15.1057 76.1097 15.7682 75.8122 16.4363C75.665 16.7554 75.5178 17.0744 75.3704 17.3934C75.3081 17.5396 75.2457 17.6857 75.1815 17.8363C74.6988 18.8574 74.1544 19.2561 73.1657 19.7074C72.1036 20.0637 71.1342 20.0096 70.1211 19.5106C69.2931 18.9688 68.8447 18.3498 68.5165 17.422C68.3303 15.9917 68.6326 14.8854 69.2367 13.6017C69.3116 13.435 69.3865 13.2683 69.4637 13.0966C69.7024 12.5679 69.9463 12.0418 70.1902 11.5156C70.348 11.1672 70.5055 10.8187 70.6627 10.47C71.0459 9.62349 71.4367 8.78085 71.8328 7.94031C71.9804 7.6267 72.1271 7.31267 72.2729 6.99818C72.4722 6.56919 72.6753 6.14218 72.8797 5.71558C72.9938 5.47485 73.1079 5.23412 73.2255 4.98609C74.3322 3.18148 76.1954 2.83699 78.1023 3.52058Z" fill="#FFAC09"/>
<path d="M39.0826 3.4012C40.7392 4.23843 41.3349 6.20332 42.0721 7.80503C42.2094 8.10149 42.2094 8.10149 42.3495 8.40394C42.5416 8.81893 42.7333 9.23407 42.9248 9.64936C43.2182 10.2859 43.5128 10.9219 43.8076 11.5579C43.9945 11.9622 44.1814 12.3665 44.3682 12.7708C44.4563 12.961 44.5444 13.1512 44.6351 13.3471C44.7164 13.5238 44.7977 13.7004 44.8815 13.8823C44.953 14.0374 45.0246 14.1924 45.0983 14.3522C45.55 15.3892 45.6586 16.3055 45.4999 17.4219C45.1121 18.3897 44.6196 19.0315 43.7709 19.635C42.5424 20.0205 41.5699 20.0388 40.4075 19.5063C39.4609 19.01 39.0577 18.3587 38.646 17.3934C38.5745 17.2385 38.503 17.0837 38.4293 16.9242C38.2776 16.5954 38.1282 16.2655 37.9809 15.9347C37.6812 15.2685 37.3624 14.612 37.0442 13.9544C36.7262 13.2932 36.4165 12.6283 36.1074 11.9629C35.9493 11.6243 35.7896 11.2864 35.6284 10.9492C35.3903 10.4506 35.1573 9.9499 34.9252 9.44847C34.8533 9.30043 34.7814 9.15238 34.7073 8.99985C34.2092 7.90338 34.0477 6.89311 34.2128 5.69216C34.5695 4.74209 35.0957 3.99441 35.9833 3.479C37.0042 3.13873 38.0461 3.0658 39.0826 3.4012Z" fill="#FFAC09"/>
<path d="M58.6128 1.08613C59.6506 1.77018 60.1368 2.48241 60.4599 3.67995C60.6338 4.58124 60.6168 5.48784 60.6159 6.40289C60.6168 6.61703 60.6178 6.83117 60.6187 7.05179C60.62 7.50304 60.6201 7.95429 60.6192 8.40553C60.6185 9.09132 60.6236 9.77689 60.6293 10.4626C60.6298 10.903 60.6299 11.3433 60.6297 11.7836C60.6317 11.9863 60.6338 12.189 60.6359 12.3979C60.626 13.7932 60.5286 15.3552 59.5718 16.4542C58.6205 17.279 57.8261 17.4901 56.5786 17.4695C55.603 17.3677 54.9762 16.9392 54.2971 16.2601C53.4082 14.8631 53.399 13.4505 53.4006 11.8424C53.3997 11.6283 53.3987 11.4141 53.3978 11.1935C53.3965 10.7423 53.3964 10.291 53.3973 9.83976C53.398 9.15398 53.3928 8.46841 53.3872 7.78265C53.3867 7.34233 53.3866 6.902 53.3868 6.46168C53.3848 6.25897 53.3827 6.05627 53.3806 5.84742C53.3905 4.45214 53.4878 2.8901 54.4446 1.79112C55.6996 0.703024 57.0829 0.527137 58.6128 1.08613Z" fill="#FFAC09"/>
</svg>
