<svg width="130" height="129" viewBox="0 0 130 129" fill="none" xmlns="http://www.w3.org/2000/svg">
<g clip-path="url(#clip0_93_3749)">
<path d="M69.0943 -0.0945344C69.2748 -0.101152 69.4552 -0.107769 69.6412 -0.114587C70.4927 -0.117247 70.9676 -0.0571527 71.6659 0.445787C72.3021 1.36532 72.177 1.92244 72.0547 3.02339C71.6256 3.6693 71.3471 3.76923 70.5824 3.92786C70.2784 3.95676 69.9744 3.98567 69.6611 4.01545C69.2976 4.0547 68.9341 4.09479 68.5707 4.13552C68.3662 4.15801 68.1618 4.1805 67.9511 4.20368C63.7118 4.69659 59.5258 5.35085 55.4258 6.55073C55.2368 6.60586 55.0478 6.66099 54.8531 6.7178C47.4874 8.91617 39.2144 12.8429 35.1426 19.6976C32.7006 24.301 32.6809 28.0391 34.1845 32.9617C36.9445 41.5465 45.8101 46.9585 53.4102 50.8945C53.6247 51.0058 53.8391 51.1172 54.0601 51.2319C62.844 55.7366 75.3333 60.6622 85.4082 57.9492C86.9222 57.4252 88.4754 56.7882 89.2663 55.3194C89.4451 54.653 89.4521 54.1001 89.4395 53.414C89.2406 53.3422 89.2406 53.3422 89.0377 53.269C77.2827 48.9914 77.2827 48.9914 73.0625 45.0996C72.8282 44.2248 72.7242 43.6263 72.9838 42.7532C73.408 42.2078 73.6551 42.0225 74.3223 41.8242C75.9279 41.8966 76.9106 42.4966 78.2118 43.3516C86.7538 48.7466 98.1907 53.1983 108.446 51.0992C110.322 50.5663 112.05 49.8223 113.123 48.123C113.816 46.0433 113.281 44.2449 112.367 42.3281C112.214 42.4197 112.061 42.5113 111.903 42.6056C110.482 43.4205 109.043 44.1023 107.517 44.6901C107.351 44.7563 107.184 44.8224 107.013 44.8905C105.907 45.3029 104.976 45.4472 103.801 45.3515C103.187 44.9736 103.187 44.9736 102.793 44.3437C102.645 43.5069 102.562 42.6621 103.067 41.9324C103.757 41.4167 104.526 41.1565 105.328 40.8636C109.464 39.2823 112.334 36.85 114.241 32.8011C115.806 29.1516 116.041 25.6806 114.619 21.9356C112.663 17.5684 109.279 14.3927 105.313 11.8417C105.164 11.7463 105.016 11.6509 104.863 11.5526C97.5088 6.92129 88.5131 4.74623 79.9105 4.22533C78.6409 4.13676 77.6894 3.9808 76.5899 3.27534C76.2004 2.49637 76.2639 1.86584 76.3379 1.00776C76.7316 0.453661 76.7316 0.453661 77.3457 -5.1938e-05C78.0029 -0.0988185 78.5333 -0.131497 79.1881 -0.110281C79.374 -0.10677 79.5599 -0.103258 79.7515 -0.0996399C89.514 0.20915 100.616 3.02054 108.588 8.81831C108.841 8.99759 109.094 9.17687 109.355 9.36158C112.772 11.8439 115.569 14.7148 117.658 18.3925C117.766 18.5725 117.873 18.7524 117.984 18.9378C120.03 22.6214 120.376 27.1963 119.422 31.2421C118.769 33.4997 117.88 35.5246 116.528 37.4573C116.12 38.0856 115.821 38.5739 115.643 39.3046C115.893 40.0518 115.893 40.0518 116.335 40.7849C117.672 43.1764 117.887 45.4312 117.658 48.123C117.441 48.7588 117.441 48.7588 117.17 49.304C116.556 50.5798 116.548 51.787 116.509 53.1778C116.393 57.062 115.896 61.4744 114.131 65.0039C114.35 65.0935 114.35 65.0935 114.573 65.1849C116.413 66.2347 117.665 68.6256 118.414 70.5468C118.632 71.446 118.755 72.0097 118.493 72.8931C118.069 73.4385 117.822 73.6239 117.154 73.8222C115.612 73.741 115.612 73.741 115.005 73.272C114.346 72.4575 113.969 71.492 113.526 70.5488C111.798 67.2958 109.037 66.5928 105.564 65.5078C105.564 72.3256 105.564 79.1435 105.564 86.1679C109.618 84.9013 111.816 84.165 113.879 80.6249C114.067 80.2546 114.251 79.8821 114.43 79.5069C115.098 78.1951 115.098 78.1951 115.895 77.8535C116.758 77.8838 117.393 77.9374 118.131 78.4046C118.55 79.0798 118.616 79.5757 118.666 80.373C118.454 81.0787 118.13 81.7082 117.784 82.3571C117.691 82.5361 117.597 82.7151 117.5 82.8995C115.811 86.0397 113.079 88.3103 109.701 89.5171C108.322 89.9204 107.004 90.1992 105.564 90.1992C105.558 90.4135 105.551 90.6279 105.545 90.8487C105.277 96.575 103.636 101.886 101.281 107.08C101.414 107.135 101.548 107.19 101.685 107.246C102.514 107.709 103.188 108.328 103.895 108.954C105.277 110.162 106.688 111.314 108.158 112.414C109.245 113.245 110.236 114.155 110.855 115.394C110.981 116.773 111.054 118.006 110.446 119.268C110.249 119.487 110.051 119.705 109.848 119.93C109.738 120.07 109.628 120.21 109.515 120.355C109.003 120.959 108.606 121.372 107.826 121.571C106.978 121.615 106.409 121.497 105.69 121.048C105.156 120.18 105.157 119.674 105.313 118.67C105.685 118.104 106.108 117.657 106.572 117.158C106.572 116.992 106.572 116.826 106.572 116.654C106.094 116.202 106.094 116.202 105.454 115.709C105.202 115.507 104.95 115.305 104.69 115.097C104.548 114.985 104.407 114.872 104.261 114.756C103.398 114.063 102.545 113.358 101.691 112.654C101.506 112.503 101.322 112.351 101.132 112.195C100.024 111.282 98.9248 110.359 97.8327 109.426C96.167 108.005 94.4453 106.658 92.7149 105.316C91.4384 106.384 90.2456 107.502 89.0773 108.686C88.8369 108.928 88.8369 108.928 88.5916 109.175C88.2018 109.568 87.8125 109.961 87.4239 110.355C87.753 111.305 88.1385 111.925 88.8253 112.654C89.5878 113.486 90.3197 114.329 91.0299 115.206C91.878 116.251 92.7399 117.283 93.6124 118.308C95.3883 120.398 97.0846 122.547 98.7617 124.717C98.9748 124.514 99.1879 124.311 99.4074 124.103C100.254 123.403 100.918 123.185 102.037 123.205C102.971 123.692 103.234 124.05 103.612 125.032C103.52 126.415 102.778 127.08 101.785 127.992C100.747 128.838 99.9097 129.092 98.5525 129.07C96.761 128.841 95.5702 127.692 94.4943 126.339C94.3665 126.184 94.2387 126.029 94.107 125.87C93.7235 125.404 93.3448 124.935 92.9668 124.465C92.7463 124.194 92.5255 123.923 92.3045 123.653C91.9302 123.195 91.5576 122.735 91.1874 122.274C90.7149 121.712 90.2185 121.196 89.6914 120.685C89.5745 120.787 89.4576 120.888 89.3371 120.992C85.1985 124.397 79.9689 126.627 74.8262 127.992C74.6256 128.046 74.4249 128.1 74.2182 128.155C68.4547 129.62 61.4498 129.689 55.6777 128.244C55.5013 128.204 55.3248 128.163 55.143 128.121C47.8451 126.436 41.3134 122.698 36.0254 117.41C35.9398 116.652 35.8869 116.126 36.0254 115.394C36.5451 114.749 36.5451 114.749 37.2852 114.387C38.6345 114.452 39.3285 114.733 40.3244 115.631C40.5637 115.836 40.8031 116.041 41.0497 116.253C41.1754 116.361 41.3012 116.468 41.4307 116.579C45.2263 119.763 49.6758 122.061 54.418 123.457C54.6699 123.532 54.6699 123.532 54.9268 123.608C64.4454 126.348 74.5673 124.756 83.1525 120.011C84.4852 119.247 85.716 118.364 86.9199 117.41C86.19 116.099 85.2287 115.04 84.2429 113.916C83.211 112.555 82.7274 111.341 82.8887 109.6C83.1406 108.859 83.1406 108.859 83.3926 108.34C82.6443 108.257 81.896 108.174 81.125 108.088C81.1338 108.455 81.1426 108.823 81.1516 109.201C81.1587 109.686 81.1656 110.17 81.1723 110.655C81.1818 111.017 81.1818 111.017 81.1915 111.387C81.2151 113.664 81.2151 113.664 80.3692 114.639C78.913 116.017 77.5105 115.805 75.5978 115.788C75.2797 115.794 74.9615 115.8 74.6338 115.806C72.0335 115.802 72.0335 115.802 71.1089 115.071C70.2822 114.071 69.974 113.424 69.9899 112.123C69.9923 111.77 69.9923 111.77 69.9948 111.409C70.0011 111.044 70.0011 111.044 70.0076 110.67C70.0099 110.423 70.0121 110.175 70.0145 109.919C70.0204 109.309 70.0294 108.698 70.0391 108.088C69.0413 108.088 68.0436 108.088 67.0156 108.088C67.0244 108.455 67.0332 108.823 67.0422 109.201C67.0493 109.686 67.0562 110.17 67.0629 110.655C67.0692 110.896 67.0756 111.138 67.0821 111.387C67.1057 113.664 67.1057 113.664 66.2598 114.639C64.8064 116.012 63.4133 115.814 61.5042 115.804C61.1882 115.812 60.8721 115.82 60.5465 115.829C57.9525 115.831 57.9525 115.831 56.8568 114.928C56.2178 114.282 55.9475 113.735 55.9011 112.807C55.9024 112.59 55.9037 112.372 55.9051 112.148C55.9059 111.911 55.9067 111.675 55.9076 111.432C55.9097 111.186 55.9118 110.94 55.914 110.686C55.9151 110.437 55.9162 110.188 55.9174 109.932C55.9204 109.317 55.9249 108.702 55.9297 108.088C54.932 108.088 53.9342 108.088 52.9063 108.088C52.918 108.452 52.9296 108.817 52.9417 109.192C52.9512 109.674 52.9603 110.157 52.9693 110.639C52.9777 110.879 52.9861 111.118 52.9948 111.365C53.0154 112.843 52.9243 113.739 51.8985 114.891C50.6325 116.068 49.0449 115.786 47.4105 115.788C46.9348 115.802 46.9348 115.802 46.4495 115.816C43.8371 115.829 43.8371 115.829 42.7465 114.929C41.9097 114.081 41.7887 113.311 41.7957 112.148C41.7969 111.793 41.7969 111.793 41.7982 111.432C41.8014 111.063 41.8014 111.063 41.8046 110.686C41.8057 110.437 41.8069 110.188 41.808 109.932C41.811 109.317 41.8151 108.702 41.8203 108.088C41.3159 108.1 40.8115 108.112 40.3071 108.125C39.8047 108.088 39.8047 108.088 39.1748 107.71C38.7222 106.956 38.6671 106.433 38.6384 105.568C38.8925 104.76 39.3521 104.507 40.0567 104.057C40.7759 103.97 41.393 103.938 42.1087 103.958C42.3026 103.96 42.4966 103.961 42.6964 103.962C43.3126 103.968 43.9285 103.981 44.5446 103.994C44.9637 103.999 45.3828 104.003 45.8019 104.007C46.8264 104.018 47.8506 104.036 48.875 104.057C48.8697 103.904 48.8645 103.752 48.859 103.595C48.838 102.898 48.8249 102.202 48.812 101.506C48.8036 101.266 48.7951 101.026 48.7864 100.779C48.766 99.3078 48.8435 98.3886 49.8828 97.2539C51.3186 96.2235 52.6947 96.3774 54.4022 96.3878C54.6963 96.3827 54.9904 96.3777 55.2934 96.3725C58.0308 96.3741 58.0308 96.3741 59.2051 97.5058C60.2424 98.6605 60.0465 100.026 60.0082 101.49C60.0048 101.736 60.0014 101.983 59.9979 102.237C59.989 102.844 59.9754 103.45 59.961 104.057C60.9587 104.057 61.9564 104.057 62.9844 104.057C62.9727 103.692 62.961 103.328 62.949 102.952C62.9395 102.47 62.9303 101.988 62.9214 101.506C62.913 101.266 62.9045 101.026 62.8958 100.779C62.8754 99.3078 62.9529 98.3886 63.9922 97.2539C64.9416 96.5709 65.6005 96.4014 66.7637 96.3976C67.0495 96.3966 67.3353 96.3957 67.6298 96.3947C67.926 96.3976 68.2222 96.4005 68.5274 96.4035C68.8236 96.4006 69.1198 96.3977 69.4249 96.3947C69.7108 96.3956 69.9966 96.3966 70.291 96.3976C70.5509 96.3985 70.8107 96.3993 71.0784 96.4002C72.2262 96.5552 72.8706 97.0443 73.6412 97.8857C74.2393 99.1121 74.1806 100.162 74.1333 101.506C74.1288 101.751 74.1242 101.997 74.1195 102.25C74.1077 102.852 74.0897 103.454 74.0703 104.057C75.0681 104.057 76.0658 104.057 77.0938 104.057C77.0821 103.692 77.0704 103.328 77.0583 102.952C77.0489 102.47 77.0397 101.988 77.0308 101.506C77.0223 101.266 77.0139 101.026 77.0052 100.779C76.9848 99.3078 77.0623 98.3886 78.1016 97.2539C79.051 96.5709 79.7099 96.4014 80.8731 96.3976C81.3018 96.3961 81.3018 96.3961 81.7392 96.3947C82.0354 96.3976 82.3316 96.4005 82.6367 96.4035C82.9329 96.4006 83.2291 96.3977 83.5343 96.3947C83.8201 96.3956 84.1059 96.3966 84.4004 96.3976C84.6602 96.3985 84.9201 96.3993 85.1878 96.4002C86.3277 96.5541 87.1955 97.131 87.9278 98.0097C88.1455 98.6629 88.224 99.1033 88.2594 99.7763C88.27 99.9671 88.2805 100.158 88.2914 100.355C88.3013 100.553 88.3112 100.75 88.3214 100.954C88.3323 101.155 88.3432 101.356 88.3544 101.563C88.3811 102.058 88.4065 102.554 88.4317 103.049C88.5473 102.945 88.6629 102.842 88.782 102.736C88.9366 102.6 89.0912 102.464 89.2505 102.324C89.4025 102.19 89.5545 102.055 89.7111 101.917C90.8565 101.018 91.8125 100.895 93.2483 100.92C94.4797 101.112 95.3002 101.765 96.2422 102.545C96.3994 102.671 96.5566 102.796 96.7186 102.926C97.0694 103.212 97.4127 103.507 97.7539 103.805C100.709 99.3713 101.353 92.9151 101.362 87.7742C101.364 87.4212 101.367 87.0682 101.369 86.7152C101.376 85.7691 101.38 84.823 101.383 83.8768C101.387 82.8835 101.394 81.8902 101.4 80.8969C101.412 79.0214 101.421 77.1458 101.43 75.2703C101.439 73.1328 101.452 70.9952 101.465 68.8577C101.49 64.4657 101.513 60.0736 101.533 55.6816C101.293 55.6656 101.052 55.6496 100.805 55.6332C100.488 55.6115 100.172 55.5898 99.8462 55.5675C99.3765 55.5357 99.3765 55.5357 98.8972 55.5033C97.836 55.4156 96.8109 55.2531 95.7698 55.036C95.5934 55.001 95.4171 54.9661 95.2354 54.9302C94.8147 54.8466 94.3946 54.7605 93.9746 54.6738C93.9136 54.8563 93.8525 55.0388 93.7896 55.2269C93.091 57.2421 92.3145 58.7715 90.6992 60.2167C90.533 60.2167 90.3667 60.2167 90.1953 60.2167C90.1953 60.383 90.1953 60.5493 90.1953 60.7207C90.3727 60.7781 90.55 60.8356 90.7327 60.8949C91.5989 61.2902 92.2438 61.8286 92.9353 62.4686C93.1341 62.6525 93.1341 62.6525 93.3369 62.84C96.3 65.6759 97.7107 69.4279 97.8484 73.4758C97.7703 77.9612 96.0504 81.7184 92.8319 84.8289C89.6363 87.6974 85.7861 88.6273 81.6122 88.53C78.6066 88.3659 75.9658 87.2045 73.5664 85.4121C73.4076 85.302 73.2488 85.1919 73.0852 85.0784C70.4071 83.047 68.4992 79.3638 68.0235 76.0898C67.7301 71.7922 68.2097 68.0923 70.7949 64.4999C71.3102 63.9242 71.8373 63.3895 72.407 62.8682C72.8371 62.5026 72.8371 62.5026 73.0625 61.9804C72.9119 61.9697 72.7612 61.959 72.606 61.948C70.9696 61.8109 69.435 61.5067 67.8502 61.0828C67.5998 61.0162 67.3493 60.9495 67.0913 60.8808C57.0688 58.1451 46.8826 53.5572 39.0488 46.6113C38.8332 46.4229 38.6175 46.2345 38.3953 46.0404C36.5557 44.4113 34.7908 42.7374 33.2539 40.8164C29.7484 45.9415 28.1334 51.2631 28.1457 57.4799C28.1446 57.8532 28.1433 58.2265 28.1418 58.5997C28.1384 59.605 28.1382 60.6103 28.1389 61.6156C28.1391 62.4594 28.1379 63.3033 28.1367 64.1471C28.1339 66.141 28.1338 68.1348 28.1353 70.1286C28.1368 72.1743 28.1337 74.22 28.1284 76.2658C28.1239 78.0318 28.1224 79.7978 28.1232 81.5639C28.1237 82.6143 28.1231 83.6648 28.1195 84.7153C28.1163 85.7049 28.1169 86.6944 28.1201 87.684C28.1207 88.0434 28.1201 88.4028 28.118 88.7622C28.0991 92.2335 28.6028 95.6302 29.6163 98.9545C29.6785 99.1599 29.7407 99.3653 29.8048 99.5769C30.8222 102.766 32.2724 105.868 34.2011 108.607C34.6342 109.284 34.7839 109.804 34.7656 110.607C34.479 111.194 34.2193 111.658 33.7578 112.119C32.3393 112.261 32.3393 112.261 31.7422 112.119C26.8266 108.037 24.6307 99.0812 23.9785 93.0525C23.7972 90.7862 23.8719 88.4964 23.8824 86.225C23.8834 85.6256 23.8841 85.0262 23.8846 84.4268C23.8865 82.8603 23.8915 81.2939 23.8971 79.7274C23.9022 78.1245 23.9045 76.5215 23.9071 74.9186C23.9124 71.7816 23.921 68.6447 23.9317 65.5078C23.291 65.6954 22.6516 65.8861 22.0125 66.0786C21.8331 66.1308 21.6538 66.1829 21.469 66.2367C19.0891 66.9603 17.2 68.301 15.9223 70.4612C14.4714 73.2648 13.9687 75.8151 14.8574 78.9056C16.0598 82.2491 18.1632 84.0592 21.3019 85.601C21.916 85.916 21.916 85.916 22.4199 86.6718C22.5264 87.6477 22.5627 88.2128 22.0263 89.0496C21.182 89.5908 20.6424 89.5164 19.6485 89.4433C15.7899 88.0883 13.0966 85.3814 11.273 81.7686C9.68282 78.182 9.78647 74.229 11.024 70.5567C11.675 68.9488 12.5005 67.5981 13.7276 66.3738C14.2636 65.7784 14.2636 65.7784 14.3309 65.0063C14.2825 64.8262 14.2341 64.6461 14.1842 64.4606C14.1324 64.2605 14.0806 64.0604 14.0272 63.8543C13.9413 63.5503 13.9413 63.5503 13.8535 63.2402C13.8027 63.0556 13.7519 62.8709 13.6995 62.6807C13.5963 62.3099 13.492 61.9394 13.3867 61.5692C10.9128 52.7572 12.0158 43.3873 16.3623 35.332C19.3715 30.0128 23.7388 25.5564 28.9707 22.4238C29.137 22.4238 29.3033 22.4238 29.4746 22.4238C29.5092 22.11 29.5092 22.11 29.5445 21.79C29.7609 20.7468 30.1442 19.9044 30.6242 18.9594C30.7136 18.7821 30.803 18.6048 30.8952 18.4221C31.6802 16.9134 32.6282 15.6327 33.7578 14.3613C33.8871 14.2021 34.0164 14.043 34.1495 13.879C36.8175 10.6054 40.6369 8.24289 44.3399 6.29878C44.5687 6.17717 44.5687 6.17717 44.8022 6.0531C52.1198 2.22287 60.8431 0.0925939 69.0943 -0.0945344ZM24.5025 31.1545C19.0088 36.9719 15.9703 44.8857 16.0837 52.8796C16.2071 55.4748 16.5643 57.9475 17.2549 60.453C17.3087 60.6483 17.3625 60.8437 17.418 61.045C17.7217 62.1168 17.7217 62.1168 18.3887 62.9882C18.5777 62.9213 18.7667 62.8544 18.9615 62.7855C19.3483 62.652 19.3483 62.652 19.7429 62.5158C20.12 62.3843 20.12 62.3843 20.5047 62.2501C21.6345 61.9143 22.7737 61.6914 23.9317 61.4765C23.934 61.251 23.9364 61.0256 23.9388 60.7932C24.0435 52.7977 24.6679 43.6215 30.7295 37.6128C31.1633 36.6405 30.7687 35.7581 30.4824 34.7695C30.4315 34.5821 30.3806 34.3948 30.3281 34.2018C30.1739 33.6391 30.0137 33.0784 29.8526 32.5177C29.4016 30.9256 29.0081 29.3456 28.7188 27.7148C27.538 27.7148 25.3304 30.3514 24.5025 31.1545ZM110.383 54.6423C108.784 55.145 107.222 55.4419 105.564 55.6816C105.564 57.5939 105.564 59.5062 105.564 61.4765C106.25 61.648 106.936 61.8195 107.643 61.9962C107.858 62.0511 108.072 62.106 108.293 62.1626C108.55 62.2249 108.55 62.2249 108.812 62.2885C109.074 62.3538 109.074 62.3538 109.34 62.4204C109.911 62.4923 110.31 62.4039 110.855 62.2324C112.011 58.2644 112.011 58.2644 112.367 54.1699C111.651 54.1699 111.064 54.4187 110.383 54.6423ZM75.834 65.2558C75.6016 65.4365 75.6016 65.4365 75.3645 65.6209C73.5314 67.2346 72.1619 69.9948 71.9947 72.4286C71.8945 76.0579 72.7219 78.637 75.2199 81.3178C75.4225 81.5049 75.6252 81.692 75.834 81.8847C76.0107 82.051 76.1874 82.2173 76.3694 82.3886C78.9856 84.2086 81.5353 84.6225 84.6524 84.4042C87.74 83.7715 90.0987 82.1355 91.959 79.6171C93.4854 77.1533 94.1167 74.4869 93.5967 71.6147C92.842 68.54 91.174 65.886 88.4789 64.1535C84.2712 61.8444 79.5797 62.2781 75.834 65.2558ZM52.9063 100.529C52.9063 101.693 52.9063 102.857 52.9063 104.057C53.904 104.057 54.9017 104.057 55.9297 104.057C55.9297 102.893 55.9297 101.729 55.9297 100.529C54.932 100.529 53.9342 100.529 52.9063 100.529ZM67.0156 100.529C67.0156 101.693 67.0156 102.857 67.0156 104.057C68.0134 104.057 69.0111 104.057 70.0391 104.057C70.0391 102.893 70.0391 101.729 70.0391 100.529C69.0413 100.529 68.0436 100.529 67.0156 100.529ZM81.125 100.529C81.125 101.693 81.125 102.857 81.125 104.057C82.1228 104.057 83.1205 104.057 84.1485 104.057C84.1485 102.893 84.1485 101.729 84.1485 100.529C83.1507 100.529 82.153 100.529 81.125 100.529ZM45.8516 108.088C45.8516 109.252 45.8516 110.416 45.8516 111.615C46.8493 111.615 47.847 111.615 48.875 111.615C48.875 110.451 48.875 109.287 48.875 108.088C47.8773 108.088 46.8795 108.088 45.8516 108.088ZM59.961 108.088C59.961 109.252 59.961 110.416 59.961 111.615C60.9587 111.615 61.9564 111.615 62.9844 111.615C62.9844 110.451 62.9844 109.287 62.9844 108.088C61.9867 108.088 60.9889 108.088 59.961 108.088ZM74.0703 108.088C74.0703 109.252 74.0703 110.416 74.0703 111.615C75.0681 111.615 76.0658 111.615 77.0938 111.615C77.0938 110.451 77.0938 109.287 77.0938 108.088C76.096 108.088 75.0983 108.088 74.0703 108.088Z" fill="white"/>
<path d="M55.1738 61.2246C58.2125 63.4964 60.7288 66.814 61.4106 70.6236C61.8043 74.935 61.429 79.2211 58.5614 82.6938C55.9727 85.6674 52.6471 88.1595 48.5856 88.478C44.3372 88.6888 40.3935 88.0563 37.082 85.1745C34.2532 82.5922 31.9475 79.284 31.7127 75.3444C31.5183 70.9671 32.4202 67.0202 35.364 63.6339C40.8329 57.9987 48.4954 57.1847 55.1738 61.2246ZM38.3402 66.4684C36.1924 69.0822 35.4866 71.9995 35.7734 75.334C36.197 77.3413 37.0204 79.0243 38.2929 80.625C38.4134 80.7799 38.5339 80.9348 38.6581 81.0945C40.1295 82.766 42.6325 84.1196 44.8437 84.4043C48.4233 84.6316 51.1552 83.9664 53.9632 81.6879C56.0338 79.7669 57.2842 77.3355 57.5043 74.5319C57.6106 71.5012 56.8876 68.8623 54.9218 66.5156C52.659 64.1182 49.9757 62.7755 46.6861 62.6418C43.358 62.7132 40.6016 64.061 38.3402 66.4684Z" fill="white"/>
<path d="M49.4577 69.0982C50.892 70.0962 51.5417 71.0901 51.8985 72.8145C52.0254 74.2102 51.8557 75.3857 51.1426 76.5938C49.8385 78.062 48.6164 78.7629 46.6547 78.9559C45.2185 78.9092 43.9582 78.3929 42.8705 77.456C41.8403 76.3431 41.3271 75.2643 41.3096 73.717C41.4143 71.9415 41.8696 70.7699 43.1274 69.4761C45.1994 68.1869 47.2905 67.83 49.4577 69.0982Z" fill="white"/>
<path d="M86.4288 69.6061C87.558 70.6107 88.0696 71.8074 88.1886 73.3076C88.1563 75.1819 87.428 76.6102 86.0854 77.9166C84.6412 78.857 83.0685 79.0989 81.3839 78.762C79.6495 78.244 78.6531 77.0012 77.7394 75.4915C77.3788 73.8085 77.3986 72.2673 78.2719 70.7536C79.2015 69.4757 80.2833 68.6155 81.8563 68.3276C83.6776 68.1614 84.9452 68.5186 86.4288 69.6061Z" fill="white"/>
<path d="M60.465 88.4355C60.7144 88.6018 60.9638 88.7681 61.2208 88.9394C61.2208 89.1057 61.2208 89.272 61.2208 89.4433C61.4936 89.5524 61.4936 89.5524 61.772 89.6638C62.2084 89.8383 62.6405 90.025 63.0632 90.2307C64.4235 90.6735 65.5388 90.6199 66.811 90.0102C67.4321 89.6719 67.8791 89.3489 68.4172 88.8764C69.2549 88.275 69.786 88.3071 70.795 88.4355C71.3934 88.7189 71.3934 88.7189 71.8029 89.1914C72.0751 90.0263 72.1355 90.4931 71.8186 91.3172C70.1164 93.4321 68.2072 94.5174 65.4824 94.8209C62.4594 94.9142 60.1946 93.9972 57.9454 91.9628C57.4574 91.2143 57.4399 90.9859 57.4888 90.0574C57.6935 89.1914 57.6935 89.1914 57.9612 88.7032C58.7474 88.272 59.5893 88.2996 60.465 88.4355Z" fill="white"/>
<path d="M102.289 115.646C102.903 116.04 102.903 116.04 103.297 116.654C103.47 117.473 103.47 117.473 103.297 118.418C102.78 119.165 102.179 119.797 101.533 120.434C101.402 120.573 101.27 120.713 101.135 120.858C100.617 121.338 100.216 121.391 99.5175 121.441C98.6796 121.242 98.3387 121.035 97.7853 120.371C97.4254 119.491 97.5066 119.079 97.7538 118.166C98.2567 117.531 98.2567 117.531 98.8719 116.953C99.0742 116.76 99.2765 116.566 99.485 116.366C100.414 115.556 101.064 115.541 102.289 115.646Z" fill="white"/>
<path d="M93.2188 107.836C93.8644 108.356 93.8644 108.356 94.2266 109.096C94.2461 110.192 94.0824 110.71 93.4392 111.6C92.5261 112.255 92.0533 112.279 90.9512 112.119C90.3528 111.851 90.3528 111.851 89.9434 111.363C89.6914 110.529 89.6914 110.529 89.6914 109.6C90.5562 107.989 91.3861 107.521 93.2188 107.836Z" fill="white"/>
</g>
<defs>
<clipPath id="clip0_93_3749">
<rect width="129" height="129" fill="white" transform="translate(0.5)"/>
</clipPath>
</defs>
</svg>
