<svg width="122" height="121" viewBox="0 0 122 121" fill="none" xmlns="http://www.w3.org/2000/svg">
<g clip-path="url(#clip0_93_3693)">
<path d="M61.0148 -0.0886251C61.3578 -0.0914418 61.3578 -0.0914418 61.7077 -0.0943155C65.072 -0.115508 68.316 0.158086 71.6348 0.708982C71.9036 0.753422 72.1724 0.797862 72.4494 0.843648C73.0627 0.953924 73.6703 1.07651 74.2787 1.21118C74.6069 1.28372 74.6069 1.28372 74.9418 1.35773C82.1824 3.04135 91.2817 6.17626 96.6856 11.5801C96.8205 12.6019 96.7902 13.0774 96.2129 13.9434C95.5039 14.416 95.5039 14.416 94.6325 14.4751C93.554 14.259 92.8135 13.6679 91.9461 13.0193C90.533 12.0167 88.9933 11.2172 87.4688 10.3984C87.317 10.3164 87.1653 10.2344 87.0089 10.1499C74.1834 3.28107 58.5568 1.98884 44.666 6.16449C37.7656 8.35484 31.4375 11.5227 25.7871 16.0703C25.58 16.2364 25.58 16.2364 25.3688 16.4058C22.0604 19.0862 18.8921 22.1142 16.334 25.5234C16.1681 25.739 16.1681 25.739 15.9989 25.9588C10.4374 33.2066 6.99422 41.4159 5.22656 50.3379C5.18719 50.527 5.14781 50.7161 5.10725 50.9109C3.75529 57.6427 4.00839 65.3931 5.46289 72.0801C5.51354 72.3135 5.56419 72.5469 5.61637 72.7873C7.63724 81.7636 11.7229 90.1608 17.752 97.1309C17.9076 97.3127 18.0633 97.4946 18.2237 97.682C20.8741 100.703 23.7109 103.516 26.9688 105.875C27.1111 105.979 27.2534 106.084 27.4 106.191C31.5337 109.199 35.9371 111.537 40.6758 113.438C41.2375 113.663 41.7987 113.889 42.3596 114.117C42.5698 114.199 42.78 114.281 42.9966 114.366C43.5345 114.63 43.8555 114.854 44.2207 115.328C44.313 116.174 44.3193 116.762 43.9696 117.544C43.277 118.125 42.7583 118.121 41.8574 118.164C41.0672 117.98 40.333 117.687 39.5828 117.381C39.3663 117.295 39.1499 117.209 38.9269 117.121C33.7294 115.02 28.8026 112.402 24.3691 108.947C24.1723 108.796 23.9755 108.644 23.7728 108.488C22.5325 107.514 21.3525 106.487 20.1891 105.424C19.7253 105.004 19.2534 104.603 18.7711 104.206C18.0348 103.579 17.4145 102.887 16.79 102.15C16.2846 101.564 15.7558 101.004 15.2262 100.439C8.2 92.7011 3.67412 82.9059 1.5044 72.7448C1.45741 72.5262 1.41041 72.3076 1.362 72.0825C0.584037 68.2523 0.411307 64.4868 0.426149 60.5886C0.426659 60.348 0.427168 60.1073 0.427693 59.8594C0.439439 56.4033 0.51369 53.0254 1.20899 49.6289C1.27753 49.2756 1.27753 49.2756 1.34746 48.9152C3.5762 37.6357 8.76821 27.1673 16.8066 18.9062C16.9703 18.7365 17.134 18.5667 17.3026 18.3918C19.6042 16.0125 21.9083 13.7426 24.6055 11.8164C24.7518 11.7107 24.8981 11.6049 25.0488 11.496C32.5723 6.08671 41.0041 2.38826 50.1289 0.708982C50.3181 0.670978 50.5074 0.632974 50.7023 0.593819C54.1116 -0.0730613 57.554 -0.0737392 61.0148 -0.0886251Z" fill="white"/>
<mask id="path-2-inside-1_93_3693" fill="white">
<path d="M60.9999 35.3311C61.1559 35.3287 61.3119 35.3262 61.4726 35.3237C62.1853 35.5131 62.4413 35.8104 62.8906 36.3946C62.9731 37.0611 63.0013 37.6323 62.9829 38.2963C62.9816 38.4786 62.9802 38.6608 62.9788 38.8486C62.9736 39.429 62.9617 40.0091 62.9497 40.5894C62.9449 40.9836 62.9406 41.3778 62.9367 41.772C62.9263 42.7368 62.91 43.7014 62.8906 44.6661C63.0654 44.6957 63.2402 44.7254 63.4203 44.756C63.6516 44.7964 63.8829 44.8368 64.1211 44.8784C64.4638 44.9375 64.4638 44.9375 64.8133 44.9978C65.7204 45.1867 66.5262 45.493 67.3808 45.8477C67.4445 45.6791 67.5082 45.5106 67.5738 45.3369C68.071 44.1443 68.739 43.0418 69.3748 41.9188C69.5825 41.5468 69.5825 41.5468 69.7944 41.1673C69.9286 40.9297 70.0628 40.6921 70.201 40.4473C70.323 40.2308 70.445 40.0143 70.5707 39.7912C70.8955 39.2782 71.1561 38.8927 71.6347 38.5215C73.24 38.3432 73.24 38.3432 74.1162 38.8908C74.6126 39.6976 74.56 40.1788 74.4706 41.1212C74.1939 41.8223 73.8227 42.4542 73.4367 43.1004C73.3313 43.2829 73.2259 43.4654 73.1172 43.6534C72.8958 44.0356 72.6727 44.4168 72.4481 44.797C72.1108 45.3692 71.7794 45.9444 71.4492 46.5207C71.2405 46.8824 71.0315 47.244 70.8223 47.6054C70.7249 47.7744 70.6274 47.9435 70.527 48.1176C69.4374 49.9729 69.4374 49.9729 68.3944 50.3066C67.4152 50.3461 66.6904 50.0508 65.8151 49.6585C62.9017 48.4025 59.6764 48.1487 56.6694 49.3299C55.6151 49.8286 54.6331 50.3834 53.6738 51.0469C53.5233 51.1508 53.3728 51.2547 53.2177 51.3617C51.0799 53.0103 49.7619 55.7774 49.1835 58.3731C48.9631 61.9874 49.4467 64.7899 51.5468 67.8262C51.6507 67.9767 51.7546 68.1272 51.8616 68.2823C53.5101 70.4201 56.2773 71.7381 58.873 72.3165C62.4873 72.5369 65.2897 72.0533 68.3261 69.9532C68.4766 69.8493 68.6271 69.7454 68.7822 69.6384C70.92 67.9899 72.238 65.2228 72.8164 62.627C72.9971 59.6647 72.7139 57.3344 71.4427 54.6214C71.1026 53.7264 71.0379 53.3567 71.3984 52.4649C72.8936 51.0284 74.8906 50.0923 76.6862 49.0825C76.9925 48.9089 77.2987 48.7352 77.6048 48.5613C80.5349 46.9002 80.5349 46.9002 82.0331 47.0294C82.6092 47.3839 82.6092 47.3839 82.9785 47.9747C83.1224 48.6375 83.183 49.2148 82.9785 49.8653C81.7456 50.9425 80.327 51.7061 78.9166 52.524C78.6553 52.6775 78.3941 52.8311 78.125 52.9893C77.8759 53.1343 77.6269 53.2793 77.3703 53.4287C77.0288 53.6276 77.0288 53.6276 76.6805 53.8305C76.1249 54.1192 76.1249 54.1192 75.6523 54.1192C75.7178 54.2849 75.7833 54.4507 75.8508 54.6214C75.9364 54.8456 76.022 55.0698 76.1102 55.3008C76.1952 55.5202 76.2802 55.7395 76.3677 55.9655C76.6387 56.8534 76.7274 57.6875 76.8339 58.6094C77.2024 58.602 77.2024 58.602 77.5782 58.5944C78.4908 58.5773 79.4033 58.5665 80.316 58.5575C80.7107 58.5528 81.1054 58.5463 81.5001 58.5381C82.068 58.5266 82.6357 58.5213 83.2037 58.5171C83.3798 58.5122 83.5558 58.5074 83.7372 58.5023C84.572 58.502 85.0176 58.5418 85.6886 59.0583C86.0782 59.5924 86.1849 59.8463 86.1837 60.5001C86.1888 60.656 86.194 60.812 86.1994 60.9727C85.9616 61.7288 85.5271 61.9679 84.8691 62.3907C84.2108 62.4717 83.6507 62.5018 82.996 62.483C82.8193 62.4817 82.6427 62.4803 82.4606 62.4789C81.8995 62.4737 81.3387 62.4618 80.7777 62.4498C80.3959 62.445 80.0142 62.4407 79.6325 62.4368C78.6995 62.4265 77.7668 62.4102 76.8339 62.3907C76.8043 62.5655 76.7746 62.7403 76.744 62.9204C76.6834 63.2673 76.6834 63.2673 76.6216 63.6213C76.5822 63.8497 76.5428 64.0781 76.5022 64.3134C76.3133 65.2206 76.007 66.0263 75.6523 66.8809C75.8803 66.9632 75.8803 66.9632 76.1129 67.0471C77.0845 67.4601 77.9941 67.9643 78.9166 68.4761C79.0983 68.5748 79.28 68.6735 79.4672 68.7752C82.8174 70.6299 82.8174 70.6299 83.1295 71.6083C83.1711 72.4028 83.0283 72.9457 82.6092 73.6163C81.7982 74.1153 81.3273 74.0647 80.3789 73.9708C79.634 73.6686 78.9566 73.2734 78.2667 72.863C78.0871 72.7602 77.9075 72.6573 77.7225 72.5514C76.6733 71.9467 75.6503 71.3106 74.6418 70.6402C74.2065 70.3708 74.2065 70.3708 73.5253 70.4258C73.1072 70.8192 73.1072 70.8192 72.713 71.3268C72.1649 72 71.6393 72.5283 70.9257 73.0255C71.0849 73.8934 71.4616 74.5418 71.9089 75.2973C72.0574 75.5534 72.2059 75.8094 72.3589 76.0733C72.6728 76.6098 72.9885 77.1452 73.3061 77.6795C73.4543 77.9365 73.6025 78.1935 73.7552 78.4582C73.8923 78.6911 74.0294 78.9239 74.1707 79.1638C74.5257 80.0102 74.5492 80.6236 74.4706 81.5333C74.1162 82.1093 74.1162 82.1093 73.5253 82.4786C72.8625 82.6226 72.2852 82.6831 71.6347 82.4786C70.5575 81.2457 69.7939 79.8271 68.976 78.4167C68.8225 78.1555 68.6689 77.8942 68.5107 77.6251C68.3657 77.376 68.2207 77.127 68.0713 76.8704C67.8724 76.529 67.8724 76.529 67.6695 76.1806C67.3808 75.6251 67.3808 75.6251 67.3808 75.1524C67.2151 75.2179 67.0494 75.2834 66.8786 75.3509C66.6544 75.4365 66.4302 75.5221 66.1992 75.6103C65.9798 75.6953 65.7605 75.7803 65.5345 75.8679C64.6466 76.1388 63.8125 76.2275 62.8906 76.334C62.898 76.6899 62.898 76.6899 62.9056 77.0529C62.9227 77.9359 62.9336 78.819 62.9425 79.7021C62.9472 80.0838 62.9537 80.4655 62.9619 80.8471C62.9734 81.3968 62.9787 81.9463 62.9829 82.4961C62.9878 82.6658 62.9926 82.8354 62.9977 83.0102C62.9981 83.8726 62.9124 84.3352 62.4417 85.0678C61.9453 85.5508 61.9453 85.5508 61.4726 85.6995C61.3166 85.6943 61.1607 85.6891 60.9999 85.6838C60.844 85.6841 60.688 85.6844 60.5273 85.6847C59.8192 85.4842 59.5585 85.189 59.1093 84.6055C59.0268 83.939 58.9986 83.3678 59.017 82.7038C59.0183 82.5216 59.0197 82.3393 59.0211 82.1515C59.0263 81.5711 59.0382 80.991 59.0502 80.4107C59.055 80.0165 59.0593 79.6223 59.0632 79.2281C59.0736 78.2633 59.0899 77.2987 59.1093 76.334C58.9345 76.3044 58.7597 76.2747 58.5796 76.2442C58.2327 76.1835 58.2327 76.1835 57.8788 76.1217C57.6503 76.0823 57.4219 76.0429 57.1866 76.0023C56.2794 75.8135 55.4737 75.5072 54.6191 75.1524C54.5643 75.3044 54.5094 75.4564 54.4529 75.6131C54.0399 76.5846 53.5358 77.4942 53.0239 78.4167C52.9252 78.5984 52.8265 78.7801 52.7248 78.9674C50.8702 82.3175 50.8702 82.3175 49.8917 82.6296C49.0972 82.6712 48.5543 82.5284 47.8837 82.1093C47.3847 81.2984 47.4353 80.8274 47.5292 79.879C47.8314 79.1341 48.2266 78.4567 48.637 77.7668C48.7398 77.5872 48.8427 77.4076 48.9486 77.2226C49.5533 76.1735 50.1894 75.1504 50.8598 74.142C51.1292 73.7066 51.1292 73.7066 51.0742 73.0255C50.6808 72.6073 50.6808 72.6073 50.1732 72.2131C49.5 71.665 48.9717 71.1394 48.4746 70.4258C47.6066 70.585 46.9582 70.9617 46.2027 71.409C45.9466 71.5575 45.6906 71.706 45.4268 71.859C44.8902 72.1729 44.3548 72.4886 43.8205 72.8062C43.435 73.0285 43.435 73.0285 43.0418 73.2553C42.8089 73.3924 42.5761 73.5295 42.3362 73.6708C41.4898 74.0258 40.8765 74.0493 39.9667 73.9708C39.3907 73.6163 39.3907 73.6163 39.0214 73.0255C38.8775 72.3626 38.8169 71.7854 39.0214 71.1348C40.2543 70.0576 41.6729 69.294 43.0833 68.4761C43.4752 68.2458 43.4752 68.2458 43.8749 68.0109C44.124 67.8659 44.373 67.7208 44.6296 67.5714C44.8572 67.4388 45.0849 67.3063 45.3194 67.1696C45.8749 66.8809 45.8749 66.8809 46.3476 66.8809C46.2821 66.7152 46.2166 66.5495 46.1491 66.3787C46.0635 66.1545 45.9779 65.9303 45.8897 65.6993C45.8047 65.4799 45.7197 65.2606 45.6322 65.0346C45.3612 64.1467 45.2725 63.3126 45.166 62.3907C44.8101 62.3981 44.8101 62.3981 44.4471 62.4057C43.5641 62.4228 42.681 62.4337 41.7979 62.4426C41.4162 62.4474 41.0346 62.4538 40.6529 62.462C40.1032 62.4735 39.5537 62.4788 39.0039 62.483C38.8342 62.4879 38.6646 62.4928 38.4898 62.4978C37.6274 62.4982 37.1648 62.4126 36.4322 61.9418C35.9492 61.4454 35.9492 61.4454 35.8005 60.9727C35.8057 60.8167 35.8109 60.6608 35.8162 60.5001C35.8159 60.3441 35.8156 60.1881 35.8153 60.0274C36.0158 59.3193 36.311 59.0586 36.8945 58.6094C37.561 58.5269 38.1322 58.4987 38.7962 58.5171C39.0696 58.5191 39.0696 58.5191 39.3485 58.5212C39.9289 58.5265 40.509 58.5383 41.0893 58.5504C41.4835 58.5551 41.8777 58.5594 42.2719 58.5633C43.2367 58.5737 44.2013 58.59 45.166 58.6094C45.1956 58.4346 45.2253 58.2598 45.2559 58.0797C45.2963 57.8484 45.3367 57.6172 45.3783 57.3789C45.4374 57.0362 45.4374 57.0362 45.4977 56.6867C45.6866 55.7796 45.9928 54.9739 46.3476 54.1192C46.179 54.0555 46.0104 53.9918 45.8368 53.9262C44.6442 53.429 43.5416 52.761 42.4186 52.1252C42.0467 51.9175 42.0467 51.9175 41.6672 51.7056C41.4296 51.5714 41.192 51.4372 40.9471 51.299C40.7306 51.177 40.5142 51.055 40.2911 50.9293C39.7781 50.6045 39.3926 50.3439 39.0214 49.8653C38.8431 48.26 38.8431 48.26 39.3907 47.3839C40.2016 46.8848 40.6726 46.9355 41.621 47.0294C42.3659 47.3315 43.0433 47.7267 43.7332 48.1371C44.0026 48.2914 44.0026 48.2914 44.2774 48.4487C45.3266 49.0535 46.3496 49.6895 47.3581 50.3599C47.7934 50.6293 47.7934 50.6293 48.4746 50.5743C48.8927 50.1809 48.8927 50.1809 49.2869 49.6733C49.835 49.0001 50.3606 48.4718 51.0742 47.9747C50.915 47.1067 50.5383 46.4584 50.091 45.7028C49.9425 45.4467 49.794 45.1907 49.641 44.9269C49.3271 44.3903 49.0114 43.8549 48.6938 43.3206C48.5456 43.0636 48.3974 42.8066 48.2447 42.5419C48.1076 42.3091 47.9705 42.0762 47.8292 41.8363C47.4742 40.9899 47.4507 40.3766 47.5292 39.4669C47.8837 38.8908 47.8837 38.8908 48.4746 38.5215C49.1374 38.3776 49.7147 38.317 50.3652 38.5215C51.4424 39.7544 52.206 41.173 53.0239 42.5834C53.2542 42.9753 53.2542 42.9753 53.4891 43.375C53.6342 43.6241 53.7792 43.8731 53.9286 44.1297C54.1275 44.4712 54.1275 44.4712 54.3304 44.8195C54.6191 45.3751 54.6191 45.3751 54.6191 45.8477C54.7848 45.7822 54.9505 45.7167 55.1213 45.6492C55.3455 45.5636 55.5697 45.478 55.8007 45.3898C56.0201 45.3048 56.2394 45.2198 56.4654 45.1323C57.3533 44.8613 58.1874 44.7726 59.1093 44.6661C59.1019 44.2977 59.1019 44.2977 59.0943 43.9218C59.0772 43.0092 59.0664 42.0967 59.0574 41.184C59.0526 40.7893 59.0462 40.3946 59.038 39.9999C59.0265 39.432 59.0212 38.8643 59.017 38.2963C59.0121 38.1202 59.0072 37.9442 59.0022 37.7628C59.0019 36.9279 59.0419 36.4822 59.5582 35.8109C60.0955 35.4195 60.3432 35.3209 60.9999 35.3311Z"/>
</mask>
<path d="M60.9999 35.3311C61.1559 35.3287 61.3119 35.3262 61.4726 35.3237C62.1853 35.5131 62.4413 35.8104 62.8906 36.3946C62.9731 37.0611 63.0013 37.6323 62.9829 38.2963C62.9816 38.4786 62.9802 38.6608 62.9788 38.8486C62.9736 39.429 62.9617 40.0091 62.9497 40.5894C62.9449 40.9836 62.9406 41.3778 62.9367 41.772C62.9263 42.7368 62.91 43.7014 62.8906 44.6661C63.0654 44.6957 63.2402 44.7254 63.4203 44.756C63.6516 44.7964 63.8829 44.8368 64.1211 44.8784C64.4638 44.9375 64.4638 44.9375 64.8133 44.9978C65.7204 45.1867 66.5262 45.493 67.3808 45.8477C67.4445 45.6791 67.5082 45.5106 67.5738 45.3369C68.071 44.1443 68.739 43.0418 69.3748 41.9188C69.5825 41.5468 69.5825 41.5468 69.7944 41.1673C69.9286 40.9297 70.0628 40.6921 70.201 40.4473C70.323 40.2308 70.445 40.0143 70.5707 39.7912C70.8955 39.2782 71.1561 38.8927 71.6347 38.5215C73.24 38.3432 73.24 38.3432 74.1162 38.8908C74.6126 39.6976 74.56 40.1788 74.4706 41.1212C74.1939 41.8223 73.8227 42.4542 73.4367 43.1004C73.3313 43.2829 73.2259 43.4654 73.1172 43.6534C72.8958 44.0356 72.6727 44.4168 72.4481 44.797C72.1108 45.3692 71.7794 45.9444 71.4492 46.5207C71.2405 46.8824 71.0315 47.244 70.8223 47.6054C70.7249 47.7744 70.6274 47.9435 70.527 48.1176C69.4374 49.9729 69.4374 49.9729 68.3944 50.3066C67.4152 50.3461 66.6904 50.0508 65.8151 49.6585C62.9017 48.4025 59.6764 48.1487 56.6694 49.3299C55.6151 49.8286 54.6331 50.3834 53.6738 51.0469C53.5233 51.1508 53.3728 51.2547 53.2177 51.3617C51.0799 53.0103 49.7619 55.7774 49.1835 58.3731C48.9631 61.9874 49.4467 64.7899 51.5468 67.8262C51.6507 67.9767 51.7546 68.1272 51.8616 68.2823C53.5101 70.4201 56.2773 71.7381 58.873 72.3165C62.4873 72.5369 65.2897 72.0533 68.3261 69.9532C68.4766 69.8493 68.6271 69.7454 68.7822 69.6384C70.92 67.9899 72.238 65.2228 72.8164 62.627C72.9971 59.6647 72.7139 57.3344 71.4427 54.6214C71.1026 53.7264 71.0379 53.3567 71.3984 52.4649C72.8936 51.0284 74.8906 50.0923 76.6862 49.0825C76.9925 48.9089 77.2987 48.7352 77.6048 48.5613C80.5349 46.9002 80.5349 46.9002 82.0331 47.0294C82.6092 47.3839 82.6092 47.3839 82.9785 47.9747C83.1224 48.6375 83.183 49.2148 82.9785 49.8653C81.7456 50.9425 80.327 51.7061 78.9166 52.524C78.6553 52.6775 78.3941 52.8311 78.125 52.9893C77.8759 53.1343 77.6269 53.2793 77.3703 53.4287C77.0288 53.6276 77.0288 53.6276 76.6805 53.8305C76.1249 54.1192 76.1249 54.1192 75.6523 54.1192C75.7178 54.2849 75.7833 54.4507 75.8508 54.6214C75.9364 54.8456 76.022 55.0698 76.1102 55.3008C76.1952 55.5202 76.2802 55.7395 76.3677 55.9655C76.6387 56.8534 76.7274 57.6875 76.8339 58.6094C77.2024 58.602 77.2024 58.602 77.5782 58.5944C78.4908 58.5773 79.4033 58.5665 80.316 58.5575C80.7107 58.5528 81.1054 58.5463 81.5001 58.5381C82.068 58.5266 82.6357 58.5213 83.2037 58.5171C83.3798 58.5122 83.5558 58.5074 83.7372 58.5023C84.572 58.502 85.0176 58.5418 85.6886 59.0583C86.0782 59.5924 86.1849 59.8463 86.1837 60.5001C86.1888 60.656 86.194 60.812 86.1994 60.9727C85.9616 61.7288 85.5271 61.9679 84.8691 62.3907C84.2108 62.4717 83.6507 62.5018 82.996 62.483C82.8193 62.4817 82.6427 62.4803 82.4606 62.4789C81.8995 62.4737 81.3387 62.4618 80.7777 62.4498C80.3959 62.445 80.0142 62.4407 79.6325 62.4368C78.6995 62.4265 77.7668 62.4102 76.8339 62.3907C76.8043 62.5655 76.7746 62.7403 76.744 62.9204C76.6834 63.2673 76.6834 63.2673 76.6216 63.6213C76.5822 63.8497 76.5428 64.0781 76.5022 64.3134C76.3133 65.2206 76.007 66.0263 75.6523 66.8809C75.8803 66.9632 75.8803 66.9632 76.1129 67.0471C77.0845 67.4601 77.9941 67.9643 78.9166 68.4761C79.0983 68.5748 79.28 68.6735 79.4672 68.7752C82.8174 70.6299 82.8174 70.6299 83.1295 71.6083C83.1711 72.4028 83.0283 72.9457 82.6092 73.6163C81.7982 74.1153 81.3273 74.0647 80.3789 73.9708C79.634 73.6686 78.9566 73.2734 78.2667 72.863C78.0871 72.7602 77.9075 72.6573 77.7225 72.5514C76.6733 71.9467 75.6503 71.3106 74.6418 70.6402C74.2065 70.3708 74.2065 70.3708 73.5253 70.4258C73.1072 70.8192 73.1072 70.8192 72.713 71.3268C72.1649 72 71.6393 72.5283 70.9257 73.0255C71.0849 73.8934 71.4616 74.5418 71.9089 75.2973C72.0574 75.5534 72.2059 75.8094 72.3589 76.0733C72.6728 76.6098 72.9885 77.1452 73.3061 77.6795C73.4543 77.9365 73.6025 78.1935 73.7552 78.4582C73.8923 78.6911 74.0294 78.9239 74.1707 79.1638C74.5257 80.0102 74.5492 80.6236 74.4706 81.5333C74.1162 82.1093 74.1162 82.1093 73.5253 82.4786C72.8625 82.6226 72.2852 82.6831 71.6347 82.4786C70.5575 81.2457 69.7939 79.8271 68.976 78.4167C68.8225 78.1555 68.6689 77.8942 68.5107 77.6251C68.3657 77.376 68.2207 77.127 68.0713 76.8704C67.8724 76.529 67.8724 76.529 67.6695 76.1806C67.3808 75.6251 67.3808 75.6251 67.3808 75.1524C67.2151 75.2179 67.0494 75.2834 66.8786 75.3509C66.6544 75.4365 66.4302 75.5221 66.1992 75.6103C65.9798 75.6953 65.7605 75.7803 65.5345 75.8679C64.6466 76.1388 63.8125 76.2275 62.8906 76.334C62.898 76.6899 62.898 76.6899 62.9056 77.0529C62.9227 77.9359 62.9336 78.819 62.9425 79.7021C62.9472 80.0838 62.9537 80.4655 62.9619 80.8471C62.9734 81.3968 62.9787 81.9463 62.9829 82.4961C62.9878 82.6658 62.9926 82.8354 62.9977 83.0102C62.9981 83.8726 62.9124 84.3352 62.4417 85.0678C61.9453 85.5508 61.9453 85.5508 61.4726 85.6995C61.3166 85.6943 61.1607 85.6891 60.9999 85.6838C60.844 85.6841 60.688 85.6844 60.5273 85.6847C59.8192 85.4842 59.5585 85.189 59.1093 84.6055C59.0268 83.939 58.9986 83.3678 59.017 82.7038C59.0183 82.5216 59.0197 82.3393 59.0211 82.1515C59.0263 81.5711 59.0382 80.991 59.0502 80.4107C59.055 80.0165 59.0593 79.6223 59.0632 79.2281C59.0736 78.2633 59.0899 77.2987 59.1093 76.334C58.9345 76.3044 58.7597 76.2747 58.5796 76.2442C58.2327 76.1835 58.2327 76.1835 57.8788 76.1217C57.6503 76.0823 57.4219 76.0429 57.1866 76.0023C56.2794 75.8135 55.4737 75.5072 54.6191 75.1524C54.5643 75.3044 54.5094 75.4564 54.4529 75.6131C54.0399 76.5846 53.5358 77.4942 53.0239 78.4167C52.9252 78.5984 52.8265 78.7801 52.7248 78.9674C50.8702 82.3175 50.8702 82.3175 49.8917 82.6296C49.0972 82.6712 48.5543 82.5284 47.8837 82.1093C47.3847 81.2984 47.4353 80.8274 47.5292 79.879C47.8314 79.1341 48.2266 78.4567 48.637 77.7668C48.7398 77.5872 48.8427 77.4076 48.9486 77.2226C49.5533 76.1735 50.1894 75.1504 50.8598 74.142C51.1292 73.7066 51.1292 73.7066 51.0742 73.0255C50.6808 72.6073 50.6808 72.6073 50.1732 72.2131C49.5 71.665 48.9717 71.1394 48.4746 70.4258C47.6066 70.585 46.9582 70.9617 46.2027 71.409C45.9466 71.5575 45.6906 71.706 45.4268 71.859C44.8902 72.1729 44.3548 72.4886 43.8205 72.8062C43.435 73.0285 43.435 73.0285 43.0418 73.2553C42.8089 73.3924 42.5761 73.5295 42.3362 73.6708C41.4898 74.0258 40.8765 74.0493 39.9667 73.9708C39.3907 73.6163 39.3907 73.6163 39.0214 73.0255C38.8775 72.3626 38.8169 71.7854 39.0214 71.1348C40.2543 70.0576 41.6729 69.294 43.0833 68.4761C43.4752 68.2458 43.4752 68.2458 43.8749 68.0109C44.124 67.8659 44.373 67.7208 44.6296 67.5714C44.8572 67.4388 45.0849 67.3063 45.3194 67.1696C45.8749 66.8809 45.8749 66.8809 46.3476 66.8809C46.2821 66.7152 46.2166 66.5495 46.1491 66.3787C46.0635 66.1545 45.9779 65.9303 45.8897 65.6993C45.8047 65.4799 45.7197 65.2606 45.6322 65.0346C45.3612 64.1467 45.2725 63.3126 45.166 62.3907C44.8101 62.3981 44.8101 62.3981 44.4471 62.4057C43.5641 62.4228 42.681 62.4337 41.7979 62.4426C41.4162 62.4474 41.0346 62.4538 40.6529 62.462C40.1032 62.4735 39.5537 62.4788 39.0039 62.483C38.8342 62.4879 38.6646 62.4928 38.4898 62.4978C37.6274 62.4982 37.1648 62.4126 36.4322 61.9418C35.9492 61.4454 35.9492 61.4454 35.8005 60.9727C35.8057 60.8167 35.8109 60.6608 35.8162 60.5001C35.8159 60.3441 35.8156 60.1881 35.8153 60.0274C36.0158 59.3193 36.311 59.0586 36.8945 58.6094C37.561 58.5269 38.1322 58.4987 38.7962 58.5171C39.0696 58.5191 39.0696 58.5191 39.3485 58.5212C39.9289 58.5265 40.509 58.5383 41.0893 58.5504C41.4835 58.5551 41.8777 58.5594 42.2719 58.5633C43.2367 58.5737 44.2013 58.59 45.166 58.6094C45.1956 58.4346 45.2253 58.2598 45.2559 58.0797C45.2963 57.8484 45.3367 57.6172 45.3783 57.3789C45.4374 57.0362 45.4374 57.0362 45.4977 56.6867C45.6866 55.7796 45.9928 54.9739 46.3476 54.1192C46.179 54.0555 46.0104 53.9918 45.8368 53.9262C44.6442 53.429 43.5416 52.761 42.4186 52.1252C42.0467 51.9175 42.0467 51.9175 41.6672 51.7056C41.4296 51.5714 41.192 51.4372 40.9471 51.299C40.7306 51.177 40.5142 51.055 40.2911 50.9293C39.7781 50.6045 39.3926 50.3439 39.0214 49.8653C38.8431 48.26 38.8431 48.26 39.3907 47.3839C40.2016 46.8848 40.6726 46.9355 41.621 47.0294C42.3659 47.3315 43.0433 47.7267 43.7332 48.1371C44.0026 48.2914 44.0026 48.2914 44.2774 48.4487C45.3266 49.0535 46.3496 49.6895 47.3581 50.3599C47.7934 50.6293 47.7934 50.6293 48.4746 50.5743C48.8927 50.1809 48.8927 50.1809 49.2869 49.6733C49.835 49.0001 50.3606 48.4718 51.0742 47.9747C50.915 47.1067 50.5383 46.4584 50.091 45.7028C49.9425 45.4467 49.794 45.1907 49.641 44.9269C49.3271 44.3903 49.0114 43.8549 48.6938 43.3206C48.5456 43.0636 48.3974 42.8066 48.2447 42.5419C48.1076 42.3091 47.9705 42.0762 47.8292 41.8363C47.4742 40.9899 47.4507 40.3766 47.5292 39.4669C47.8837 38.8908 47.8837 38.8908 48.4746 38.5215C49.1374 38.3776 49.7147 38.317 50.3652 38.5215C51.4424 39.7544 52.206 41.173 53.0239 42.5834C53.2542 42.9753 53.2542 42.9753 53.4891 43.375C53.6342 43.6241 53.7792 43.8731 53.9286 44.1297C54.1275 44.4712 54.1275 44.4712 54.3304 44.8195C54.6191 45.3751 54.6191 45.3751 54.6191 45.8477C54.7848 45.7822 54.9505 45.7167 55.1213 45.6492C55.3455 45.5636 55.5697 45.478 55.8007 45.3898C56.0201 45.3048 56.2394 45.2198 56.4654 45.1323C57.3533 44.8613 58.1874 44.7726 59.1093 44.6661C59.1019 44.2977 59.1019 44.2977 59.0943 43.9218C59.0772 43.0092 59.0664 42.0967 59.0574 41.184C59.0526 40.7893 59.0462 40.3946 59.038 39.9999C59.0265 39.432 59.0212 38.8643 59.017 38.2963C59.0121 38.1202 59.0072 37.9442 59.0022 37.7628C59.0019 36.9279 59.0419 36.4822 59.5582 35.8109C60.0955 35.4195 60.3432 35.3209 60.9999 35.3311Z" fill="#FFAC09" stroke="white" stroke-width="2" mask="url(#path-2-inside-1_93_3693)"/>
<path d="M60.941 28.2856C61.1075 28.2862 61.2741 28.2868 61.4457 28.2874C63.9572 28.3011 66.3668 28.3826 68.7989 29.0684C68.9876 29.1205 69.1763 29.1726 69.3707 29.2263C73.5393 30.4135 77.4769 32.2254 80.8516 34.9766C81.0409 35.1272 81.0409 35.1272 81.234 35.2808C86.4638 39.4587 90.0908 44.9418 92.0477 51.3424C92.1041 51.5264 92.1605 51.7105 92.2187 51.9002C93.0304 54.7183 93.2311 57.5189 93.2145 60.441C93.214 60.6075 93.2134 60.7741 93.2128 60.9457C93.1991 63.4572 93.1176 65.8668 92.4317 68.2989C92.3796 68.4876 92.3275 68.6763 92.2738 68.8707C91.0866 73.0393 89.2748 76.9769 86.5235 80.3516C86.3729 80.5409 86.3729 80.5409 86.2193 80.734C82.0414 85.9638 76.5584 89.5908 70.1578 91.5477C69.9737 91.6041 69.7896 91.6605 69.6 91.7187C66.7819 92.5304 63.9813 92.7311 61.0591 92.7145C60.8926 92.714 60.726 92.7134 60.5544 92.7128C58.043 92.6991 55.6333 92.6176 53.2012 91.9317C53.0126 91.8796 52.8239 91.8275 52.6295 91.7738C48.4608 90.5866 44.5233 88.7748 41.1485 86.0235C41.0223 85.9231 40.8961 85.8227 40.7661 85.7193C34.5108 80.7222 30.0244 73.3149 28.9185 65.3088C28.8341 64.1785 28.7913 63.0512 28.7708 61.918C28.7646 61.7002 28.7584 61.4824 28.752 61.258C28.7483 59.7145 28.7483 59.7145 29.2859 58.9418C30.0504 58.4521 30.5717 58.4827 31.4591 58.6094C32.2172 59.168 32.4623 59.5978 32.6407 60.5001C32.6762 60.8394 32.7041 61.1796 32.7256 61.5202C33.2147 68.2506 35.3529 73.9813 39.7305 79.17C39.8436 79.3147 39.9566 79.4594 40.073 79.6085C44.3964 85.0219 51.6599 87.9054 58.3497 88.7339C65.8659 89.396 73.3603 87.0284 79.1502 82.2081C79.4075 81.991 79.4075 81.991 79.67 81.7696C79.8147 81.6566 79.9594 81.5436 80.1085 81.4271C84.3552 78.0356 86.9501 72.7052 88.4141 67.5899C88.4949 67.323 88.5756 67.0562 88.6588 66.7812C90.4584 59.6498 88.8384 51.8071 85.1366 45.5629C84.3558 44.3241 83.4376 43.1934 82.5059 42.0665C82.2948 41.801 82.2948 41.801 82.0794 41.5301C77.5663 36.0561 70.5211 33.1103 63.6421 32.2662C56.104 31.5962 48.6403 33.9758 42.8028 38.7579C42.5012 39.001 42.5012 39.001 42.1935 39.249C37.7428 43.0279 35.0203 48.3563 33.406 53.8801C33.0924 54.6428 32.8831 54.9104 32.168 55.3009C31.2293 55.4606 30.863 55.3729 30.0559 54.8577C29.4542 53.9461 29.4543 53.5419 29.6266 52.488C30.7639 47.8149 33.0354 43.3348 36.1856 39.7032C36.293 39.5767 36.4005 39.4502 36.5111 39.3199C40.5498 34.5899 45.9044 31.2624 51.8424 29.4525C52.1184 29.3679 52.1184 29.3679 52.4 29.2816C55.218 28.4695 58.0189 28.2691 60.941 28.2856Z" fill="white"/>
<path d="M101.353 15.9077C102.544 16.1597 103.162 16.8836 104.012 17.7245C104.229 17.9307 104.447 18.137 104.672 18.3495C106.45 20.0537 107.98 21.8938 109.447 23.869C109.6 24.0729 109.6 24.0729 109.756 24.2809C111.294 26.3451 112.671 28.4819 113.937 30.7225C114.032 30.8897 114.128 31.0568 114.225 31.229C117.304 36.6965 119.371 42.6452 120.628 48.7869C120.663 48.9568 120.698 49.1267 120.734 49.3017C121.437 52.9994 121.588 56.6562 121.574 60.4113C121.573 60.6519 121.573 60.8925 121.572 61.1405C121.56 64.5966 121.486 67.9745 120.791 71.371C120.722 71.7243 120.722 71.7243 120.652 72.0847C118.734 81.7951 114.629 90.5615 108.502 98.3124C108.31 98.5576 108.118 98.8028 107.92 99.0555C104.925 102.736 101.483 106.171 97.6308 108.947C97.3736 109.14 97.1166 109.333 96.86 109.527C89.4847 115.022 80.9015 118.629 71.871 120.291C71.6818 120.329 71.4926 120.367 71.2976 120.406C64.5421 121.727 54.2479 122.385 47.7656 119.582C47.181 118.705 47.2019 118.256 47.2929 117.219C47.5588 116.657 47.5588 116.657 48.0019 116.273C48.9854 116.043 49.7724 116.039 50.763 116.212C51.0184 116.255 51.2739 116.297 51.537 116.341C51.944 116.41 51.944 116.41 52.3592 116.48C66.8104 118.763 81.7716 115.296 93.7463 106.866C96.1312 105.122 98.3471 103.204 100.467 101.148C100.594 101.027 100.722 100.905 100.853 100.78C102.813 98.9129 104.529 96.942 106.139 94.7675C106.24 94.6319 106.341 94.4963 106.446 94.3567C111.692 87.3172 115.1 79.2682 116.773 70.662C116.812 70.4736 116.851 70.2851 116.892 70.091C118.245 63.3552 117.987 55.6114 116.537 48.9198C116.488 48.6889 116.438 48.458 116.387 48.2202C115.332 43.4587 113.675 38.7863 111.351 34.4936C111.085 33.9998 110.825 33.5023 110.566 33.0046C108.06 28.271 104.777 23.9955 100.9 20.3016C100.301 19.7247 99.8022 19.2256 99.5214 18.4335C99.5563 17.5969 99.6701 17.1389 100.157 16.4542C100.703 16.0702 100.703 16.0702 101.353 15.9077Z" fill="white"/>
<path d="M23.1875 26.705C24.9412 27.7839 26.2543 29.6786 27.5574 31.2438C27.8985 31.6494 28.2459 32.0485 28.5963 32.4461C30.183 34.2605 31.1536 35.6885 31.0694 38.1762C30.8892 39.4378 30.3661 40.3396 29.4502 41.2097C28.0599 42.1134 26.9707 42.3069 25.3144 42.0663C23.6456 41.4435 22.1612 40.4593 20.6516 39.5277C19.933 39.1294 19.2611 38.9317 18.4609 38.7578C17.7613 39.5528 17.5338 40.3392 17.2793 41.3574C17.4459 41.4202 17.6125 41.483 17.7842 41.5477C19.0525 42.0769 20.2315 42.785 21.4298 43.4548C21.6983 43.6025 21.9669 43.7503 22.2436 43.9025C22.5017 44.0466 22.7599 44.1907 23.0259 44.3392C23.261 44.4698 23.496 44.6005 23.7382 44.7351C24.4865 45.2137 25.1983 45.6738 25.4483 46.5566C25.4465 47.4686 25.4226 47.8473 24.8122 48.5654C24.0089 48.9845 23.6125 49.0028 22.7148 48.9199C21.9877 48.599 21.9877 48.599 21.2202 48.1509C21.0815 48.0709 20.9428 47.9909 20.7999 47.9084C20.3583 47.6527 19.9192 47.3927 19.4801 47.1326C19.1899 46.9642 18.8996 46.796 18.6091 46.6281C13.6905 43.773 13.6905 43.773 13.0254 42.7753C12.9015 40.563 13.7709 38.1009 15.1523 36.3945C16.2419 35.253 17.3411 34.7772 18.9336 34.7402C20.7473 34.9286 22.1897 35.7509 23.7488 36.6456C24.2082 36.9048 24.668 37.1636 25.128 37.4219C25.3285 37.5365 25.5291 37.6511 25.7357 37.7691C26.2757 38.0761 26.2757 38.0761 26.9687 38.2851C26.868 37.0088 26.6281 36.3375 25.7871 35.3753C25.4992 35.0413 25.4992 35.0413 25.2055 34.7005C24.4681 33.878 23.728 33.0579 22.9862 32.2393C22.4886 31.6792 22.0047 31.1128 21.5332 30.5306C21.4016 30.3682 21.27 30.2058 21.1344 30.0385C20.7789 29.4683 20.6613 29.0249 20.5879 28.3593C20.9814 26.9491 21.7362 26.4586 23.1875 26.705Z" fill="white"/>
<path d="M24.1327 72.08C24.8122 72.4345 24.8122 72.4345 25.3144 73.0253C25.6708 74.8398 24.7666 76.198 23.8964 77.7519C24.1556 77.775 24.4149 77.7982 24.682 77.822C25.0257 77.8575 25.3695 77.8932 25.7132 77.9291C25.9688 77.9511 25.9688 77.9511 26.2297 77.9734C27.3566 78.0969 28.056 78.306 28.8593 79.1699C29.0162 79.6425 29.0162 79.6425 29.007 80.1152C29.0116 80.3491 29.0116 80.3491 29.0162 80.5878C28.7718 81.3241 28.3115 81.5805 27.6776 82.0058C27.0011 82.1131 27.0011 82.1131 26.2698 82.0981C26.0071 82.0951 25.7443 82.092 25.4736 82.0889C25.2017 82.081 24.9298 82.073 24.6497 82.0649C24.3732 82.0606 24.0968 82.0563 23.8119 82.0519C23.1309 82.0408 22.4503 82.0253 21.7694 82.0058C21.6138 82.4183 21.4596 82.8314 21.306 83.2447C21.22 83.4746 21.134 83.7046 21.0453 83.9415C20.7197 84.9188 20.6582 85.467 20.8241 86.496C21.2359 87.2554 21.7122 87.9417 22.2421 88.623C22.7499 88.3584 23.2569 88.0925 23.7635 87.8254C23.9208 87.7427 24.0782 87.66 24.2403 87.5747C25.1298 87.1014 26.0007 86.6091 26.8588 86.0806C27.0349 85.9729 27.211 85.8651 27.3924 85.7542C27.7336 85.5438 28.0729 85.3304 28.4101 85.1137C29.462 84.4674 30.1883 84.2179 31.4589 84.3691C32.0349 84.7236 32.0349 84.7236 32.4042 85.3144C32.6303 86.4823 32.6303 86.4823 32.4042 87.205C31.0851 88.6047 29.0781 89.4887 27.4265 90.425C27.0205 90.6571 27.0205 90.6571 26.6063 90.8939C26.0875 91.1904 25.5682 91.4862 25.0484 91.781C24.4945 92.0965 23.9441 92.4169 23.3942 92.7393C22.5723 93.1916 22.2174 93.3199 21.2968 93.1132C19.2169 91.6904 17.3048 89.4932 16.8065 86.9687C16.6422 85.0189 16.8676 83.0653 17.7519 81.2968C17.4926 81.305 17.2334 81.3133 16.9663 81.3217C16.6225 81.3284 16.2788 81.3348 15.9351 81.3411C15.7646 81.3471 15.5942 81.353 15.4186 81.3591C14.3317 81.374 13.6458 81.2698 12.789 80.5878C12.3163 79.8788 12.3163 79.8788 12.3606 79.0517C12.5534 78.2213 12.6125 78.0098 13.2616 77.5156C13.7243 77.4313 13.7243 77.4313 14.2466 77.438C14.4384 77.4392 14.6302 77.4404 14.8278 77.4417C15.0275 77.4466 15.2271 77.4515 15.4329 77.4565C15.628 77.4577 15.8231 77.4589 16.0242 77.4602C17.2473 77.4756 18.4318 77.5787 19.6425 77.7519C19.7013 77.5581 19.7601 77.3644 19.8207 77.1648C20.1632 76.1983 20.5884 75.3005 21.0457 74.3842C21.1278 74.2142 21.2099 74.0442 21.2945 73.8691C21.3754 73.7064 21.4562 73.5437 21.5396 73.3761C21.6121 73.2292 21.6845 73.0823 21.7592 72.9309C22.3719 71.9909 23.1064 71.9568 24.1327 72.08Z" fill="white"/>
<path d="M103.066 28.3593C103.642 28.7138 103.642 28.7138 104.012 29.3046C104.27 30.969 103.74 32.1713 102.83 33.5585C102.157 34.3828 101.446 35.1605 100.703 35.9218C100.788 36.0699 100.874 36.2179 100.962 36.3705C101.071 36.5636 101.181 36.7568 101.294 36.9558C101.404 37.1477 101.513 37.3396 101.626 37.5373C101.885 38.0488 101.885 38.0488 101.885 38.5214C102.039 38.4703 102.194 38.4191 102.354 38.3663C104.538 37.6998 106.808 37.4093 108.975 38.2851C109.432 38.551 109.432 38.551 109.683 38.9941C109.851 40.3114 109.851 40.3114 109.683 40.8847C109.173 41.4807 108.772 41.7913 107.984 41.9043C107.381 41.9231 106.786 41.9125 106.183 41.8891C105.87 41.8827 105.87 41.8827 105.55 41.8762C105.037 41.8651 104.524 41.8481 104.012 41.83C104.165 42.085 104.319 42.34 104.478 42.6027C105.003 43.473 105.092 44.1144 104.957 45.1386C104.706 45.6999 104.706 45.6999 104.248 46.0839C103.465 46.335 103.465 46.335 102.594 46.3203C101.698 45.7177 101.095 45.0569 100.467 44.1933C99.4855 45.6156 99.4855 45.6156 98.6647 47.1326C98.3398 47.7382 98.3398 47.7382 97.9114 48.0779C97.1802 48.266 96.6994 48.1854 95.9765 47.9746C95.4004 47.6201 95.4004 47.6201 95.0312 47.0292C94.8153 45.2695 95.7292 43.7095 96.6855 42.3027C97.202 41.7065 97.7439 41.1649 98.3398 40.6484C98.0532 39.7682 97.7469 38.9047 97.3944 38.0488C97.1312 38.1268 96.868 38.2048 96.5968 38.2851C95.4254 38.5452 94.2763 38.5828 93.0814 38.5953C92.897 38.5994 92.7126 38.6035 92.5226 38.6077C91.4315 38.6068 90.7151 38.5213 89.8319 37.8124C89.3593 37.1035 89.3593 37.1035 89.4036 36.2763C89.5969 35.4436 89.6535 35.2352 90.3046 34.7402C90.7973 34.638 90.7973 34.638 91.3561 34.6192C91.5564 34.6109 91.7567 34.6025 91.963 34.5939C92.1713 34.5885 92.3795 34.5832 92.594 34.5777C92.9105 34.5656 92.9105 34.5656 93.2333 34.5532C93.7538 34.5338 94.2742 34.5174 94.7948 34.5039C94.7214 34.2873 94.648 34.0707 94.5723 33.8475C94.2966 33.008 94.102 32.3183 94.0858 31.4316C94.6849 30.5517 95.0484 30.293 96.0946 30.0875C97.2408 30.3126 97.4564 30.7164 98.1034 31.6679C98.2204 31.9019 98.2204 31.9019 98.3398 32.1406C99.0982 31.8883 99.294 31.6534 99.7226 30.958C99.8609 30.6805 99.9993 30.4029 100.142 30.117C100.941 28.5244 101.23 28.201 103.066 28.3593Z" fill="white"/>
<path d="M86.7598 89.5683C87.321 89.9671 87.321 89.9671 87.7051 90.5136C87.8339 91.3784 87.7932 91.7871 87.3358 92.5372C86.9359 93.0831 86.9359 93.0831 87.0597 93.6715C87.3554 94.7388 87.9044 95.6523 88.4436 96.6138C88.6072 96.9271 88.6072 96.9271 88.7741 97.2467C89.0933 97.8145 89.3878 98.3083 89.832 98.7851C90.6843 98.9391 90.6843 98.9391 91.4863 98.7851C92.8219 99.3292 92.8219 99.3292 93.1406 99.9668C93.2767 101.436 93.2767 101.436 92.7695 102.125C92.0231 102.699 91.4235 102.777 90.4967 102.921C87.3713 103.466 84.9807 104.816 82.937 107.258C81.7229 108.688 81.7229 108.688 80.7334 108.829C79.9062 108.711 79.9062 108.711 79.3302 108.356C78.8234 107.546 78.7796 106.793 78.9609 105.875C79.1084 105.671 79.2558 105.467 79.4077 105.256C79.75 104.495 79.75 104.495 79.4622 103.908C79.098 103.264 78.7071 102.65 78.2963 102.035C78.0232 101.61 77.7508 101.186 77.4793 100.761C77.3559 100.574 77.2326 100.388 77.1056 100.195C76.834 99.7304 76.834 99.7304 76.834 99.2578C76.6744 99.2687 76.5147 99.2797 76.3503 99.291C74.627 99.3607 74.627 99.3607 73.8651 98.859C73.4825 98.2434 73.3244 97.8557 73.2891 97.1308C73.4634 96.4491 73.5677 96.0713 74.1725 95.6907C74.7902 95.4432 75.3466 95.3653 76.0068 95.2845C79.1485 94.787 81.6252 93.3471 83.622 90.8857C84.6253 89.6491 85.1604 89.1525 86.7598 89.5683ZM82.5354 96.8649C82.2219 97.0541 82.2219 97.0541 81.9021 97.2471C81.4678 97.5149 81.0398 97.7931 80.6152 98.0761C80.9526 98.9719 81.3626 99.7945 81.8264 100.631C81.9538 100.862 82.0811 101.093 82.2123 101.33C82.3092 101.504 82.406 101.678 82.5059 101.857C83.3187 101.548 84.0687 101.193 84.8248 100.764C85.0116 100.659 85.1983 100.554 85.3907 100.445C85.5306 100.365 85.6704 100.285 85.8145 100.203C85.6756 99.1634 85.2852 98.4262 84.751 97.5296C84.528 97.1508 84.528 97.1508 84.3005 96.7643C84.114 96.4778 84.114 96.4778 83.9238 96.1855C83.4314 96.1855 82.9394 96.6202 82.5354 96.8649Z" fill="white"/>
<path d="M101.176 75.8614C102.586 76.8218 103.371 77.832 104.012 79.4063C104.012 79.5623 104.012 79.7183 104.012 79.879C104.158 79.8565 104.304 79.8339 104.454 79.8107C106.216 79.58 107.791 79.6104 109.329 80.588C110.03 81.1483 110.128 81.3199 110.245 82.198C110.156 82.9513 110.156 82.9513 109.654 83.6307C108.837 84.2349 108.552 84.2695 107.557 84.1329C107.246 84.0404 106.936 83.9468 106.626 83.8523C105.827 83.6379 105.623 83.6724 104.765 83.9113C103.941 84.4122 103.641 84.6544 103.303 85.5509C103.136 86.7561 103.136 86.7561 103.544 87.8532C103.955 88.3528 104.407 88.7932 104.898 89.214C105.37 89.7798 105.401 90.2619 105.43 90.9864C104.926 92.0653 104.926 92.0653 104.248 92.4044C103.555 92.5489 103.259 92.5939 102.594 92.4044C101.22 91.4466 100.172 90.4185 99.5215 88.8595C99.5215 88.6255 99.5215 88.3915 99.5215 88.1505C99.3613 88.1758 99.201 88.2011 99.0359 88.2271C97.037 88.4846 95.5639 88.2191 93.7906 87.2643C92.2407 85.9962 91.1392 84.647 90.9306 82.6143C90.836 80.1358 91.3001 78.466 92.9339 76.5999C95.2663 74.4598 98.5027 74.3807 101.176 75.8614ZM95.1938 79.9085C94.6376 80.8561 94.5758 81.6418 94.795 82.7149C95.2062 83.5104 95.7705 84.0082 96.5379 84.4726C97.6677 84.7147 98.508 84.5655 99.4772 83.9409C100.242 83.176 100.435 82.7618 100.555 81.681C100.449 80.6533 100.183 80.1927 99.5215 79.4063C98.8634 78.8868 98.4633 78.7128 97.6309 78.6087C96.5488 78.744 95.9841 79.1823 95.1938 79.9085Z" fill="white"/>
<path d="M68.7989 8.03522C69.5511 8.59118 69.9146 8.95308 70.143 9.86676C69.9715 10.6777 69.7366 11.0232 69.2568 11.6835C68.6633 12.5202 68.6633 12.5202 68.533 13.5298C69.0165 15.1479 69.0165 15.1479 69.5227 16.759C70.0648 18.5436 70.3982 20.5503 69.5965 22.3035C68.9216 23.4714 67.9264 24.3083 66.6719 24.8145C64.869 25.0172 63.4018 25.002 61.9454 23.8692C61.3573 22.9871 61.3446 22.5494 61.4727 21.5059C62.0708 20.8199 62.4269 20.5853 63.3338 20.4868C63.8819 20.5416 64.4284 20.6131 64.9733 20.6935C65.2219 20.7277 65.4705 20.7618 65.7266 20.7969C66.0133 20.5654 66.0133 20.5654 65.9676 20.1286C65.8365 18.5956 65.4633 17.2193 64.9798 15.7602C64.7813 15.1251 64.7813 15.1251 64.7813 14.6524C63.8541 14.5688 63.0689 14.5906 62.1817 14.8887C61.4596 15.7208 61.0785 16.6685 60.6603 17.6804C60.4308 18.1996 60.1998 18.7181 59.9671 19.2359C59.8211 19.5826 59.8211 19.5826 59.6722 19.9364C59.2207 20.7999 58.7518 21.3798 57.8244 21.7127C57.0809 21.749 56.6971 21.6128 56.0372 21.2696C55.6615 20.7545 55.6615 20.7545 55.343 20.1175C55.2242 19.8844 55.1053 19.6514 54.9829 19.4113C54.8629 19.1666 54.7429 18.922 54.6192 18.67C54.4992 18.4327 54.3792 18.1954 54.2555 17.9508C54.0167 17.4775 53.7798 17.0033 53.545 16.528C53.3179 16.0695 53.0879 15.6126 52.8547 15.1572C52.7479 14.9483 52.6411 14.7393 52.531 14.5241C52.4359 14.3394 52.3407 14.1547 52.2427 13.9645C51.927 13.2657 51.8453 12.8024 52.0196 12.0528C52.6 11.2675 52.9473 10.924 53.9102 10.7234C54.8514 10.9195 55.2741 11.2824 55.8008 12.0528C57.2188 14.5822 57.2188 14.5822 57.2188 15.3614C57.3748 15.3614 57.5308 15.3614 57.6915 15.3614C57.7402 15.181 57.789 15.0007 57.8392 14.8149C58.3757 13.3759 58.9879 11.74 60.2911 10.8712C60.7755 10.8333 60.7755 10.8333 61.3278 10.8564C63.6628 10.975 63.6628 10.975 65.7331 10.1031C66.1842 9.51164 66.5495 8.92146 66.9083 8.27154C67.5909 7.93021 68.0418 7.94615 68.7989 8.03522Z" fill="white"/>
<path d="M39.9668 88.1504C41.2039 88.8208 42.1506 89.6089 42.5664 90.9863C42.7714 92.6755 42.6474 94.0855 41.6211 95.4765C40.5646 96.7048 39.0721 97.4624 37.6817 98.2543C36.1875 99.0812 36.1875 99.0812 35.3076 100.483C35.2213 101.357 35.1816 101.944 35.5061 102.773C36.1485 103.501 36.6565 103.914 37.6386 104.06C38.5629 104.106 39.0653 104.102 39.8763 103.608C40.5658 102.911 40.7677 102.331 41.0598 101.4C41.8708 98.855 41.8708 98.855 43.0391 98.0762C44.3915 98.1282 45.2548 98.5078 46.3477 99.2578C46.8742 99.8941 46.8203 100.204 46.7908 101.045C46.584 101.857 46.584 101.857 46.1409 102.301C45.6387 102.566 45.6387 102.566 44.9297 102.803C44.6054 103.398 44.6054 103.398 44.3093 104.117C43.508 105.79 42.4582 107.083 40.7146 107.808C38.407 108.406 36.2452 108.188 34.1832 107C32.5844 105.886 31.7094 104.453 31.2227 102.566C30.9857 100.654 31.2272 99.1206 32.3028 97.526C33.5818 95.9309 35.1065 94.9919 36.8868 94.0214C37.9686 93.4589 37.9686 93.4589 38.5562 92.4458C38.5538 92.2761 38.5514 92.1065 38.5488 91.9316C38.398 91.8689 38.2472 91.8061 38.0919 91.7415C37.8966 91.658 37.7013 91.5745 37.5001 91.4885C37.3055 91.4063 37.1108 91.324 36.9102 91.2393C36.4219 90.9863 36.4219 90.9863 36.1856 90.5137C36.0775 89.0549 36.0775 89.0549 36.4957 88.2981C37.5071 87.3242 38.7631 87.7604 39.9668 88.1504Z" fill="white"/>
<path d="M42.0938 11.8164C42.4991 12.1885 42.4991 12.1885 42.788 12.6879C42.9004 12.8786 43.0128 13.0693 43.1286 13.2658C43.2551 13.4894 43.3815 13.713 43.5118 13.9434C43.6804 14.2141 43.85 14.4843 44.0204 14.7539C44.1959 15.0399 44.371 15.326 44.5457 15.6125C44.7084 15.8784 44.8711 16.1444 45.0387 16.4184C45.4844 17.44 45.4911 18.0402 45.4024 19.1426C45.0266 19.7899 44.7325 19.8397 44.014 20.0584C43.1301 20.0937 42.7922 19.9028 42.0938 19.3789C41.9378 19.223 41.7818 19.067 41.6211 18.9063C41.3092 19.9981 40.9972 21.09 40.6758 22.2149C40.9878 22.2929 41.2997 22.3709 41.6211 22.4512C42.1754 23.2827 42.2308 23.5992 42.0938 24.5782C41.3703 25.5084 40.8734 25.8175 39.7305 25.9961C39.6925 26.1487 39.6545 26.3012 39.6153 26.4584C39.4405 27.1521 39.2606 27.8443 39.0806 28.5367C39.0209 28.7767 38.9612 29.0168 38.8997 29.2641C38.8083 29.6114 38.8083 29.6114 38.715 29.9657C38.6606 30.1786 38.6061 30.3914 38.55 30.6108C38.267 31.3075 37.951 31.6703 37.3672 32.1407C36.5093 32.2479 35.9438 32.2439 35.1517 31.8896C34.5754 31.2025 34.5863 30.6703 34.5313 29.7774C34.6652 28.9866 34.881 28.2272 35.1073 27.4584C35.2207 27.0582 35.3337 26.6579 35.4461 26.2574C35.4971 26.0823 35.5482 25.9072 35.6007 25.7267C35.7324 25.2864 35.7324 25.2864 35.7129 24.8145C35.5618 24.7268 35.4107 24.639 35.255 24.5486C34.6165 23.9681 34.5431 23.533 34.4777 22.6894C34.5313 22.2149 34.5313 22.2149 35.0187 21.5059C35.8084 20.9683 36.1963 20.9246 37.1309 21.0332C37.1601 20.7505 37.1894 20.4678 37.2195 20.1766C37.3255 19.3137 37.5337 18.5411 37.8399 17.7246C37.6839 17.8026 37.5279 17.8806 37.3672 17.961C35.6927 18.096 35.6927 18.096 34.8858 17.5917C34.3871 16.7814 34.3836 16.2967 34.5313 15.3614C35.4907 14.1832 36.731 13.5194 38.0467 12.7913C38.2529 12.6707 38.4592 12.55 38.6716 12.4257C39.8824 11.7521 40.7056 11.3383 42.0938 11.8164Z" fill="white"/>
<path d="M108.738 51.5195C110.224 52.0177 111.38 52.7307 112.254 54.048C113.027 55.6289 113.12 57.1878 112.686 58.8752C112.519 59.3183 112.519 59.3183 112.047 60.0273C112.114 60.6629 112.266 61.1692 112.519 61.7554C113.11 63.3425 113.113 64.83 112.519 66.4081C111.681 68.0317 110.455 68.9045 108.738 69.4804C107.754 69.6737 107.049 69.5812 106.139 69.1259C105.565 68.4092 105.491 67.9934 105.552 67.0931C105.666 66.6445 105.666 66.6445 106.153 66.0832C106.919 65.6596 107.66 65.4532 108.502 65.2265C108.833 64.5651 108.798 64.0673 108.738 63.3359C108.503 62.9072 108.503 62.9072 108.029 62.6269C107.433 62.56 106.892 62.5339 106.296 62.5392C105.948 62.5351 105.6 62.5309 105.252 62.5267C104.706 62.5243 104.159 62.5235 103.613 62.5239C103.084 62.523 102.556 62.5166 102.027 62.5096C101.865 62.5116 101.702 62.5135 101.535 62.5155C100.41 62.4981 99.8369 62.2437 99.0488 61.4452C98.8918 60.9726 98.8918 60.9726 98.9011 60.4999C98.898 60.3439 98.895 60.188 98.8918 60.0273C99.1403 59.2791 99.5776 59.0336 100.23 58.6093C100.862 58.5207 101.398 58.4827 102.027 58.4902C102.197 58.488 102.366 58.4858 102.541 58.4835C103.081 58.4767 103.62 58.476 104.159 58.4764C104.701 58.4755 105.241 58.4733 105.783 58.4667C106.118 58.4628 106.454 58.4621 106.79 58.4651C107.465 58.4579 107.922 58.4469 108.487 58.0573C108.882 57.4387 108.828 56.9602 108.738 56.246C108.328 55.5707 107.973 55.521 107.202 55.3007C106.008 54.9596 106.008 54.9596 105.666 54.3554C105.573 53.624 105.52 53.1635 105.666 52.4648C106.498 51.4246 107.475 51.2713 108.738 51.5195Z" fill="white"/>
<path d="M65.7265 103.275C66.9485 103.731 67.8293 104.475 68.3999 105.652C68.9978 107.343 68.8384 108.751 68.0898 110.365C67.208 111.945 65.317 112.73 63.6503 113.237C60.6659 113.924 57.3086 113.637 54.5895 112.233C54.0455 111.861 53.7216 111.489 53.55 110.848C53.4811 109.963 53.6037 109.502 54.1759 108.829C55.0046 108.397 55.3466 108.335 56.2734 108.475C56.6248 108.628 56.9742 108.786 57.3221 108.947C59.1608 109.729 61.4235 109.781 63.3041 109.08C63.5576 108.958 63.811 108.836 64.0722 108.711C64.3061 108.633 64.5401 108.555 64.7812 108.475C64.7812 108.007 64.7812 107.539 64.7812 107.057C64.5277 107.042 64.2742 107.027 64.0131 107.012C63.1269 106.82 63.1269 106.82 62.536 106.318C62.0686 105.422 62.1506 104.947 62.4179 103.984C63.2293 102.88 64.4889 103.098 65.7265 103.275Z" fill="white"/>
<path d="M67.8091 98.1353C68.323 98.7814 68.4276 98.9637 68.4885 99.7452C68.3261 100.676 68.3261 100.676 67.8239 101.267C66.9952 101.699 66.6532 101.761 65.7264 101.621C65.375 101.468 65.0256 101.31 64.6777 101.148C62.7046 100.315 60.4452 100.373 58.4298 101.06C57.8766 101.292 57.8766 101.292 57.455 101.621C57.1475 102.356 57.1475 102.356 57.2186 103.039C57.4721 103.054 57.7256 103.068 57.9867 103.083C58.8729 103.275 58.8729 103.275 59.4638 103.778C59.9312 104.674 59.8492 105.149 59.5819 106.111C59.1829 106.654 58.9691 106.802 58.3015 106.931C56.6972 106.949 55.5811 106.752 54.3827 105.639C53.384 104.495 53.1404 103.11 53.2011 101.621C53.4557 100.423 53.9648 99.3948 54.8554 98.5488C58.5212 96.1778 64.0223 95.5494 67.8091 98.1353Z" fill="white"/>
<path d="M14.3251 51.4014C15.2933 51.5397 15.5029 51.7123 16.0976 52.4648C16.2888 53.3619 16.2401 54.2675 16.2305 55.1826C16.2361 55.4297 16.2418 55.6767 16.2476 55.9313C16.2441 57.7317 16.2441 57.7317 15.5538 58.5263C14.8097 58.8989 14.0636 59.1024 13.2616 59.3184C12.9309 59.9798 12.9656 60.4775 13.0253 61.209C13.4353 61.8843 13.7903 61.934 14.5614 62.1543C15.6191 62.4565 15.6191 62.4565 16.0976 63.0996C16.2546 63.993 16.2179 64.8969 16.2157 65.8026C16.2224 66.0507 16.2291 66.2989 16.236 66.5545C16.2407 68.3659 16.2407 68.3659 15.5529 69.1795C14.6846 69.5898 14.1766 69.4983 13.2616 69.2441C12.8591 68.9617 12.8591 68.9617 12.5526 68.5352C12.5065 67.8954 12.5065 67.8954 12.5231 67.1615C12.4796 66.0825 12.4796 66.0825 11.863 65.2478C11.487 65.0177 11.1046 64.7978 10.7165 64.5887C9.74575 64.0225 9.3585 63.2066 9.00772 62.1543C8.9731 61.6184 8.9555 61.0813 8.94864 60.5443C8.94255 60.2601 8.93645 59.9759 8.93018 59.683C9.05854 58.297 9.71554 57.2452 10.662 56.2461C10.9511 56.1197 11.2417 55.9968 11.5335 55.8768C11.9856 55.675 11.9856 55.675 12.3163 55.3008C12.4565 54.5677 12.4789 53.89 12.4668 53.1443C12.5526 52.4648 12.5526 52.4648 12.9782 51.9109C13.498 51.5195 13.498 51.5195 14.3251 51.4014Z" fill="white"/>
<path d="M77.3066 18.9062C77.83 19.6244 77.83 19.6244 78.2371 20.4719C78.3085 20.6163 78.38 20.7607 78.4536 20.9094C78.6277 21.2633 78.795 21.6206 78.9608 21.9784C79.203 21.9702 79.4452 21.962 79.6948 21.9535C80.0163 21.9469 80.3379 21.9404 80.6595 21.9341C80.8186 21.9282 80.9778 21.9223 81.1418 21.9161C82.2025 21.9006 82.8708 21.9973 83.6874 22.6874C84.113 23.377 84.113 23.377 84.4702 24.1497C84.5912 24.4065 84.7121 24.6633 84.8367 24.9279C84.9254 25.1244 85.014 25.3209 85.1054 25.5234C85.3305 25.5179 85.5556 25.5124 85.7876 25.5068C86.084 25.5025 86.3804 25.4982 86.6858 25.4938C86.9792 25.4883 87.2726 25.4829 87.5748 25.4772C88.3818 25.5216 88.8903 25.6123 89.5956 25.996C90.1818 26.8753 90.1778 27.319 90.0683 28.3593C89.6374 28.9658 89.3528 29.2434 88.6309 29.4357C87.6939 29.5787 86.7598 29.6553 85.8144 29.7182C85.5329 29.7424 85.5329 29.7424 85.2457 29.7671C84.1261 29.8399 83.3937 29.8398 82.5058 29.0683C82.0802 28.447 82.0802 28.447 81.7229 27.7537C81.602 27.5243 81.481 27.2949 81.3564 27.0586C81.0878 26.4687 81.0878 26.4687 81.0878 25.996C80.8456 26.0213 80.6034 26.0466 80.3539 26.0726C80.0323 26.1015 79.7108 26.1301 79.3892 26.1585C79.23 26.1757 79.0708 26.1929 78.9068 26.2107C78.1835 26.2706 77.6051 26.2535 76.9161 26.0191C76.066 25.2595 75.6106 24.3416 75.091 23.3373C74.9269 23.0417 74.9269 23.0417 74.7596 22.7401C74.123 21.5296 73.8346 20.7527 74.2343 19.3788C75.0907 18.211 76.0682 18.3924 77.3066 18.9062Z" fill="white"/>
<path d="M80.8515 12.7616C81.3749 13.4799 81.3749 13.4799 81.782 14.3273C81.8535 14.4717 81.9249 14.6161 81.9985 14.7649C82.1727 15.1188 82.3399 15.476 82.5058 15.8339C82.7309 15.8284 82.956 15.8229 83.188 15.8173C83.4844 15.813 83.7808 15.8088 84.0862 15.8044C84.5263 15.7961 84.5263 15.7961 84.9752 15.7878C85.8085 15.8336 86.2887 15.8706 86.996 16.3066C87.3462 16.8336 87.6244 17.3091 87.897 17.8722C88.0074 18.0888 88.0074 18.0888 88.1199 18.3098C88.3001 18.6645 88.4756 19.0215 88.6503 19.3788C88.8754 19.3734 89.1006 19.3679 89.3325 19.3622C89.6289 19.358 89.9253 19.3537 90.2307 19.3493C90.5241 19.3438 90.8175 19.3383 91.1197 19.3327C91.9267 19.3771 92.4353 19.4677 93.1405 19.8515C93.7267 20.7308 93.7227 21.1745 93.6132 22.2148C93.1823 22.8212 92.8977 23.0989 92.1758 23.2912C91.2388 23.4342 90.3047 23.5107 89.3593 23.5737C89.0778 23.5979 89.0778 23.5979 88.7906 23.6226C87.671 23.6954 86.9386 23.6952 86.0507 22.9238C85.6251 22.3025 85.6251 22.3025 85.2679 21.6092C85.1469 21.3798 85.026 21.1504 84.9014 20.914C84.6327 20.3242 84.6327 20.3242 84.6327 19.8515C84.3905 19.8768 84.1483 19.9021 83.8988 19.9281C83.5773 19.9569 83.2557 19.9856 82.9341 20.014C82.7749 20.0312 82.6158 20.0484 82.4518 20.0661C81.7285 20.1261 81.15 20.109 80.461 19.8746C79.6109 19.115 79.1555 18.197 78.6359 17.1928C78.4718 16.8971 78.4718 16.8971 78.3045 16.5955C77.6679 15.3851 77.3795 14.6082 77.7792 13.2343C78.6356 12.0665 79.6131 12.2478 80.8515 12.7616Z" fill="white"/>
<path d="M22.2422 51.0468C22.9518 51.568 23.1641 51.8506 23.3091 52.7275C23.3113 53.1609 23.3113 53.1609 23.3136 53.603C23.3156 53.763 23.3176 53.923 23.3197 54.0878C23.3251 54.6153 23.3235 55.1425 23.3214 55.67C23.3226 56.0373 23.3241 56.4046 23.3258 56.7718C23.3283 57.5411 23.3272 58.3102 23.3237 59.0794C23.3197 60.065 23.3252 61.0502 23.3335 62.0356C23.3387 62.7939 23.3384 63.5521 23.3364 64.3104C23.3362 64.6737 23.3379 65.037 23.3413 65.4004C23.3454 65.9085 23.342 66.4161 23.3366 66.9242C23.3363 67.3576 23.3363 67.3576 23.336 67.7998C23.1875 68.5351 23.1875 68.5351 22.6409 69.1094C22.0059 69.4804 22.0059 69.4804 21.1492 69.4656C20.0927 69.1722 20.0927 69.1722 19.6426 68.5351C19.551 67.8282 19.551 67.8282 19.5471 66.951C19.5455 66.7911 19.5438 66.6311 19.5422 66.4664C19.5379 65.9376 19.5388 65.4091 19.5401 64.8803C19.539 64.5127 19.5378 64.1451 19.5364 63.7775C19.5342 63.0068 19.5348 62.2363 19.5372 61.4656C19.5399 60.4783 19.5351 59.4912 19.5282 58.5038C19.5239 57.7446 19.5239 56.9853 19.5253 56.2261C19.5253 55.8621 19.5239 55.4981 19.521 55.1341C19.5174 54.6249 19.52 54.116 19.524 53.6068C19.5241 53.3171 19.5241 53.0275 19.5241 52.7291C19.7794 51.141 20.7563 50.8345 22.2422 51.0468Z" fill="white"/>
</g>
<defs>
<clipPath id="clip0_93_3693">
<rect width="121" height="121" fill="white" transform="translate(0.5)"/>
</clipPath>
</defs>
</svg>
