<svg width="56" height="41" viewBox="0 0 56 41" fill="none" xmlns="http://www.w3.org/2000/svg">
<path d="M14.2093 6.17931C-0.227108 12.4398 0.199746 12.2319 0.0246262 13.1184C-0.00820874 13.3373 -0.00820874 13.6876 0.0246262 13.9065C0.188801 14.7273 0.440536 14.8806 5.61751 17.1133L10.4333 19.1929L10.488 25.3002L10.5428 31.4075L10.8492 32.2831C12.1079 35.8402 16.1356 38.7187 21.5753 39.9336C24.016 40.4809 25.012 40.5903 28 40.5903C30.988 40.5903 31.984 40.4809 34.4247 39.9336C39.8644 38.7187 43.9031 35.8402 45.1508 32.2831L45.4572 31.4075L45.4901 25.3221L45.5229 19.2257L46.3657 18.8536L47.2084 18.4705L47.2632 28.1349C47.3179 37.679 47.3179 37.7994 47.5477 38.0949C47.9746 38.675 48.3248 38.8501 49.0144 38.8501C49.7039 38.8501 50.0541 38.675 50.481 38.0949C50.7108 37.7994 50.7108 37.7009 50.7437 27.3688L50.7656 16.9492L53.0202 15.9641C55.45 14.9134 55.8331 14.6507 55.9754 13.8955C56.0082 13.6876 56.0082 13.3373 55.9754 13.1184C55.8003 12.2209 56.2271 12.4289 41.9001 6.22309C32.6735 2.22817 28.4487 0.444138 28.1094 0.411304C27.6607 0.378471 26.5443 0.838158 14.2093 6.17931ZM38.9669 8.77327C44.91 11.3563 49.7805 13.4796 49.7805 13.5124C49.7805 13.5453 49.4084 13.7204 48.9487 13.9174L48.1278 14.2677L38.0913 13.009C32.575 12.3085 27.8906 11.7722 27.6935 11.805C27.1901 11.8816 26.5881 12.3632 26.3911 12.8448C26.0518 13.6547 26.4896 14.7821 27.2776 15.0995C27.4637 15.1761 30.6925 15.6139 34.4575 16.0736C38.2226 16.5442 41.3857 16.9492 41.4842 16.993C41.6156 17.0477 39.4813 18.0108 35.0267 19.9481C31.3711 21.5242 28.2736 22.8485 28.1423 22.8814C27.9891 22.9251 24.826 21.6008 18.5216 18.8755C6.47122 13.6547 6.39461 13.6219 6.30705 13.5343C6.23043 13.4577 27.7154 4.11071 27.9891 4.09977C28.0766 4.09977 33.0128 6.2012 38.9669 8.77327ZM21.2032 23.8555C27.0368 26.3837 27.7483 26.6683 28.1532 26.6136C28.394 26.5808 31.4586 25.3221 34.9501 23.8007C38.4415 22.2903 41.4623 20.9769 41.6593 20.9003L42.0205 20.7471L41.9877 25.8584L41.9549 30.9697L41.6046 31.6921C40.0614 34.8333 34.2715 37.1536 28 37.1536C21.7285 37.1536 15.9386 34.8333 14.3954 31.6921L14.0451 30.9697L14.0123 25.8474L13.9795 20.7252L14.3407 20.8784C14.5377 20.966 17.6242 22.3013 21.2032 23.8555Z" fill="white"/>
</svg>
