<svg width="70" height="62" viewBox="0 0 70 62" fill="none" xmlns="http://www.w3.org/2000/svg">
<path d="M35.3044 0.260724C35.475 0.259038 35.6456 0.257352 35.8214 0.255615C36.0071 0.257266 36.1928 0.259071 36.3785 0.26102C36.5695 0.260908 36.7605 0.260577 36.9514 0.260037C37.3513 0.259652 37.7511 0.261628 38.151 0.265322C38.6631 0.269908 39.175 0.269098 39.6872 0.266579C40.0814 0.265155 40.4756 0.26636 40.8698 0.268379C41.0586 0.269075 41.2474 0.269012 41.4362 0.268171C41.7002 0.267437 41.9642 0.270565 42.2282 0.273862C42.3784 0.274695 42.5285 0.275529 42.6832 0.276388C43.1647 0.36232 43.3239 0.490592 43.6092 0.883723C43.6776 1.18484 43.6776 1.18484 43.6788 1.51667C43.6805 1.64148 43.6822 1.76629 43.684 1.89488C43.6824 2.09563 43.6824 2.09563 43.6807 2.30044C43.6812 2.43874 43.6817 2.57704 43.6822 2.71953C43.6826 3.01172 43.6816 3.30391 43.6794 3.59609C43.6765 4.04345 43.6793 4.49051 43.6828 4.93786C43.6824 5.2218 43.6817 5.50574 43.6807 5.78968C43.6818 5.92351 43.6829 6.05735 43.684 6.19524C43.6714 7.12182 43.6714 7.12182 43.3525 7.55558C42.9156 7.84888 42.6767 7.8956 42.1541 7.89429C42.0194 7.89428 41.8848 7.89427 41.7461 7.89426C41.6003 7.89356 41.4546 7.89287 41.3044 7.89215C41.1555 7.89196 41.0066 7.89177 40.8532 7.89157C40.3762 7.89082 39.8991 7.88913 39.4221 7.88742C39.0993 7.88675 38.7765 7.88613 38.4537 7.88558C37.661 7.8841 36.8684 7.88184 36.0758 7.87901C35.5879 9.68906 35.5441 11.5841 36.4334 13.2823C37.1362 14.4185 37.9843 15.4079 38.903 16.373C38.9741 16.4484 39.0452 16.5238 39.1186 16.6015C41.5092 19.1065 43.7844 20.1305 47.2446 20.2388C49.1787 20.276 51.1064 20.2085 53.0369 20.0966C54.4163 20.018 55.7963 19.9842 57.1773 19.9505C57.6632 19.9385 58.1492 19.9261 58.6351 19.9133C58.8114 19.9087 58.8114 19.9087 58.9912 19.9039C59.7962 19.8816 60.6001 19.8476 61.4045 19.8083C61.7206 19.7938 62.0367 19.7794 62.3528 19.7651C62.6448 19.7509 62.9365 19.7337 63.2284 19.7164C63.4016 19.7086 63.5749 19.7007 63.7534 19.6926C63.9791 19.6803 63.9791 19.6803 64.2094 19.6677C64.6921 19.7297 64.8348 19.8809 65.1332 20.2553C65.2832 20.5073 65.2832 20.5073 65.4012 20.771C65.4467 20.8712 65.4922 20.9714 65.5392 21.0746C65.5868 21.1826 65.6344 21.2906 65.6834 21.4019C65.7603 21.5726 65.7603 21.5726 65.8389 21.7468C66.0057 22.1179 66.1707 22.4897 66.3355 22.8617C66.4497 23.1176 66.564 23.3735 66.6783 23.6294C66.9077 24.1436 67.1362 24.6582 67.3642 25.1731C67.6122 25.7331 67.863 26.2919 68.1155 26.8499C68.2816 27.2176 68.446 27.586 68.6098 27.9547C68.7206 28.203 68.8332 28.4505 68.9458 28.698C69.3009 29.5059 69.5557 30.1313 69.438 31.0173C69.1942 31.3536 69.1942 31.3536 68.7654 31.5554C68.277 31.5554 67.7887 31.5554 67.2856 31.5554C67.2856 40.7892 67.2856 50.023 67.2856 59.5366C67.6851 59.5366 68.0847 59.5366 68.4963 59.5366C68.9294 59.6656 69.1193 59.756 69.438 60.0747C69.4832 60.3516 69.4832 60.3516 69.4884 60.6716C69.4923 60.7769 69.4961 60.8821 69.5 60.9906C69.438 61.2854 69.438 61.2854 69.2353 61.5024C68.7585 61.7676 68.3077 61.7444 67.7763 61.7397C67.6614 61.7403 67.5464 61.7409 67.428 61.7415C67.0403 61.743 66.6526 61.7416 66.2648 61.7402C65.9851 61.7407 65.7053 61.7413 65.4256 61.7421C64.6548 61.7438 63.884 61.743 63.1133 61.7417C62.2828 61.7408 61.4524 61.7422 60.6219 61.7433C59.0884 61.745 57.5549 61.7449 56.0214 61.7438C54.6048 61.7427 53.1883 61.7425 51.7717 61.743C51.6309 61.743 51.6309 61.743 51.4872 61.743C51.1062 61.7432 50.7251 61.7433 50.344 61.7434C46.7677 61.7447 43.1913 61.7436 39.6149 61.7414C36.4359 61.7395 33.2569 61.7396 30.0779 61.7416C26.5082 61.7437 22.9384 61.7446 19.3687 61.7433C18.9883 61.7432 18.6079 61.7431 18.2275 61.743C18.0871 61.7429 18.0871 61.7429 17.9437 61.7429C16.5279 61.7424 15.112 61.7429 13.6962 61.744C12.0867 61.7451 10.4772 61.7448 8.8677 61.7426C8.04592 61.7416 7.22415 61.7412 6.40237 61.7425C5.65092 61.7437 4.8995 61.743 4.14806 61.7409C3.8754 61.7404 3.60273 61.7407 3.33007 61.7416C2.961 61.7429 2.59202 61.7416 2.22295 61.7397C2.06214 61.7412 2.06214 61.7412 1.89808 61.7426C1.46008 61.7381 1.1507 61.7176 0.764272 61.5021C0.499271 61.2192 0.492836 61.0634 0.502419 60.68C0.502593 60.576 0.502766 60.4719 0.502945 60.3647C0.575254 60.0051 0.672418 59.8886 0.964848 59.6711C1.50295 59.5366 1.50295 59.5366 2.71367 59.5366C2.71367 50.3028 2.71367 41.069 2.71367 31.5554C2.22535 31.5554 1.73702 31.5554 1.2339 31.5554C0.8051 31.3536 0.8051 31.3536 0.561274 31.0173C0.498598 30.2306 0.613309 29.6715 0.951711 28.9563C0.993312 28.8641 1.03491 28.7719 1.07777 28.6769C1.21481 28.3743 1.35463 28.0731 1.49454 27.7719C1.59119 27.5602 1.68765 27.3485 1.78392 27.1366C1.93517 26.8041 2.08663 26.4716 2.23891 26.1395C2.61747 25.3137 2.98648 24.4839 3.35161 23.6521C3.50632 23.3008 3.66111 22.9497 3.81592 22.5985C3.91607 22.3708 4.0159 22.143 4.11541 21.915C4.2547 21.5964 4.39546 21.2784 4.53659 20.9605C4.5777 20.8654 4.61881 20.7704 4.66117 20.6724C4.86696 20.2127 4.97484 20.0034 5.40417 19.7172C5.77329 19.7008 5.77329 19.7008 6.22968 19.725C6.40275 19.7332 6.57582 19.7414 6.75414 19.7499C6.89445 19.7575 6.89445 19.7575 7.03759 19.7652C7.55143 19.7929 8.06549 19.8155 8.57954 19.8387C8.68948 19.8438 8.79941 19.8489 8.91268 19.8541C10.4612 19.9239 12.0109 19.9563 13.5606 19.991C14.8165 20.0202 16.0696 20.0616 17.3239 20.1328C24.0907 20.5721 24.0907 20.5721 29.9799 17.6725C32.2389 15.6418 34.2211 13.1527 34.4435 10.0218C34.4776 8.98728 34.396 7.97332 34.2818 6.94605C34.2154 6.28443 34.1874 5.62112 34.1567 4.95704C34.1217 4.21214 34.0841 3.46943 34.0145 2.72684C34.0048 2.61635 33.9952 2.50586 33.9853 2.39203C33.9669 2.18728 33.9462 1.98271 33.9227 1.77848C33.8818 1.30578 33.9105 1.04222 34.1377 0.621221C34.5514 0.269148 34.7652 0.261189 35.3044 0.260724ZM36.0758 2.49802C36.0758 3.56346 36.0758 4.62889 36.0758 5.72662C37.8516 5.72662 39.6273 5.72662 41.4568 5.72662C41.4568 4.66118 41.4568 3.59574 41.4568 2.49802C39.6811 2.49802 37.9054 2.49802 36.0758 2.49802ZM34.5764 15.1302C34.456 15.2511 34.3356 15.3719 34.2115 15.4965C34.1109 15.5969 34.1109 15.5969 34.0083 15.6993C33.7823 15.9251 33.5573 16.1519 33.3323 16.3787C33.171 16.5403 33.0097 16.7017 32.8484 16.8632C32.5003 17.2116 32.1527 17.5605 31.8054 17.9096C31.2568 18.4613 30.7071 19.012 30.1574 19.5626C29.2882 20.4334 28.4196 21.3047 27.5513 22.1763C25.9959 23.7377 24.4397 25.2984 22.8828 26.8583C22.336 27.4062 21.7896 27.9546 21.2435 28.5032C20.9041 28.8439 20.5645 29.1844 20.2249 29.5249C20.0669 29.6833 19.9091 29.8418 19.7514 30.0004C19.5368 30.2163 19.3218 30.4317 19.1067 30.6471C18.9863 30.768 18.8658 30.8889 18.7417 31.0135C15.378 34.1931 9.49458 31.5086 4.86607 31.5554C4.86607 40.7892 4.86607 50.023 4.86607 59.5366C11.6138 59.5366 18.3616 59.5366 25.3138 59.5366C25.3582 58.3379 25.4026 57.1393 25.4484 55.9044C25.9052 55.4475 26.0655 55.4276 26.6843 55.3411C26.8305 55.3197 26.9767 55.2984 27.1273 55.2764C27.2392 55.2617 27.351 55.2469 27.4662 55.2318C27.4679 55.0637 27.4679 55.0637 27.4695 54.8923C27.48 53.8372 27.4918 52.7822 27.5049 51.7272C27.5116 51.1847 27.5179 50.6423 27.523 50.0999C27.528 49.5765 27.5342 49.0532 27.5413 48.5298C27.5438 48.3301 27.5458 48.1303 27.5474 47.9305C27.5497 47.6509 27.5536 47.3714 27.5579 47.0918C27.5597 46.9326 27.5615 46.7733 27.5633 46.6093C27.6008 46.2186 27.6008 46.2186 27.8698 45.815C28.2371 45.6926 28.4513 45.6634 28.829 45.6625C28.942 45.6619 29.0549 45.6614 29.1713 45.6608C29.3566 45.6609 29.3566 45.6609 29.5456 45.661C29.7412 45.6603 29.7412 45.6603 29.9407 45.6596C30.3727 45.6583 30.8046 45.658 31.2366 45.6579C31.5364 45.6575 31.8361 45.657 32.1358 45.6565C32.7645 45.6557 33.3931 45.6555 34.0218 45.6556C34.8281 45.6556 35.6344 45.6537 36.4406 45.6514C37.0598 45.6499 37.6789 45.6497 38.2981 45.6497C38.5954 45.6496 38.8927 45.649 39.19 45.6479C39.6054 45.6466 40.0208 45.647 40.4363 45.6478C40.5595 45.6471 40.6827 45.6463 40.8097 45.6455C40.9797 45.6464 40.9797 45.6464 41.1532 45.6472C41.3004 45.6471 41.3004 45.6471 41.4507 45.647C41.7736 45.6863 41.988 45.7791 42.264 45.9495C42.4538 46.3293 42.4206 46.6519 42.4261 47.0765C42.4274 47.1645 42.4288 47.2524 42.4302 47.343C42.4344 47.6342 42.4377 47.9253 42.4411 48.2165C42.4438 48.4182 42.4467 48.6199 42.4495 48.8216C42.457 49.3528 42.4636 49.884 42.4701 50.4152C42.4768 50.9572 42.4843 51.4991 42.4918 52.041C42.5062 53.1046 42.5199 54.1682 42.533 55.2318C42.7008 55.2539 42.7008 55.2539 42.872 55.2764C43.0181 55.2978 43.1643 55.3191 43.3149 55.3411C43.4601 55.3614 43.6052 55.3816 43.7548 55.4025C44.1473 55.5008 44.1473 55.5008 44.5509 55.9044C44.5953 57.103 44.6397 58.3016 44.6854 59.5366C51.4332 59.5366 58.181 59.5366 65.1332 59.5366C65.1332 50.3028 65.1332 41.069 65.1332 31.5554C64.6449 31.511 64.1565 31.4666 63.6534 31.4209C63.5202 31.3765 63.3871 31.3321 63.2498 31.2863C63.1474 30.7057 63.0937 30.2445 63.2498 29.672C63.6512 29.5382 63.9494 29.5112 64.3697 29.4949C64.508 29.4893 64.6462 29.4837 64.7887 29.4779C64.9329 29.4726 65.0771 29.4673 65.2257 29.4618C65.3714 29.456 65.5172 29.4502 65.6674 29.4442C66.0274 29.43 66.3874 29.4162 66.7475 29.403C66.2191 27.9402 65.5833 26.5304 64.9395 25.1157C64.7612 24.7237 64.5838 24.3314 64.4064 23.939C64.2935 23.6899 64.1805 23.4408 64.0675 23.1917C63.9879 23.0156 63.9879 23.0156 63.9066 22.8359C63.8576 22.7285 63.8086 22.621 63.7581 22.5103C63.6935 22.3681 63.6935 22.3681 63.6276 22.223C63.5336 22.0045 63.5336 22.0045 63.3844 21.8696C63.1495 21.8566 62.914 21.8532 62.6787 21.8534C62.4492 21.8531 62.4492 21.8531 62.2151 21.8529C62.0458 21.8533 61.8765 21.8538 61.702 21.8543C61.5248 21.8543 61.3477 21.8543 61.1652 21.8543C60.6779 21.8542 60.1907 21.855 59.7035 21.856C59.1949 21.8568 58.6863 21.8569 58.1776 21.857C57.2138 21.8575 56.25 21.8586 55.2862 21.8599C54.1892 21.8614 53.0922 21.8622 51.9951 21.8628C49.7379 21.8642 47.4807 21.8666 45.2235 21.8696C45.3009 21.9592 45.3009 21.9592 45.3798 22.0506C45.7967 22.5351 46.2062 23.0239 46.6078 23.5211C47.3483 24.4235 48.1153 25.2991 48.9061 26.1576C48.9769 26.2345 49.0477 26.3114 49.1207 26.3907C50.9381 28.3462 52.4803 29.7211 55.2362 29.8835C56.5301 29.9069 57.8333 29.822 59.1146 29.6395C59.2443 29.6212 59.3741 29.6029 59.5078 29.584C59.6769 29.5564 59.6769 29.5564 59.8494 29.5282C60.249 29.5403 60.4079 29.6699 60.6939 29.9411C60.7653 30.2017 60.7653 30.2017 60.7611 30.4792C60.7632 30.6165 60.7632 30.6165 60.7653 30.7566C60.6618 31.1342 60.4881 31.2213 60.1558 31.4209C59.7817 31.4757 59.7817 31.4757 59.3461 31.4816C59.1827 31.4846 59.0192 31.4876 58.8508 31.4907C58.6745 31.4916 58.4982 31.4925 58.3166 31.4934C58.1329 31.495 57.9493 31.4967 57.7656 31.4984C57.3807 31.5014 56.9958 31.5027 56.6108 31.503C56.1198 31.5037 55.6291 31.5106 55.1382 31.5191C54.7587 31.5246 54.3792 31.5259 53.9997 31.5259C53.7315 31.527 53.4632 31.5324 53.195 31.5379C53.0298 31.5367 52.8647 31.5354 52.6945 31.5342C52.4783 31.5355 52.4783 31.5355 52.2577 31.5368C51.5904 31.3619 51.2226 30.9568 50.739 30.4792C50.6254 30.3684 50.5118 30.2576 50.3947 30.1435C49.9899 29.7449 49.589 29.3428 49.1887 28.9398C49.0352 28.7859 48.8818 28.632 48.7283 28.4782C48.3998 28.1489 48.0716 27.8193 47.7435 27.4897C47.225 26.9687 46.706 26.4484 46.1868 25.9281C44.7113 24.4494 43.2366 22.9698 41.7625 21.4897C40.9468 20.6707 40.1306 19.8522 39.3139 19.0342C38.7973 18.5167 38.2813 17.9986 37.7657 17.48C37.446 17.1587 37.1257 16.838 36.8053 16.5175C36.6563 16.3682 36.5076 16.2188 36.3592 16.0691C36.1573 15.8656 35.9546 15.6629 35.7517 15.4604C35.6383 15.3465 35.5248 15.2327 35.408 15.1154C35.0256 14.7787 34.9573 14.7926 34.5764 15.1302ZM6.61489 21.8696C5.80338 23.492 5.80338 23.492 5.05157 25.1387C4.99915 25.2581 4.94674 25.3775 4.89274 25.5006C4.78413 25.7483 4.67576 25.9962 4.56762 26.2441C4.40117 26.6257 4.23391 27.0069 4.06654 27.388C3.96043 27.6303 3.85437 27.8727 3.74836 28.115C3.69834 28.2291 3.64833 28.3431 3.5968 28.4606C3.35923 28.9167 3.35923 28.9167 3.25177 29.403C5.44844 29.6278 7.64535 29.7796 9.8519 29.8654C10.0133 29.8717 10.1748 29.878 10.3411 29.8846C14.1991 30.0178 17.552 29.9982 20.5048 27.2701C21.0169 26.7741 21.4931 26.2512 21.9591 25.712C22.0737 25.5797 22.0737 25.5797 22.1906 25.4447C23.8008 23.7913 23.8008 23.7913 24.7757 21.8696C18.7827 21.8696 12.7896 21.8696 6.61489 21.8696ZM29.6186 47.6984C29.6186 50.1844 29.6186 52.6704 29.6186 55.2318C31.0392 55.2318 32.4598 55.2318 33.9234 55.2318C33.9234 52.7457 33.9234 50.2597 33.9234 47.6984C32.5029 47.6984 31.0823 47.6984 29.6186 47.6984ZM36.0758 47.6984C36.0758 50.1844 36.0758 52.6704 36.0758 55.2318C37.4964 55.2318 38.917 55.2318 40.3806 55.2318C40.3806 52.7457 40.3806 50.2597 40.3806 47.6984C38.96 47.6984 37.5395 47.6984 36.0758 47.6984ZM27.4662 57.3842C27.4662 58.0944 27.4662 58.8047 27.4662 59.5366C32.4383 59.5366 37.4103 59.5366 42.533 59.5366C42.533 58.8263 42.533 58.116 42.533 57.3842C37.561 57.3842 32.5889 57.3842 27.4662 57.3842Z" fill="white"/>
<path d="M9.2161 34.7165C9.37016 34.7157 9.52422 34.715 9.68295 34.7143C10.1921 34.7126 10.7011 34.7148 11.2103 34.7172C11.5639 34.7172 11.9176 34.717 12.2712 34.7166C13.0123 34.7163 13.7533 34.7181 14.4944 34.7212C15.3508 34.7248 16.2071 34.725 17.0635 34.7234C17.888 34.722 18.7125 34.7228 19.537 34.7247C19.8877 34.7253 20.2383 34.7254 20.5889 34.7248C21.0784 34.7245 21.5679 34.7267 22.0574 34.7296C22.2029 34.729 22.3483 34.7284 22.4982 34.7278C22.6315 34.7291 22.7648 34.7304 22.9022 34.7318C23.0179 34.7321 23.1336 34.7325 23.2528 34.7328C23.6381 34.7959 23.8214 34.9205 24.1031 35.1875C24.2366 35.5881 24.2577 35.8621 24.2636 36.2808C24.2658 36.4213 24.2679 36.5618 24.2701 36.7066C24.2761 37.348 24.2817 37.9894 24.2848 38.6308C24.287 38.9693 24.2907 39.3077 24.2958 39.6462C24.3031 40.1341 24.3061 40.6218 24.3081 41.1098C24.3111 41.261 24.3142 41.4122 24.3173 41.568C24.3169 41.7094 24.3165 41.8508 24.3161 41.9965C24.3172 42.1204 24.3183 42.2444 24.3194 42.3721C24.1942 42.9062 24.0168 43.0804 23.565 43.3936C23.0526 43.4921 22.5481 43.484 22.0277 43.4785C21.7946 43.4799 21.7946 43.4799 21.5569 43.4814C21.0433 43.4836 20.5299 43.481 20.0164 43.4782C19.6597 43.4783 19.3031 43.4786 18.9464 43.4791C18.199 43.4797 17.4517 43.4776 16.7043 43.4739C15.8405 43.4695 14.9769 43.4695 14.1131 43.4719C13.2816 43.474 12.45 43.4731 11.6185 43.4708C11.2649 43.4701 10.9112 43.4702 10.5576 43.471C10.0639 43.4717 9.57025 43.469 9.07651 43.4653C8.92982 43.4662 8.78312 43.4671 8.63197 43.468C7.65474 43.4555 7.65474 43.4555 7.19701 43.1665C6.9794 42.7874 6.94949 42.5481 6.94671 42.1114C6.94458 41.9623 6.94245 41.8133 6.94026 41.6597C6.94126 41.4192 6.94126 41.4192 6.94228 41.1739C6.94145 41.0087 6.94061 40.8435 6.93975 40.6734C6.9388 40.3242 6.93923 39.975 6.94093 39.6258C6.9428 39.0907 6.93822 38.556 6.93308 38.021C6.93296 37.6819 6.93321 37.3427 6.93387 37.0036C6.93209 36.8433 6.9303 36.683 6.92847 36.5178C6.93015 36.3688 6.93184 36.2197 6.93358 36.0662C6.93371 35.9351 6.93383 35.8041 6.93397 35.6691C7.01848 35.3221 7.01848 35.3221 7.26478 35.0107C7.90655 34.6694 8.49964 34.7101 9.2161 34.7165ZM9.17087 36.9364C9.17087 38.3569 9.17087 39.7775 9.17087 41.2412C10.9466 41.2412 12.7223 41.2412 14.5519 41.2412C14.5519 39.8206 14.5519 38.4 14.5519 36.9364C12.7761 36.9364 11.0004 36.9364 9.17087 36.9364ZM16.7043 36.9364C16.7043 38.3569 16.7043 39.7775 16.7043 41.2412C18.48 41.2412 20.2557 41.2412 22.0853 41.2412C22.0853 39.8206 22.0853 38.4 22.0853 36.9364C20.3095 36.9364 18.5338 36.9364 16.7043 36.9364Z" fill="white"/>
<path d="M47.0647 34.7642C47.2641 34.7628 47.2641 34.7628 47.4676 34.7613C47.614 34.7609 47.7604 34.7606 47.9113 34.7602C48.0651 34.7593 48.2189 34.7584 48.3773 34.7575C48.888 34.7549 49.3986 34.7533 49.9093 34.752C50.0833 34.7514 50.2574 34.7509 50.4367 34.7503C51.2626 34.7478 52.0886 34.7458 52.9145 34.7447C53.8679 34.7434 54.8212 34.7399 55.7745 34.7344C56.6002 34.7299 57.426 34.7283 58.2517 34.7277C58.603 34.7271 58.9542 34.7255 59.3055 34.723C59.7967 34.7198 60.2877 34.7199 60.7789 34.7208C60.9245 34.7191 61.0701 34.7174 61.2201 34.7156C61.8137 34.7197 62.2046 34.729 62.7347 35.0105C63.0361 35.3922 63.0652 35.583 63.0657 36.0662C63.0674 36.2153 63.0691 36.3643 63.0708 36.5179C63.069 36.6782 63.0672 36.8385 63.0654 37.0037C63.0657 37.1689 63.066 37.334 63.0664 37.5042C63.0662 37.8534 63.0644 38.2026 63.0611 38.5518C63.0565 39.0868 63.0583 39.6216 63.0609 40.1566C63.06 40.4957 63.0587 40.8348 63.057 41.174C63.0576 41.3343 63.0583 41.4946 63.059 41.6598C63.0569 41.8088 63.0547 41.9579 63.0525 42.1114C63.0513 42.3079 63.0513 42.3079 63.05 42.5084C62.9808 42.8555 62.9808 42.8555 62.8022 43.1666C62.2133 43.5384 61.6048 43.4695 60.9227 43.4654C60.7676 43.4665 60.6125 43.4677 60.4526 43.4689C59.939 43.4719 59.4255 43.471 58.9119 43.4698C58.6455 43.4703 58.3791 43.4709 58.1126 43.4716C57.2749 43.4739 56.4372 43.4734 55.5995 43.4712C54.7358 43.4689 53.8722 43.471 53.0086 43.4754C52.2665 43.4789 51.5245 43.4799 50.7824 43.4788C50.3395 43.4781 49.8966 43.4787 49.4536 43.4812C48.9595 43.4835 48.4656 43.4816 47.9716 43.4785C47.8252 43.4801 47.6787 43.4817 47.5279 43.4833C46.888 43.4752 46.5424 43.4687 46.007 43.097C45.7386 42.6857 45.6778 42.4866 45.6788 42.0008C45.6776 41.8603 45.6763 41.7198 45.675 41.575C45.6773 41.4246 45.6795 41.2742 45.6817 41.1193C45.6817 40.9636 45.6817 40.8079 45.6817 40.6475C45.6824 40.3186 45.6848 39.9898 45.6887 39.661C45.6943 39.1579 45.6942 38.655 45.6933 38.1519C45.6947 37.8322 45.6964 37.5125 45.6985 37.1929C45.6986 37.0425 45.6986 36.8921 45.6986 36.7372C45.7008 36.5967 45.7029 36.4561 45.7051 36.3114C45.7062 36.1882 45.7074 36.0651 45.7085 35.9382C45.7727 35.5184 45.9189 35.2617 46.1652 34.9185C46.4914 34.7554 46.7001 34.766 47.0647 34.7642ZM47.914 36.9364C47.914 38.357 47.914 39.7776 47.914 41.2412C49.6897 41.2412 51.4655 41.2412 53.295 41.2412C53.295 39.8206 53.295 38.4 53.295 36.9364C51.5193 36.9364 49.7435 36.9364 47.914 36.9364ZM55.4474 36.9364C55.4474 38.357 55.4474 39.7776 55.4474 41.2412C57.2231 41.2412 58.9989 41.2412 60.8284 41.2412C60.8284 39.8206 60.8284 38.4 60.8284 36.9364C59.0527 36.9364 57.2769 36.9364 55.4474 36.9364Z" fill="white"/>
<path d="M47.2266 45.51C47.3588 45.5089 47.491 45.5077 47.6272 45.5066C47.8435 45.5067 47.8435 45.5067 48.0641 45.5069C48.2929 45.5056 48.2929 45.5056 48.5263 45.5042C49.0311 45.5016 49.5359 45.5011 50.0408 45.5008C50.3913 45.5 50.7418 45.4991 51.0923 45.4981C51.8272 45.4964 52.5622 45.496 53.2971 45.4962C54.1461 45.4963 54.995 45.4935 55.844 45.4892C56.6614 45.4853 57.4788 45.4843 58.2962 45.4845C58.6437 45.4842 58.9912 45.483 59.3387 45.4809C59.8244 45.4783 60.3099 45.479 60.7956 45.4807C61.0115 45.4784 61.0115 45.4784 61.2317 45.4761C61.8214 45.4811 62.2074 45.4923 62.7338 45.7726C63.0365 46.1542 63.0653 46.3443 63.0658 46.8282C63.0675 46.9772 63.0692 47.1263 63.0709 47.2799C63.0691 47.4402 63.0673 47.6005 63.0655 47.7657C63.0658 47.9308 63.0661 48.096 63.0665 48.2662C63.0663 48.6154 63.0645 48.9646 63.0612 49.3138C63.0566 49.8488 63.0584 50.3835 63.061 50.9186C63.0601 51.2577 63.0588 51.5968 63.0571 51.9359C63.0578 52.0963 63.0584 52.2566 63.0591 52.4218C63.057 52.5708 63.0548 52.7198 63.0527 52.8734C63.0514 53.0699 63.0514 53.0699 63.0501 53.2704C62.9598 53.7234 62.7969 53.8651 62.4428 54.1556C62.126 54.2237 62.126 54.2237 61.7689 54.2248C61.6331 54.2266 61.4973 54.2283 61.3574 54.23C61.2092 54.2291 61.061 54.2283 60.9084 54.2274C60.7517 54.2285 60.595 54.2297 60.4336 54.2309C59.915 54.2339 59.3965 54.233 58.8779 54.2318C58.6089 54.2323 58.34 54.2329 58.0711 54.2336C57.2256 54.2359 56.3802 54.2354 55.5347 54.2331C54.6626 54.2309 53.7907 54.233 52.9186 54.2373C52.1696 54.2409 51.4206 54.2419 50.6716 54.2408C50.2243 54.2401 49.7771 54.2407 49.3299 54.2432C48.8313 54.2455 48.3328 54.2436 47.8342 54.2405C47.612 54.2429 47.612 54.2429 47.3852 54.2453C46.3938 54.2328 46.3938 54.2328 45.9389 53.8591C45.7491 53.4562 45.695 53.204 45.6964 52.7607C45.6955 52.6197 45.6947 52.4787 45.6938 52.3335C45.6958 52.1827 45.6977 52.0319 45.6997 51.8766C45.6998 51.7205 45.7 51.5645 45.7001 51.4038C45.7009 51.0744 45.703 50.745 45.7063 50.4156C45.7113 49.911 45.7119 49.4066 45.7118 48.902C45.7131 48.5819 45.7147 48.2618 45.7165 47.9417C45.7168 47.7906 45.7171 47.6396 45.7174 47.4839C45.7191 47.3434 45.7209 47.2029 45.7226 47.0581C45.7237 46.9346 45.7247 46.8112 45.7257 46.684C45.7649 46.324 45.8262 46.1135 46.0308 45.8151C46.4389 45.5626 46.7506 45.5119 47.2266 45.51ZM47.9141 47.6984C47.9141 49.119 47.9141 50.5396 47.9141 52.0032C49.6898 52.0032 51.4656 52.0032 53.2951 52.0032C53.2951 50.5826 53.2951 49.162 53.2951 47.6984C51.5194 47.6984 49.7436 47.6984 47.9141 47.6984ZM55.4475 47.6984C55.4475 49.119 55.4475 50.5396 55.4475 52.0032C57.2232 52.0032 58.999 52.0032 60.8285 52.0032C60.8285 50.5826 60.8285 49.162 60.8285 47.6984C59.0528 47.6984 57.277 47.6984 55.4475 47.6984Z" fill="white"/>
<path d="M9.20375 45.4807C9.43287 45.48 9.43287 45.48 9.66662 45.4792C10.1714 45.4782 10.6761 45.4811 11.1809 45.4841C11.5315 45.4844 11.8821 45.4845 12.2328 45.4845C12.9675 45.4847 13.7022 45.487 14.4369 45.4907C15.2859 45.4949 16.135 45.4964 16.984 45.4962C17.8015 45.496 18.619 45.4974 19.4364 45.4996C19.7841 45.5005 20.1317 45.501 20.4793 45.5012C20.9646 45.5018 21.4499 45.5041 21.9353 45.507C22.0794 45.5069 22.2236 45.5068 22.3722 45.5066C22.5705 45.5084 22.5705 45.5084 22.7728 45.5101C22.8875 45.5106 23.0022 45.511 23.1204 45.5115C23.4615 45.5496 23.6777 45.6352 23.9686 45.8151C24.2485 46.2235 24.2727 46.5705 24.2767 47.0581C24.2785 47.1987 24.2802 47.3392 24.2819 47.484C24.2822 47.6351 24.2825 47.7861 24.2828 47.9418C24.2842 48.1756 24.2842 48.1756 24.2856 48.4142C24.2869 48.7438 24.2876 49.0734 24.2875 49.4031C24.2881 49.9074 24.293 50.4115 24.2981 50.9158C24.2989 51.2361 24.2994 51.5564 24.2997 51.8766C24.3016 52.0274 24.3035 52.1782 24.3055 52.3336C24.3047 52.4746 24.3039 52.6155 24.303 52.7607C24.3034 52.8843 24.3038 53.0078 24.3042 53.1351C24.2128 53.6129 24.0578 53.8277 23.6996 54.1557C23.2708 54.2402 23.2708 54.2402 22.7579 54.2406C22.6642 54.2415 22.5705 54.2425 22.474 54.2435C22.165 54.2458 21.8562 54.2432 21.5472 54.2403C21.3321 54.2404 21.117 54.2407 20.9019 54.2413C20.4513 54.2417 20.0008 54.2397 19.5503 54.236C18.973 54.2314 18.396 54.2322 17.8187 54.2347C17.3746 54.2361 16.9305 54.2349 16.4864 54.2329C16.2736 54.2322 16.0608 54.2323 15.848 54.2331C15.5504 54.2339 15.253 54.2311 14.9554 54.2274C14.7862 54.2266 14.6169 54.2258 14.4426 54.2249C13.9365 54.1432 13.7744 54.0282 13.4757 53.6176C13.4136 53.1212 13.4104 52.8064 13.6354 52.3564C13.8792 52.1378 13.8792 52.1378 14.5519 52.0033C14.5519 50.5827 14.5519 49.1621 14.5519 47.6985C12.7761 47.6985 11.0004 47.6985 9.17087 47.6985C9.17087 49.1191 9.17087 50.5397 9.17087 52.0033C9.57041 52.0033 9.96995 52.0033 10.3816 52.0033C10.7809 52.1732 10.9792 52.308 11.2392 52.6507C11.3581 53.0667 11.3117 53.3394 11.1887 53.7521C10.5826 54.3343 9.89675 54.2199 9.10361 54.2145C8.96297 54.2172 8.82234 54.2199 8.67744 54.2227C8.47429 54.2225 8.47429 54.2225 8.26703 54.2224C8.14365 54.2227 8.02027 54.2229 7.89315 54.2232C7.44552 54.1334 7.30396 53.9696 7.01848 53.6176C6.94924 53.2705 6.94924 53.2705 6.94671 52.8735C6.94458 52.7244 6.94245 52.5754 6.94026 52.4218C6.94126 52.1814 6.94126 52.1814 6.94228 51.936C6.94145 51.7708 6.94061 51.6057 6.93975 51.4355C6.9388 51.0863 6.93923 50.7371 6.94093 50.3879C6.9428 49.8529 6.93822 49.3181 6.93308 48.7831C6.93296 48.444 6.93321 48.1049 6.93387 47.7657C6.93209 47.6054 6.9303 47.4451 6.92847 47.2799C6.93015 47.1309 6.93184 46.9818 6.93358 46.8283C6.93371 46.6973 6.93383 46.5663 6.93397 46.4313C7.01848 46.0842 7.01848 46.0842 7.26555 45.7727C7.90403 45.4327 8.49084 45.4732 9.20375 45.4807ZM16.7043 47.6985C16.7043 49.1191 16.7043 50.5397 16.7043 52.0033C18.48 52.0033 20.2557 52.0033 22.0853 52.0033C22.0853 50.5827 22.0853 49.1621 22.0853 47.6985C20.3095 47.6985 18.5338 47.6985 16.7043 47.6985Z" fill="white"/>
<path d="M39.3044 26.309C41.0698 27.6196 42.1874 29.3678 42.5329 31.5554C42.6662 33.8954 42.2442 35.9748 40.6412 37.7772C39.1978 39.3106 37.3782 40.1301 35.2701 40.228C33.0176 40.2635 31.1627 39.4667 29.5277 37.9343C28.678 37.0503 28.1107 36.0826 27.7352 34.9185C27.7049 34.8268 27.6745 34.7351 27.6433 34.6406C27.0993 32.6634 27.4745 30.5171 28.4178 28.7336C29.6567 26.7885 31.3646 25.7111 33.5802 25.1492C35.6032 24.8487 37.5726 25.2089 39.3044 26.309ZM30.9218 29.0247C29.8257 30.336 29.5055 31.7664 29.6186 33.4388C29.8653 34.8586 30.6044 36.0495 31.7026 36.969C33.036 37.9036 34.3409 38.1335 35.9412 38.0126C37.4141 37.6822 38.7161 36.8366 39.5734 35.5912C40.341 34.1754 40.6559 32.7239 40.2292 31.135C39.7383 29.7169 38.903 28.5783 37.576 27.8465C35.2538 26.7526 32.7183 27.1405 30.9218 29.0247Z" fill="#FFAC09"/>
<path d="M37.5557 30.4792C38.0027 30.8096 38.1982 31.0073 38.3124 31.5554C38.1954 32.1171 38.0088 32.2782 37.5557 32.6316C37.3876 32.6935 37.3876 32.6935 37.2162 32.7567C36.8174 32.9041 36.5308 33.022 36.2104 33.3043C36.1063 33.7945 36.1011 34.2467 36.1001 34.7472C36.0768 35.1706 36.0644 35.3378 35.7816 35.6416C35.325 35.9055 35.1139 35.9681 34.5961 35.8602C34.1935 35.5787 33.9578 35.3579 33.8587 34.8658C33.8328 34.4777 33.8318 34.0967 33.8394 33.7078C33.8368 33.5753 33.8342 33.4429 33.8315 33.3064C33.8356 32.7001 33.8451 32.3401 34.1983 31.8355C34.6707 31.5029 35.1456 31.2289 35.6639 30.9753C35.8032 30.9028 35.8032 30.9028 35.9453 30.8289C36.4985 30.5536 36.924 30.3935 37.5557 30.4792Z" fill="#FFAC09"/>
</svg>
