<svg width="58" height="59" viewBox="0 0 58 59" fill="none" xmlns="http://www.w3.org/2000/svg">
<path d="M33.3134 0.0649161C33.786 0.660829 34.2404 1.2714 34.6824 1.89031C35.6289 2.25779 35.6289 2.25779 36.7075 2.54631C38.6482 3.13326 39.5943 3.71237 40.615 5.54109C41.1849 7.28886 41.124 8.11523 40.5579 9.8764C39.8204 11.2532 39.0566 12.2134 38.023 13.3614C36.9445 14.8835 36.3931 16.6602 35.7164 18.3884C34.9822 20.0402 34.0753 21.1062 32.857 22.426C32.7065 22.8777 32.5559 23.3295 32.4007 23.795C32.7484 23.5974 32.7484 23.5974 33.103 23.3957C35.0357 22.3534 36.5405 21.5607 38.7896 21.9696C40.5738 23.3825 41.2588 25.0867 42.0072 27.1713C42.1272 27.4965 42.2473 27.8216 42.371 28.1567C42.6223 28.8423 42.8711 29.5289 43.1174 30.2164C43.4944 31.2642 43.8835 32.3069 44.2738 33.3498C44.5172 34.0186 44.76 34.6877 45.002 35.357C45.1766 35.8213 45.1766 35.8213 45.3547 36.295C46.0347 38.2306 46.218 39.6136 45.6348 41.5926C44.7239 42.3591 44.7239 42.3591 43.6097 42.9046C43.2433 43.0916 42.8768 43.2787 42.4992 43.4714C41.5277 43.8743 41.5277 43.8743 40.615 43.8743C41.0667 45.0791 41.5185 46.2838 41.984 47.5251C42.624 47.5627 43.2641 47.6004 43.9235 47.6392C45.3622 47.8043 46.0099 47.9266 47.232 48.7515C48.0543 50.0192 48.2371 51.0511 48.3729 52.5449C45.1033 54.1376 41.7474 55.4999 38.3617 56.8232C37.7293 57.0764 37.7293 57.0764 37.0842 57.3348C36.6828 57.4895 36.2814 57.6442 35.8679 57.8036C35.5079 57.9444 35.1479 58.0853 34.777 58.2303C33.6323 58.5112 33.0313 58.4626 31.9444 58.0211C31.1692 56.7292 31.0288 55.8764 31.0602 54.3703C31.488 53.0013 31.488 53.0013 32.7144 52.003C33.9148 50.8341 33.9148 50.8341 33.7163 49.461C33.4788 48.1891 33.1805 46.9519 32.857 45.6997C27.7229 44.8441 23.25 47.3792 18.6817 49.379C17.4707 49.8995 16.2586 50.4175 15.0464 50.9353C14.2498 51.2758 13.4537 51.6174 12.6581 51.9601C8.78133 53.6244 4.85586 55.153 0.912696 56.6521C0.611506 55.8991 0.310317 55.1461 0 54.3703C3.70435 52.588 7.46474 50.97 11.2661 49.4075C11.7135 49.2226 12.161 49.0376 12.622 48.847C13.0422 48.6755 13.4625 48.504 13.8954 48.3273C14.2735 48.1726 14.6516 48.018 15.0411 47.8587C15.9722 47.5251 15.9722 47.5251 16.8849 47.5251C16.8019 47.281 16.719 47.037 16.6335 46.7855C16.2595 45.6825 15.8877 44.5788 15.5158 43.475C15.3852 43.0909 15.2546 42.7067 15.1201 42.311C14.9966 41.9433 14.873 41.5756 14.7457 41.1968C14.631 40.8575 14.5163 40.5181 14.3981 40.1685C14.1468 39.3108 14.1468 39.3108 14.1468 38.3981C13.7645 38.5502 13.3822 38.7023 12.9883 38.8589C11.5719 39.4215 10.155 39.9826 8.73768 40.5428C8.12394 40.7858 7.51043 41.0292 6.89714 41.2733C6.01643 41.6236 5.13496 41.9719 4.2533 42.3199C3.72277 42.5302 3.19223 42.7405 2.64561 42.9572C1.36904 43.418 1.36904 43.418 0.456348 43.418C0.230456 42.2885 0.230456 42.2885 0 41.1362C4.66683 38.9018 9.42245 36.9609 14.2323 35.0611C15.3226 34.6289 16.4126 34.1962 17.5025 33.7632C18.1742 33.4965 18.8461 33.2304 19.5183 32.9648C21.1887 32.3065 21.1887 32.3065 22.8174 31.5529C23.2173 30.5296 23.2173 30.5296 23.5304 29.3282C23.644 28.9247 23.7575 28.5211 23.8745 28.1054C23.9774 27.7371 24.0804 27.3689 24.1864 26.9894C24.337 26.5377 24.4876 26.0859 24.6428 25.6204C24.2898 25.6086 23.9369 25.5969 23.5732 25.5847C20.8383 25.4358 18.8792 25.1614 16.5212 23.7843C14.7621 23.0045 12.8748 22.8976 10.9755 22.6951C9.16487 22.3451 7.81689 21.8042 6.74717 20.253C5.96437 18.1669 5.81164 16.692 6.47265 14.5468C6.84522 13.7554 6.84522 13.7554 7.81496 12.8427C8.75739 12.0319 8.75739 12.0319 8.72409 11.0583C8.70644 10.7341 8.68879 10.41 8.67061 10.076C8.67061 8.27918 8.67061 8.27918 9.31814 7.5843C11.0475 6.59448 12.866 5.94967 14.7386 5.27905C15.1528 5.12905 15.567 4.97905 15.9937 4.8245C16.8692 4.50877 17.7453 4.19472 18.622 3.88226C19.9564 3.40512 21.287 2.91854 22.6177 2.43133C23.4708 2.12503 24.3241 1.81929 25.1776 1.51418C25.5722 1.36874 25.9669 1.22331 26.3736 1.07346C28.787 0.225676 30.7517 -0.164874 33.3134 0.0649161ZM29.1313 2.91598C28.7506 3.05158 28.3699 3.18719 27.9777 3.32691C27.5684 3.47756 27.1591 3.62822 26.7374 3.78344C26.1054 4.01069 26.1054 4.01069 25.4606 4.24253C24.1122 4.72853 22.7661 5.22037 21.4198 5.71222C20.5105 6.04059 19.6011 6.3686 18.6915 6.69622C17.029 7.29681 15.3668 7.89813 13.7064 8.50446C13.2049 8.68741 13.2049 8.68741 12.6932 8.87405C11.8385 9.18669 11.8385 9.18669 10.9523 9.64822C12.1176 14.2682 13.6106 19.256 17.7994 21.9482C20.6449 23.4406 23.3368 23.4521 26.4682 23.3387C26.6941 24.4681 26.6941 24.4681 26.9245 25.6204C27.9787 25.3192 29.0329 25.018 30.119 24.7077C30.0531 24.2559 29.9872 23.8041 29.9193 23.3387C29.9021 21.2066 31.1148 20.2339 32.5112 18.7556C34.5441 16.4923 34.9545 14.0462 34.8767 11.1064C34.6377 9.31224 34.1838 7.65944 33.6271 5.9404C33.5301 5.63744 33.433 5.33449 33.333 5.02235C33.0139 4.06862 33.0139 4.06862 32.4007 2.803C30.8614 2.28992 30.5935 2.38629 29.1313 2.91598ZM35.5951 4.6284C35.7246 5.28513 35.8585 5.94097 35.9944 6.5964C36.0686 6.96171 36.1427 7.32702 36.219 7.7034C36.4826 8.85099 36.4826 8.85099 37.4205 10.1046C38.4735 9.24767 38.4735 9.24767 38.4473 7.85135C38.4405 6.37492 38.4405 6.37492 37.4205 5.08474C36.4808 4.75443 36.4808 4.75443 35.5951 4.6284ZM9.58331 14.668C8.50074 15.9895 8.50074 15.9895 8.7847 17.6628C8.98359 19.2525 8.98359 19.2525 10.0397 20.1442C11.2186 20.2204 11.2186 20.2204 12.3214 20.1442C11.7233 18.2119 10.9781 16.4596 10.0397 14.668C9.88906 14.668 9.73846 14.668 9.58331 14.668ZM34.0781 25.2496C33.3744 25.5585 33.3744 25.5585 32.6565 25.8735C32.1674 26.0912 31.6782 26.3088 31.1743 26.5331C30.4326 26.8596 30.4326 26.8596 29.676 27.1927C28.4536 27.7312 27.2323 28.272 26.0118 28.8148C25.3281 32.4318 25.8506 35.0398 27.1242 38.4552C27.2786 38.8917 27.433 39.3282 27.5921 39.7779C27.97 40.8423 28.3559 41.9031 28.7499 42.9616C34.756 44.185 38.274 42.8757 43.3531 39.7672C43.3531 39.3154 43.3531 38.8636 43.3531 38.3981C40.8201 38.7375 40.8201 38.7375 38.3332 39.3108C38.1073 38.1814 38.1073 38.1814 37.8769 37.0291C39.2322 36.7279 40.5876 36.4267 41.984 36.1164C41.7581 34.761 41.7581 34.761 41.5277 33.3783C39.0428 34.056 39.0428 34.056 36.5078 34.7474C36.2819 33.6179 36.2819 33.6179 36.0515 32.4656C37.4068 32.0138 38.7622 31.562 40.1586 31.0966C40.008 30.3436 39.8574 29.5906 39.7023 28.8148C37.1693 29.1542 37.1693 29.1542 34.6824 29.7275C34.5318 28.9746 34.3812 28.2216 34.2261 27.4458C35.5814 27.1446 36.9368 26.8434 38.3332 26.5331C38.1826 25.7801 38.032 25.0271 37.8769 24.2514C36.3201 24.2514 35.4964 24.6228 34.0781 25.2496ZM20.0793 35.6601C20.2111 36.0724 20.3428 36.4848 20.4786 36.9097C20.648 37.4479 20.8174 37.9862 20.992 38.5407C21.1614 39.0755 21.3308 39.6102 21.5054 40.1611C21.9047 41.5926 21.9047 41.5926 21.9047 42.9616C21.3023 43.1122 20.6999 43.2628 20.0793 43.418C19.9911 43.0768 19.9028 42.7356 19.8119 42.3841C19.6931 41.9346 19.5743 41.4852 19.4518 41.0221C19.2771 40.3551 19.2771 40.3551 19.0989 39.6745C18.7577 38.554 18.3583 37.5967 17.7976 36.5728C17.3458 36.7233 16.894 36.8739 16.4285 37.0291C17.0531 40.2043 18.0044 43.1378 19.1666 46.1561C20.969 45.8694 22.4518 45.3052 24.1009 44.5303C24.5462 44.3227 24.9915 44.115 25.4503 43.9011C25.7862 43.7416 26.1221 43.5822 26.4682 43.418C25.679 40.2194 24.716 37.256 23.2737 34.291C22.1912 34.291 21.0245 35.1774 20.0793 35.6601ZM37.4205 45.2434C36.4545 45.6503 36.4545 45.6503 35.5951 46.1561C35.7457 47.0596 35.8963 47.9632 36.0515 48.8941C37.6327 48.6683 37.6327 48.6683 39.2459 48.4378C38.9713 47.5158 38.665 46.6028 38.3332 45.6997C38.032 45.5491 37.7308 45.3985 37.4205 45.2434ZM33.7697 54.3703C33.9203 54.8221 34.0709 55.2739 34.2261 55.7394C37.8404 54.2334 41.4546 52.7275 45.1784 51.1759C45.1784 50.8747 45.1784 50.5735 45.1784 50.2632C40.4499 49.945 36.9341 50.6956 33.7697 54.3703Z" fill="white"/>
<path d="M46.5473 4.17212C47.4509 4.17212 48.3545 4.17212 49.2854 4.17212C49.3984 4.74626 49.5113 5.3204 49.6277 5.91195C49.9516 7.20308 50.1105 7.73236 51.0538 8.70708C51.9909 9.17563 52.8193 9.46444 53.8489 9.64829C53.8489 10.4013 53.8489 11.1542 53.8489 11.93C51.2249 13.2991 51.2249 13.2991 50.1981 13.2991C49.8969 14.805 49.5957 16.311 49.2854 17.8626C48.3818 17.8626 47.4783 17.8626 46.5473 17.8626C46.4814 17.3637 46.4156 16.8649 46.3477 16.3509C46.1444 14.6995 46.1444 14.6995 45.6346 13.2991C44.5803 12.9602 43.5145 12.655 42.4402 12.3864C41.9838 11.93 41.9838 11.93 41.9553 10.7606C41.9647 10.3936 41.9741 10.0265 41.9838 9.64829C42.4921 9.45064 43.0004 9.25298 43.524 9.04934C45.2582 8.41656 45.2582 8.41656 46.091 6.91021C46.269 6.00221 46.425 5.08929 46.5473 4.17212ZM47.46 9.64829C47.1588 10.2507 46.8576 10.8531 46.5473 11.4737C47.4509 11.9255 47.4509 11.9255 48.3727 12.3864C48.6739 11.784 48.9751 11.1816 49.2854 10.561C48.683 10.2598 48.0807 9.95861 47.46 9.64829Z" fill="#FFAC09"/>
<path d="M50.6548 22.8821C51.4078 22.8821 52.1608 22.8821 52.9366 22.8821C53.0589 23.4562 53.1813 24.0304 53.3074 24.6219C53.7979 26.5584 53.7979 26.5584 55.2183 27.9019C56.4044 28.4451 56.4044 28.4451 57.5001 28.8146C57.5001 29.5676 57.5001 30.3206 57.5001 31.0963C56.7518 31.3081 56.7518 31.3081 55.9884 31.5242C54.7912 32.0185 54.3891 32.3029 53.7887 33.4708C53.4556 34.4992 53.1689 35.517 52.9366 36.5725C52.1836 36.5725 51.4306 36.5725 50.6548 36.5725C50.5772 36.3249 50.4995 36.0772 50.4195 35.822C49.5608 33.2164 49.5608 33.2164 47.4604 31.5527C46.4805 31.2309 46.4805 31.2309 45.635 31.0963C45.635 30.3434 45.635 29.5904 45.635 28.8146C45.8827 28.7305 46.1303 28.6464 46.3855 28.5597C47.9521 27.9246 49.0211 27.4901 49.8331 25.9535C50.1621 24.9342 50.4397 23.931 50.6548 22.8821ZM51.5675 28.3583C50.8899 29.2618 50.8899 29.2618 50.1985 30.1836C50.8009 30.6354 51.4032 31.0872 52.0239 31.5527C52.4757 30.9503 52.9274 30.3479 53.3929 29.7273C52.7905 29.2755 52.1882 28.8237 51.5675 28.3583Z" fill="#FFAC09"/>
<path d="M5.01978 22.8821C5.77275 22.8821 6.52573 22.8821 7.30152 22.8821C7.35799 23.1574 7.41446 23.4327 7.47265 23.7163C8.03573 25.9908 8.03573 25.9908 9.57434 27.6684C10.4788 28.1086 11.3693 28.4912 12.3213 28.8146C12.3213 29.5676 12.3213 30.3206 12.3213 31.0963C11.8225 31.2752 11.3237 31.454 10.8097 31.6383C9.15665 32.3462 8.4945 33.0692 7.75787 34.7471C7.44034 35.7471 7.44034 35.7471 7.30152 36.5725C6.54854 36.5725 5.79557 36.5725 5.01978 36.5725C4.95801 36.2919 4.89624 36.0113 4.8326 35.7222C4.30506 33.516 4.30506 33.516 2.84856 31.8878C1.87873 31.4675 1.87873 31.4675 0.456299 31.0963C0.456299 30.3434 0.456299 29.5904 0.456299 28.8146C0.879847 28.6264 1.30339 28.4381 1.73978 28.2442C3.18311 27.4517 3.79098 27.0431 4.56343 25.6202C4.89221 24.1821 4.89221 24.1821 5.01978 22.8821ZM5.93247 28.3583C5.2548 29.2618 5.2548 29.2618 4.56343 30.1836C5.16581 30.6354 5.76819 31.0872 6.38882 31.5527C6.84061 30.9503 7.29239 30.3479 7.75787 29.7273C7.15549 29.2755 6.55311 28.8237 5.93247 28.3583Z" fill="#FFAC09"/>
<path d="M29.2062 4.62866C29.6579 4.77926 30.1097 4.92985 30.5752 5.08501C32.2226 8.57807 33.037 11.9963 31.8302 15.7236C31.3362 16.9455 31.1462 17.3278 30.0333 18.0909C29.6239 18.2039 29.6239 18.2039 29.2062 18.3191C28.905 18.0179 28.6038 17.7167 28.2935 17.4064C28.4832 16.1902 28.9108 15.1223 29.3202 13.9553C29.8764 11.8072 29.3033 10.1228 28.625 8.0584C28.2935 6.9104 28.2935 6.9104 28.2935 5.08501C28.5946 4.93442 28.8958 4.78382 29.2062 4.62866Z" fill="white"/>
</svg>
