<svg width="69" height="73" viewBox="0 0 69 73" fill="none" xmlns="http://www.w3.org/2000/svg">
<path d="M43.7067 26.8485C45.3714 28.472 46.6463 30.8157 46.7936 33.178C46.795 33.2968 46.7964 33.4157 46.7979 33.5381C46.7998 33.6742 46.8017 33.8103 46.8036 33.9505C46.8052 34.1692 46.8052 34.1692 46.8069 34.3924C46.8081 34.5449 46.8092 34.6974 46.8104 34.8546C46.8125 35.1778 46.814 35.5009 46.8152 35.8241C46.8168 36.1511 46.8198 36.4781 46.8242 36.805C46.8721 40.4279 46.2651 43.2497 43.7129 45.9852C43.3355 46.3722 42.9906 46.6916 42.5389 46.9928C42.4731 47.3744 42.4731 47.3744 42.4859 47.8207C42.4859 47.987 42.486 48.1534 42.4861 48.3248C42.4885 48.4994 42.4908 48.674 42.4933 48.8539C42.4928 49.0263 42.4923 49.1986 42.4918 49.3762C42.4969 50.2012 42.5104 50.8916 42.8308 51.6639C43.0712 51.8622 43.3144 52.0569 43.5607 52.2478C43.6253 52.4253 43.6253 52.4253 43.6913 52.6064C43.939 53.1763 44.3124 53.2905 44.8579 53.5439C45.5475 53.7922 46.2511 53.9085 46.9717 54.0337C47.578 54.1614 48.0958 54.3693 48.6481 54.6455C49.1031 54.7671 49.2781 54.6624 49.6915 54.4374C50.0681 54.1747 50.423 53.8899 50.7772 53.598C50.8797 53.5137 50.9822 53.4293 51.0879 53.3424C53.6546 51.1984 55.6175 48.7575 57.2325 45.8318C57.9327 44.5879 57.9327 44.5879 58.5868 44.3653C59.1331 44.3653 59.3502 44.4472 59.7637 44.8032C59.961 45.1892 59.961 45.1892 60.0556 45.679C59.9126 46.0904 59.7703 46.4162 59.5629 46.792C59.4815 46.9461 59.4815 46.9461 59.3983 47.1033C57.5774 50.484 54.818 53.816 51.6513 56.0254C51.4202 56.1832 51.4202 56.1832 51.2972 56.481C51.3823 56.5177 51.4673 56.5544 51.555 56.5922C53.3655 57.5955 54.4042 60.1527 54.9466 62.028C54.9736 62.116 55.0007 62.2041 55.0286 62.2948C55.3095 63.3393 55.2928 64.4075 55.2926 65.4811C55.2932 65.813 55.2986 66.1446 55.3041 66.4764C55.3133 67.672 55.2389 68.693 54.6546 69.7645C54.5911 69.882 54.5276 69.9995 54.4622 70.1205C53.7549 71.3632 52.5376 72.2172 51.1758 72.615C50.3915 72.7859 49.6385 72.8514 48.837 72.8504C48.7243 72.8509 48.6115 72.8513 48.4953 72.8517C48.1188 72.853 47.7424 72.8532 47.3659 72.8535C47.0954 72.8541 46.8248 72.8549 46.5543 72.8556C45.8202 72.8576 45.086 72.8585 44.3519 72.8592C43.8927 72.8596 43.4336 72.8602 42.9744 72.8608C41.5362 72.8628 40.0981 72.8642 38.6599 72.8648C37.0026 72.8655 35.3453 72.868 33.688 72.8722C32.4052 72.8754 31.1223 72.8769 29.8394 72.8771C29.0741 72.8772 28.3088 72.8781 27.5435 72.8807C26.8229 72.8831 26.1024 72.8834 25.3818 72.8821C25.1184 72.882 24.8551 72.8826 24.5917 72.8841C22.2727 72.8961 20.2911 72.676 18.4899 71.06C17.1445 69.6224 16.7905 67.7833 16.8021 65.8871C16.8031 65.6767 16.8031 65.6767 16.8042 65.4621C16.8458 62.9058 17.4519 59.818 19.3292 57.9407C19.3292 57.7962 19.3292 57.6517 19.3292 57.5028C19.0394 57.2763 19.0394 57.2763 18.6541 57.0649C16.1778 55.5481 13.9372 53.5308 12.1766 51.226C12.062 51.0862 11.9474 50.9464 11.8293 50.8023C8.22226 46.326 8.22226 46.326 8.37215 44.3653C8.52724 43.9273 8.52724 43.9273 8.76445 43.6445C9.25372 43.4256 9.60303 43.4232 10.1329 43.4894C10.7596 43.9695 11.0335 44.6504 11.3737 45.3414C12.3325 47.2216 13.4995 48.9426 14.9512 50.4796C15.2174 50.762 15.4616 51.0536 15.7073 51.3537C17.052 52.887 18.7551 54.1238 20.497 55.1672C20.5934 55.2294 20.6899 55.2916 20.7892 55.3557C21.0821 55.5285 21.3363 55.6627 21.6648 55.7511C22.1571 55.5906 22.1571 55.5906 22.5862 55.2402C23.6986 54.4685 24.7315 54.0516 26.0713 53.8535C27.4624 53.6463 28.2728 53.0941 29.1368 51.9832C29.9563 50.5419 29.9807 48.4468 29.6933 46.8468C29.3892 46.3538 29.1205 46.1395 28.6424 45.821C26.99 44.6572 26.0814 42.213 25.6946 40.3195C25.5104 39.1781 25.5359 38.0146 25.5409 36.8618C25.5422 36.4297 25.538 35.9979 25.5333 35.5658C25.5254 33.4678 25.7145 31.4736 26.7191 29.5855C26.7688 29.4899 26.8185 29.3943 26.8698 29.2958C28.1992 26.8407 30.4389 25.0803 33.0854 24.2119C33.5104 24.0996 33.932 24.0075 34.3644 23.9291C34.5222 23.898 34.5222 23.898 34.6832 23.8664C37.9789 23.3555 41.3251 24.5837 43.7067 26.8485ZM29.8849 29.1294C28.8592 30.3567 28.0088 32.0947 28.0876 33.7092C29.7486 34.6709 31.6712 34.5929 33.4869 34.1734C34.8671 33.7937 36.2097 33.1959 37.5062 32.5951C39.5241 31.6682 41.3271 32.2455 43.3899 32.7664C43.7241 32.8485 43.7241 32.8485 44.1446 32.8334C43.5918 30.3264 42.3436 28.6692 40.2033 27.2864C36.551 25.4033 32.7018 26.193 29.8849 29.1294ZM38.2236 34.8223C34.9665 36.399 31.6712 37.085 28.0876 36.3368C27.9919 39.3482 28.1382 41.578 30.1677 43.9547C31.5808 45.4573 33.4181 46.4735 35.506 46.5845C37.989 46.63 40.0802 46.0347 41.9185 44.27C43.6505 42.4629 44.4683 40.3765 44.4548 37.8786C44.4553 37.7746 44.4559 37.6707 44.4565 37.5635C44.4552 36.851 44.3908 36.1664 44.2906 35.4609C43.3131 35.1109 42.3293 34.8557 41.3164 34.6307C41.1728 34.5979 41.0292 34.565 40.8813 34.5312C39.7799 34.2833 39.2449 34.3116 38.2236 34.8223ZM32.1748 48.3065C32.1719 48.3873 32.169 48.4681 32.1661 48.5513C32.0588 51.398 32.0588 51.398 31.7369 52.6857C32.3255 53.1127 32.9169 53.5352 33.5116 53.9538C33.7478 54.1221 33.9803 54.2956 34.2122 54.4699C35.0326 55.0549 35.685 55.3329 36.7045 55.2659C37.5092 55.0827 38.0963 54.6396 38.7436 54.1454C38.9067 54.0251 39.07 53.9049 39.2334 53.7851C39.6577 53.472 40.0774 53.1533 40.4953 52.8317C40.4055 52.2514 40.4055 52.2514 40.2741 51.6797C40.1938 51.3305 40.1724 51.0023 40.1571 50.6444C40.151 50.5079 40.1449 50.3715 40.1386 50.231C40.1329 50.0896 40.1271 49.9483 40.1212 49.8027C40.1149 49.6592 40.1086 49.5156 40.1021 49.3677C40.0867 49.014 40.0718 48.6603 40.0573 48.3065C39.9444 48.3364 39.8315 48.3664 39.7152 48.3972C37.5929 48.9462 35.6898 49.0366 33.5484 48.5625C33.0919 48.4616 32.6366 48.3791 32.1748 48.3065ZM29.6477 55.0578C28.5847 55.8062 27.4897 56.144 26.2082 56.3076C24.0349 56.6372 22.0717 58.1277 20.7673 59.848C20.4422 60.3632 20.1797 60.8885 19.9314 61.4441C19.8895 61.5375 19.8477 61.6309 19.8046 61.7272C19.2564 63.0345 19.1304 64.3434 19.1285 65.7503C19.1249 65.8916 19.1214 66.0329 19.1177 66.1785C19.1131 67.322 19.3232 68.3257 20.0437 69.2393C20.9919 69.9983 21.6992 70.3713 22.9403 70.3581C23.1114 70.3567 23.2825 70.3553 23.4588 70.3538C23.6546 70.3511 23.6546 70.3511 23.8544 70.3484C23.8573 70.1642 23.8602 69.98 23.8631 69.7902C23.8742 69.1085 23.8872 68.4268 23.9007 67.745C23.9063 67.4497 23.9114 67.1543 23.916 66.8589C23.9226 66.435 23.9311 66.0111 23.9399 65.5872C23.9416 65.4546 23.9433 65.322 23.945 65.1854C23.9479 65.0626 23.9508 64.9399 23.9538 64.8135C23.9558 64.7052 23.9577 64.5969 23.9597 64.4854C24.0003 64.2175 24.0003 64.2175 24.2923 63.9256C24.9074 63.7206 25.3093 63.8173 25.898 64.0716C26.8347 65.945 26.1389 68.2545 26.1899 70.3484C32.7894 70.3484 39.3888 70.3484 46.1882 70.3484C46.2364 68.4216 46.2845 66.4947 46.3342 64.5095C46.3823 64.3168 46.4305 64.1241 46.4801 63.9256C47.1604 63.7922 47.6172 63.7203 48.2318 64.0716C48.5247 64.5109 48.561 64.6022 48.5703 65.0952C48.5747 65.2705 48.5747 65.2705 48.5791 65.4493C48.5816 65.6375 48.5816 65.6375 48.5842 65.8295C48.5884 66.023 48.5884 66.023 48.5928 66.2204C48.6015 66.6323 48.6083 67.0443 48.615 67.4563C48.6206 67.7356 48.6263 68.0149 48.6321 68.2942C48.6461 68.9789 48.6584 69.6636 48.6697 70.3484C49.9533 70.3949 50.8594 70.2515 51.86 69.3836C52.807 68.3642 52.9817 67.2391 52.9668 65.8962C52.965 65.6847 52.965 65.6847 52.9631 65.4689C52.901 62.7996 51.9983 60.3656 50.0941 58.4602C49.5558 57.9608 49.0232 57.5596 48.3778 57.2108C48.2636 57.1471 48.1494 57.0833 48.0317 57.0175C47.0891 56.5398 46.1324 56.3094 45.1 56.1188C43.9915 55.9039 43.1009 55.4765 42.2469 54.7293C41.3866 55.0037 40.713 55.5814 39.9975 56.1132C38.6156 57.1166 37.2582 57.6534 35.5322 57.5028C33.8215 57.1808 32.5014 56.1303 31.1404 55.1099C30.3833 54.5155 30.3833 54.5155 29.6477 55.0578Z" fill="white"/>
<path d="M26.8974 0.828267C27.519 0.991817 28.142 1.1497 28.7647 1.30858C29.5525 1.50985 30.3398 1.71272 31.1255 1.92194C31.7646 2.09196 32.4051 2.25605 33.0467 2.41649C33.2883 2.47801 33.5294 2.54157 33.7698 2.60739C35.4748 3.07251 36.7358 3.05903 38.4315 2.56112C38.8236 2.44782 39.2189 2.35249 39.6159 2.25789C39.9953 2.16725 40.3735 2.07182 40.7518 1.97667C41.0563 1.90016 41.3609 1.82422 41.6656 1.74843C42.5294 1.53349 43.393 1.31804 44.2563 1.10116C44.7901 0.967106 45.3241 0.834049 45.8583 0.701628C46.0597 0.651487 46.2611 0.600973 46.4624 0.550067C46.7424 0.479273 47.0227 0.409862 47.3031 0.340508C47.4618 0.300778 47.6205 0.261048 47.784 0.220115C48.4686 0.0905784 48.9264 0.0145562 49.5182 0.409076C49.952 0.830503 49.98 0.928263 50.006 1.5457C50.0086 1.78118 50.0105 2.01667 50.0117 2.25216C50.0135 2.44481 50.0135 2.44481 50.0153 2.64135C50.0189 3.06751 50.0213 3.49366 50.0234 3.91983C50.0242 4.06521 50.025 4.21058 50.0258 4.36036C50.0297 5.12973 50.0325 5.8991 50.0346 6.66847C50.0371 7.46371 50.0436 8.25885 50.051 9.05404C50.0559 9.66503 50.0576 10.276 50.0584 10.887C50.0594 11.1801 50.0617 11.4733 50.0651 11.7664C50.0698 12.1767 50.0698 12.5868 50.0687 12.9971C50.0711 13.1182 50.0735 13.2394 50.0759 13.3642C50.0693 13.9763 50.0375 14.2238 49.6552 14.726C49.2792 15.0056 49.0308 15.1487 48.5819 15.2608C48.4521 15.2945 48.3224 15.3283 48.1887 15.363C48.049 15.3966 47.9093 15.4302 47.7654 15.4648C47.6181 15.5024 47.4709 15.54 47.3191 15.5787C46.8393 15.7005 46.3587 15.8188 45.878 15.9369C45.5475 16.02 45.217 16.1033 44.8865 16.1868C44.2234 16.3541 43.56 16.5202 42.8964 16.6855C42.0546 16.8961 41.2152 17.1148 40.3767 17.3379C40.1422 17.3999 39.9076 17.462 39.6731 17.5239C39.349 17.6097 39.0249 17.6957 38.7011 17.7829C38.4081 17.8617 38.1146 17.9387 37.821 18.0153C37.6596 18.0583 37.4981 18.1012 37.3317 18.1455C36.3586 18.3268 35.5363 18.2371 34.5841 17.9907C34.4304 17.9515 34.4304 17.9515 34.2736 17.9115C33.938 17.8256 33.603 17.7378 33.2679 17.6498C33.032 17.5889 32.796 17.5281 32.56 17.4675C32.0662 17.3402 31.5726 17.212 31.0792 17.0831C30.4521 16.9192 29.8245 16.757 29.1968 16.5953C28.5922 16.4395 27.9878 16.2829 27.3834 16.1262C27.2142 16.0825 27.2142 16.0825 27.0416 16.0379C26.3186 15.8506 25.5969 15.6586 24.8762 15.4625C24.6907 15.4128 24.5052 15.3631 24.3141 15.3119C24.1438 15.2636 23.9735 15.2153 23.7981 15.1656C23.5754 15.1034 23.5754 15.1034 23.3483 15.04C22.8989 14.8438 22.7547 14.7376 22.5406 14.2947C22.4974 13.8547 22.4793 13.4449 22.4817 13.0049C22.4807 12.8748 22.4797 12.7447 22.4786 12.6106C22.476 12.1805 22.4765 11.7506 22.4774 11.3205C22.4767 11.0217 22.4759 10.7228 22.475 10.424C22.4737 9.79765 22.4741 9.17137 22.4755 8.54506C22.4772 7.74197 22.4743 6.93898 22.47 6.13591C22.4673 5.51879 22.4674 4.9017 22.4682 4.28458C22.4682 3.98846 22.4673 3.69233 22.4655 3.39621C22.4634 2.98243 22.4649 2.56882 22.4674 2.15505C22.466 2.03249 22.4646 1.90993 22.4631 1.78365C22.4699 1.24782 22.488 0.934055 22.8189 0.501805C23.9321 -0.301207 25.6703 0.503633 26.8974 0.828267ZM25.0222 3.05483C25.0222 6.28229 25.0222 9.50974 25.0222 12.835C25.7834 13.0887 26.5047 13.3288 27.2757 13.5236C27.4504 13.568 27.6251 13.6124 27.8051 13.6582C27.9843 13.7032 28.1635 13.7483 28.3482 13.7947C28.5162 13.8373 28.6842 13.8799 28.8572 13.9238C29.4794 14.0814 30.1018 14.2382 30.7242 14.3951C32.1182 14.7473 33.5121 15.0996 34.9483 15.4625C34.9483 12.1387 34.9483 8.81491 34.9483 5.39039C32.8057 4.7922 32.8057 4.7922 30.653 4.23801C30.5126 4.2034 30.3723 4.16879 30.2277 4.13314C29.9372 4.06169 29.6467 3.99046 29.3562 3.91944C28.9115 3.81052 28.4672 3.70026 28.0229 3.58997C27.7379 3.52004 27.4529 3.45018 27.1679 3.38042C27.0362 3.34759 26.9045 3.31475 26.7689 3.28092C26.6459 3.25113 26.5229 3.22134 26.3962 3.19065C26.2891 3.16432 26.1819 3.138 26.0715 3.11088C25.6863 3.03381 25.6863 3.03381 25.0222 3.05483ZM46.4597 3.12094C46.3662 3.14348 46.2726 3.16603 46.1763 3.18926C45.8657 3.2642 45.5551 3.3394 45.2445 3.41463C45.0294 3.46665 44.8143 3.51866 44.5993 3.57067C44.1478 3.67989 43.6963 3.78926 43.2449 3.8987C42.6655 4.03912 42.0861 4.17906 41.5067 4.31887C41.0622 4.4262 40.6178 4.53385 40.1734 4.64158C39.9598 4.69332 39.7461 4.74495 39.5324 4.79645C39.2339 4.86845 38.9354 4.94089 38.637 5.01345C38.467 5.05462 38.2969 5.09579 38.1217 5.1382C37.7309 5.22755 37.7309 5.22755 37.4299 5.39039C37.4299 8.71419 37.4299 12.038 37.4299 15.4625C39.7195 14.8935 39.7195 14.8935 42.0554 14.313C42.777 14.1341 42.777 14.1341 43.5132 13.9515C43.8946 13.8565 44.2759 13.7615 44.6572 13.6664C44.8051 13.6298 44.8051 13.6298 44.9559 13.5926C45.248 13.5203 45.5398 13.4475 45.8317 13.3745C45.996 13.3336 46.1604 13.2928 46.3297 13.2507C46.8272 13.1201 46.8272 13.1201 47.502 12.835C47.502 9.55937 47.502 6.28375 47.502 2.90886C47.1573 2.90886 46.7903 3.04108 46.4597 3.12094Z" fill="#FFAC09"/>
<path d="M15.0961 27.2864C15.5357 27.6821 15.6657 27.9206 15.7531 28.5072C15.7531 28.6944 15.7532 28.8816 15.7532 29.0745C15.7544 29.2302 15.7544 29.2302 15.7556 29.3891C15.7574 29.731 15.755 30.0727 15.7524 30.4145C15.7524 30.6532 15.7526 30.8919 15.753 31.1306C15.7532 31.6305 15.7514 32.1304 15.7481 32.6303C15.7439 33.2692 15.7443 33.908 15.7462 34.5469C15.7472 35.0398 15.7461 35.5327 15.7442 36.0256C15.7436 36.2611 15.7435 36.4966 15.7441 36.732C15.7445 37.0621 15.7421 37.3921 15.7389 37.7222C15.7382 37.9096 15.7374 38.0971 15.7366 38.2902C15.6331 39.2553 15.2717 39.9454 14.5122 40.5699C13.5413 41.291 12.4703 41.2863 11.3008 41.1538C10.248 40.8723 9.58842 40.1203 9.05645 39.2014C8.82119 38.2133 8.90316 37.3792 9.40314 36.4827C9.9999 35.7917 10.5607 35.3904 11.4468 35.1689C11.9766 35.1689 12.5065 35.1689 13.0525 35.1689C13.1006 33.4829 13.1488 31.7969 13.1984 30.0599C12.6445 30.2375 12.0905 30.4151 11.5197 30.5981C11.0185 30.7584 10.5173 30.9185 10.016 31.0785C9.61122 31.2078 9.20667 31.3377 8.80214 31.4677C8.59498 31.5337 8.38781 31.5997 8.18062 31.6656C8.00186 31.7228 7.8231 31.78 7.63892 31.8389C7.21355 31.9575 7.21355 31.9575 6.77563 31.9575C6.7766 32.0698 6.77757 32.1821 6.77858 32.2978C6.78738 33.3607 6.79403 34.4236 6.79832 35.4866C6.8006 36.0329 6.80368 36.5793 6.80867 37.1256C6.81346 37.6537 6.81605 38.1819 6.81718 38.71C6.81798 38.9106 6.81955 39.1112 6.82193 39.3118C6.8504 41.8127 6.8504 41.8127 6.07028 42.8091C4.93126 43.728 3.99896 43.9003 2.54242 43.7813C1.59757 43.6054 0.927532 43.0827 0.352831 42.3216C-0.0447323 41.5171 -0.0475641 40.719 0.0608854 39.84C0.395481 38.8907 1.07574 38.3727 1.95853 37.9424C2.4581 37.7759 2.84703 37.7821 3.37264 37.7873C3.54481 37.7886 3.71699 37.7899 3.89438 37.7913C4.09224 37.7938 4.09224 37.7938 4.29409 37.7964C4.29247 37.7106 4.29085 37.6247 4.28918 37.5363C4.27301 36.6412 4.26202 35.7462 4.254 34.8509C4.25034 34.5171 4.24536 34.1832 4.23903 33.8494C4.23016 33.3689 4.22603 32.8885 4.22282 32.408C4.21905 32.2592 4.21528 32.1105 4.2114 31.9572C4.21115 31.3115 4.24994 30.8805 4.53522 30.2943C5.19748 29.6434 6.20971 29.4679 7.07613 29.2165C7.27923 29.1555 7.48227 29.0942 7.68525 29.0327C8.10962 28.9048 8.53454 28.7791 8.95998 28.6548C9.50402 28.4959 10.0467 28.3326 10.589 28.1679C11.0077 28.0411 11.427 27.9162 11.8464 27.7919C12.0467 27.7324 12.2468 27.6724 12.4468 27.6118C12.7267 27.5275 13.0075 27.446 13.2882 27.3645C13.4474 27.3176 13.6066 27.2706 13.7707 27.2223C14.2803 27.1295 14.6018 27.1289 15.0961 27.2864ZM11.4468 37.9424C11.4468 38.1351 11.4468 38.3278 11.4468 38.5263C11.8346 38.7799 12.0155 38.8194 12.4868 38.7817C12.922 38.706 12.922 38.706 13.1984 38.3803C13.1393 37.9742 13.1393 37.9742 12.9065 37.6504C12.0901 37.5556 12.0901 37.5556 11.4468 37.9424ZM2.54242 40.4239C2.49425 40.5684 2.44608 40.713 2.39645 40.8618C2.64188 41.1589 2.81606 41.293 3.18105 41.4275C3.67369 41.4509 3.89954 41.2896 4.29409 41.0078C4.26567 40.7232 4.26567 40.7232 4.14812 40.4239C3.57324 40.0407 3.12105 40.0575 2.54242 40.4239Z" fill="#FFAC09"/>
<path d="M56.3255 28.4328C56.5143 28.432 56.5143 28.432 56.7068 28.4313C57.1234 28.4299 57.54 28.4296 57.9566 28.4294C58.2459 28.429 58.5351 28.4285 58.8244 28.428C59.4309 28.4271 60.0375 28.4268 60.644 28.4269C61.4217 28.4269 62.1994 28.4249 62.9771 28.4224C63.5746 28.4208 64.172 28.4205 64.7695 28.4206C65.0562 28.4204 65.343 28.4198 65.6297 28.4186C66.0305 28.4172 66.4313 28.4176 66.8321 28.4185C66.9508 28.4177 67.0695 28.4169 67.1918 28.416C68.2713 28.4221 68.2713 28.4221 68.6679 28.7459C69.0208 29.3518 69.0013 29.977 68.9977 30.6592C68.9982 30.7763 68.9987 30.8934 68.9992 31.0141C69.0005 31.4 68.9996 31.7858 68.9987 32.1717C68.9989 32.4405 68.9991 32.7094 68.9995 32.9782C68.9999 33.5412 68.9993 34.1042 68.9979 34.6671C68.9963 35.3882 68.9972 36.1092 68.999 36.8303C69 37.3853 68.9997 37.9403 68.999 38.4953C68.9988 38.7612 68.999 39.027 68.9997 39.2929C69.0004 39.6646 68.9993 40.0363 68.9977 40.408C68.9983 40.5176 68.9988 40.6271 68.9995 40.7399C68.9933 41.5032 68.9265 42.0628 68.376 42.6133C67.9482 42.6446 67.5341 42.6577 67.1059 42.658C66.9744 42.6593 66.8429 42.6605 66.7074 42.6617C66.2711 42.6652 65.8347 42.6665 65.3984 42.6675C65.0958 42.6688 64.7933 42.6701 64.4907 42.6715C63.8558 42.6739 63.2209 42.675 62.586 42.6754C61.7718 42.6762 60.9576 42.6817 60.1434 42.6884C59.5183 42.6927 58.8932 42.6938 58.2681 42.6939C57.9679 42.6945 57.6677 42.6964 57.3675 42.6994C56.9477 42.7033 56.5282 42.7026 56.1084 42.7008C55.9218 42.7041 55.9218 42.7041 55.7315 42.7074C55.1585 42.7002 54.8896 42.6842 54.4314 42.3194C54.1556 41.7595 54.1358 41.2705 54.1434 40.6598C54.1422 40.4777 54.1422 40.4777 54.141 40.292C54.1392 39.8918 54.1416 39.4919 54.1442 39.0917C54.1442 38.8131 54.144 38.5344 54.1436 38.2557C54.1434 37.6721 54.1452 37.0886 54.1485 36.505C54.1527 35.7574 54.1523 35.0099 54.1504 34.2623C54.1494 33.687 54.1505 33.1117 54.1524 32.5364C54.153 32.2608 54.1531 31.9852 54.1525 31.7095C54.1521 31.3241 54.1545 30.9388 54.1577 30.5535C54.157 30.4398 54.1563 30.3262 54.1557 30.2092C54.1646 29.5539 54.2354 29.114 54.6546 28.5999C55.2145 28.4133 55.7421 28.4324 56.3255 28.4328ZM56.6982 30.9355C56.6982 34.0184 56.6982 37.1014 56.6982 40.2778C59.9256 40.2778 63.1531 40.2778 66.4784 40.2778C66.4784 37.1948 66.4784 34.1119 66.4784 30.9355C63.2509 30.9355 60.0234 30.9355 56.6982 30.9355Z" fill="#FFAC09"/>
<path d="M19.3293 10.0616C19.6136 10.286 19.7465 10.4404 19.8664 10.7835C19.9014 11.1745 19.8884 11.4372 19.7672 11.8133C19.293 12.3331 18.7319 12.7189 18.1615 13.1271C16.5538 14.3904 15.1824 15.7442 13.9283 17.3603C13.7598 17.5722 13.7598 17.5722 13.5879 17.7885C11.8775 20.0098 10.6367 22.6176 9.76027 25.2696C9.71881 25.3943 9.67734 25.5191 9.63462 25.6476C9.60006 25.7567 9.56551 25.8657 9.52991 25.978C9.38764 26.2996 9.23288 26.4769 8.96519 26.7025C8.57379 26.8466 8.21258 26.8865 7.79741 26.8485C7.35949 26.5657 7.35949 26.5657 7.06755 26.1186C6.99102 25.1973 7.16446 24.4809 7.4781 23.6188C7.52301 23.4937 7.56792 23.3685 7.6142 23.2396C8.82158 19.9934 14.7325 8.73564 19.3293 10.0616Z" fill="white"/>
<path d="M54.3627 12.8349C54.7094 13.1359 54.7094 13.1359 55.0925 13.5647C55.2131 13.6765 55.2131 13.6765 55.336 13.7905C56.8961 15.2445 58.1377 17.1182 59.1798 18.9657C59.2373 19.0671 59.2949 19.1684 59.3542 19.2728C60.0747 20.5546 60.7212 21.8498 61.2416 23.2263C61.2847 23.338 61.3278 23.4497 61.3723 23.5648C61.6366 24.2991 61.7213 24.8998 61.6613 25.6805C61.4332 26.0545 61.4332 26.0545 61.0774 26.2643C60.5393 26.2643 60.1988 26.2263 59.7642 25.8988C59.3546 25.3887 59.1742 24.8404 58.9517 24.2299C57.7517 21.1021 56.1044 18.4448 53.9042 15.9373C53.8367 15.8601 53.7691 15.7828 53.6995 15.7032C53.5487 15.5324 53.3963 15.3629 53.2429 15.1944C53.1634 15.1056 53.084 15.0168 53.0022 14.9252C52.9295 14.8453 52.8569 14.7653 52.782 14.683C52.611 14.4406 52.611 14.4406 52.5198 13.9023C52.6243 13.3484 52.753 13.1728 53.1949 12.8349C53.6342 12.6152 53.8947 12.7064 54.3627 12.8349Z" fill="white"/>
<path d="M60.2017 31.9575C60.5956 32.1097 60.9659 32.2983 61.3398 32.4941C61.4442 32.5475 61.5487 32.601 61.6563 32.6561C61.8755 32.7689 62.0943 32.8824 62.3128 32.9967C62.6467 33.1709 62.9821 33.3419 63.3179 33.5127C63.5314 33.6231 63.7448 33.7336 63.9582 33.8443C64.0581 33.8951 64.158 33.9459 64.2609 33.9983C64.7807 34.2727 65.1603 34.5073 65.4567 35.0229C65.5251 35.3149 65.5251 35.3149 65.5297 35.6068C65.5342 35.7032 65.5387 35.7995 65.5434 35.8988C65.3674 36.4913 64.7438 36.7649 64.2337 37.0553C64.0479 37.152 63.8616 37.2477 63.6748 37.3425C63.5749 37.3935 63.475 37.4445 63.3721 37.4971C63.1617 37.6041 62.9511 37.7105 62.7402 37.8165C62.42 37.9782 62.1016 38.1433 61.7831 38.3084C61.5775 38.4124 61.3718 38.5162 61.1659 38.6198C61.0251 38.6937 61.0251 38.6937 60.8815 38.769C60.1875 39.111 59.6618 39.2173 58.8879 39.1102C58.5041 38.8072 58.3415 38.5843 58.2524 38.0991C58.2265 37.7608 58.2231 37.4285 58.2265 37.0893C58.2259 36.9658 58.2254 36.8422 58.2248 36.7148C58.2244 36.4542 58.2255 36.1936 58.2279 35.933C58.231 35.5351 58.2279 35.1375 58.2242 34.7395C58.2246 34.4858 58.2253 34.232 58.2265 33.9783C58.2253 33.8598 58.2241 33.7414 58.2229 33.6193C58.2325 33.0381 58.2622 32.753 58.5826 32.2509C59.1408 31.7146 59.4561 31.8046 60.2017 31.9575ZM60.7856 35.1689C60.7856 35.4098 60.7856 35.6506 60.7856 35.8988C61.0264 35.8024 61.2673 35.7061 61.5154 35.6068C61.1851 35.3034 61.1851 35.3034 60.7856 35.1689Z" fill="#FFAC09"/>
</svg>
