<svg width="84" height="58" viewBox="0 0 84 58" fill="none" xmlns="http://www.w3.org/2000/svg">
<path d="M1.77924 17C2.77449 17.2019 2.77449 17.2019 3.70943 17.4615C3.6634 17.9304 3.61737 18.3992 3.56994 18.8822C2.95768 25.7981 3.57226 32.3577 8.23331 38.0288C8.48586 38.3055 8.7384 38.5822 8.9986 38.8672C9.16406 39.1141 9.32952 39.361 9.5 39.6154C9.34076 40.0723 9.18152 40.5292 9.01745 41C7.54589 40.853 6.79116 40.7119 5.71502 39.7109C0.956533 33.1309 -0.366716 26.4252 1.02149 18.6082C1.29669 17.4615 1.29669 17.4615 1.77924 17Z" fill="#FFAC09"/>
<path d="M33.0677 0C37.7835 0.255316 41.2154 2.41119 44.6517 5.55267C47.4009 8.65275 49.398 12.496 50.5977 16.4333C50.7584 14.6788 50.9191 12.9243 51.0847 11.1167C51.7274 10.9572 52.3702 10.7977 53.0324 10.6333C59.4333 17.7809 62.8551 27.0362 62.4708 36.5823C62.004 43.1682 59.1459 47.5703 54.2593 51.8092C52.926 52.7592 51.629 53.3403 50.1108 53.9521C48.7719 54.4631 48.7719 54.4631 47.676 55.1C47.0041 56.6225 47.0041 56.6226 47.1891 58C46.3856 57.8405 45.5822 57.681 44.7544 57.5167C44.2378 49.8986 44.2378 49.8986 45.3764 47.5139C46.5542 46.2044 47.8328 45.19 49.2567 44.1551C51.3057 42.5032 51.3057 42.5032 52.2281 40.1108C52.3956 37.6849 52.258 35.2868 52.0585 32.8667C50.5312 32.3697 49.7057 32.3863 48.2162 32.9705C47.871 33.1029 47.5258 33.2353 47.1701 33.3717C46.8148 33.5141 46.4595 33.6564 46.0935 33.8031C45.7307 33.9436 45.3679 34.0841 44.994 34.2289C44.1007 34.5756 43.2099 34.9288 42.3197 35.2833C42.8017 36.0011 42.8017 36.0011 43.2935 36.7333C43.7756 36.6636 44.2577 36.5938 44.7544 36.5219C46.6993 36.2455 48.6477 36.0044 50.5977 35.7667C50.7584 36.4047 50.9191 37.0427 51.0847 37.7C49.7955 38.406 49.1883 38.6667 47.676 38.6667C47.676 39.7832 47.676 40.8997 47.676 42.05C47.2712 42.1908 46.8663 42.3316 46.4492 42.4767C43.0303 43.5601 43.0303 43.5601 40.7371 46.0677C40.6166 46.4964 40.496 46.925 40.3719 47.3667C39.7291 47.2072 39.0863 47.0477 38.4241 46.8833C38.6595 43.8457 38.6595 43.8457 39.7023 42.4125C41.1615 41.3453 42.5763 40.7623 44.2674 40.1167C43.9975 40.0051 43.7276 39.8936 43.4495 39.7787C40.5322 38.4752 40.5322 38.4752 39.6415 36.8542C39.5611 36.4953 39.4808 36.1364 39.398 35.7667C38.9159 35.7667 38.4338 35.7667 37.9371 35.7667C37.6158 36.5642 37.2944 37.3617 36.9633 38.1833C35.1957 38.1833 33.428 38.1833 31.6069 38.1833C31.1248 36.1098 30.6427 34.0363 30.146 31.9C29.9853 31.9 29.8246 31.9 29.6591 31.9C29.6021 33.6822 29.5678 35.4641 29.5374 37.2469C29.521 37.7487 29.5047 38.2506 29.4879 38.7677C29.3931 41.9039 29.3931 41.9039 30.633 44.6932C32.2256 47.008 31.8123 49.7181 31.7286 52.4115C31.7198 52.9495 31.711 53.4875 31.702 54.0418C31.6791 55.3616 31.6472 56.6806 31.6069 58C30.8034 57.8405 30 57.681 29.1721 57.5167C29.1721 55.9217 29.1721 54.3267 29.1721 52.6833C28.675 52.5488 28.675 52.5488 28.1678 52.4115C23.8514 50.3148 21.1631 45.7226 19.5246 41.3854C17.8325 35.6971 18.2556 30.0516 20.6506 24.65C22.9557 19.4463 22.9802 14.2835 22.8419 8.7C23.98 8.30914 24.6 8.15672 25.7635 8.52441C27.6872 9.52761 29.1384 10.4857 30.633 12.0833C30.9544 12.0833 31.2757 12.0833 31.6069 12.0833C33.6258 8.58056 33.1449 3.92348 33.0677 0ZM35.5024 2.9C35.5225 3.51806 35.5426 4.13612 35.5633 4.77292C35.5515 8.48362 35.1675 12.1305 32.5808 14.9833C30.9982 15.6479 30.9982 15.6479 29.6591 15.95C29.5486 15.5911 29.4381 15.2322 29.3243 14.8625C28.5591 13.2711 27.7113 12.5788 26.2505 11.6C25.9291 11.6 25.6077 11.6 25.2766 11.6C25.2879 11.8816 25.2992 12.1632 25.3108 12.4534C25.4192 17.3419 24.6237 21.6038 22.8114 26.1302C20.6891 31.4716 20.2865 36.1484 22.4481 41.5723C23.985 44.8851 25.8192 47.4749 28.6852 49.7833C28.8459 49.7833 29.0066 49.7833 29.1721 49.7833C28.9398 47.3837 28.9398 47.3837 27.9491 45.22C26.8513 42.6146 26.9746 40.103 26.9809 37.3073C26.9671 36.7575 26.9533 36.2076 26.939 35.6411C26.931 32.1908 27.2752 29.2538 29.6591 26.5833C30.6852 26.0661 31.5687 25.764 32.693 25.5336C33.8916 25.0956 33.8916 25.0956 34.5285 22.7167C40.1528 22.7167 45.777 22.7167 51.5716 22.7167C51.8126 26.3054 51.8126 26.3054 52.0585 29.9667C52.862 30.7642 53.6655 31.5617 54.4933 32.3833C54.8238 33.4837 54.8238 33.4837 54.8509 34.598C54.8609 35.0069 54.871 35.4157 54.8813 35.837C54.8738 36.2624 54.8662 36.6878 54.8585 37.126C54.8535 37.562 54.8484 37.998 54.8433 38.4472C54.7476 40.7721 54.6365 42.5309 53.0324 44.3458C52.401 44.8905 51.7505 45.4139 51.0847 45.9167C50.3546 46.5808 49.6342 47.2557 48.9238 47.9406C48.593 48.2366 48.2622 48.5325 47.9214 48.8374C47 50.0276 47.0438 50.7346 47.1891 52.2C51.9614 50.9854 55.2866 48.0253 57.9019 43.9833C60.7605 38.757 60.583 31.7982 58.969 26.1793C56.8978 20.6599 56.8978 20.6599 53.5194 15.95C53.0373 16.907 52.5552 17.864 52.0585 18.85C51.0944 18.85 50.1302 18.85 49.1369 18.85C49.0302 18.5977 48.9235 18.3453 48.8135 18.0854C46.2768 12.2409 43.5866 6.34737 37.4198 3.59479C36.7847 3.35236 36.147 3.11628 35.5024 2.9ZM35.9894 24.65C36.1985 27.6714 36.4831 30.4703 37.4502 33.35C37.9323 33.35 38.4144 33.35 38.911 33.35C38.911 30.479 38.911 27.608 38.911 24.65C37.9469 24.65 36.9827 24.65 35.9894 24.65ZM41.3458 24.65C41.3458 27.3615 41.3458 30.073 41.3458 32.8667C42.1492 32.5477 42.9527 32.2287 43.7805 31.9C43.7805 29.5075 43.7805 27.115 43.7805 24.65C42.977 24.65 42.1736 24.65 41.3458 24.65ZM46.2152 24.65C46.2152 26.7235 46.2152 28.797 46.2152 30.9333C47.3401 30.4548 48.4649 29.9763 49.6238 29.4833C49.6238 27.8883 49.6238 26.2933 49.6238 24.65C48.499 24.65 47.3741 24.65 46.2152 24.65ZM31.1199 28.0333C30.7629 29.0073 30.7629 29.0073 30.633 29.9667C31.2757 29.9667 31.9185 29.9667 32.5808 29.9667C32.9021 31.8807 33.2235 33.7947 33.5546 35.7667C34.0367 35.7667 34.5188 35.7667 35.0155 35.7667C34.6718 31.6407 34.6718 31.6407 34.0416 27.55C32.5551 27.4736 32.5551 27.4736 31.1199 28.0333Z" fill="white"/>
<path d="M71.5 7.5C72.9902 7.65272 73.7538 7.78417 74.824 8.84941C81.1301 18.1317 85.0057 28.5293 82.9424 39.7651C81.8587 43.4841 80.0999 48.0317 76.8982 50.5C76.2504 50.5 75.6026 50.5 74.9352 50.5C75.2027 48.6726 75.6667 47.6059 76.8062 46.1517C80.717 40.5109 81.164 33.8428 80.0267 27.2712C78.7519 21.1129 75.8329 15.3108 72.0061 10.3007C71.5 9.43258 71.5 9.43258 71.5 7.5Z" fill="#FFAC09"/>
</svg>
