<svg width="49" height="49" viewBox="0 0 49 49" fill="none" xmlns="http://www.w3.org/2000/svg">
<path d="M4.6121 0.176617C2.78335 0.767578 1.29556 2.46659 0.727302 4.60883C0.5 5.47065 0.5 5.51989 0.5 14.3966C0.5 23.2733 0.5 23.3226 0.727302 24.1844C1.29556 26.3513 2.79368 28.038 4.65342 28.6166C5.04604 28.7397 5.74861 28.8013 6.7198 28.8013H8.19727V32.975V37.1486L8.46589 37.5303C8.74486 37.9243 9.25112 38.1212 9.6644 37.9735C9.78838 37.9243 11.6275 35.8436 13.7352 33.332L17.5683 28.789L18.3845 28.8259L19.2007 28.8629L19.2524 32.2486C19.3041 35.4004 19.3247 35.6835 19.552 36.3361C20.0583 37.8873 20.9778 39.1308 22.1557 39.8818C23.2818 40.5959 23.5091 40.6205 28.4891 40.6205H33.0455L36.3517 44.5603C39.4926 48.303 39.6889 48.5 40.0402 48.5C40.5464 48.5 40.8771 48.303 41.0837 47.8844C41.2387 47.5889 41.2593 47.0842 41.2593 44.0801V40.6205H42.7368C43.7183 40.6205 44.4106 40.559 44.8135 40.4358C46.6423 39.8695 48.1197 38.2197 48.719 36.0775C48.9463 35.2896 48.9463 35.0926 48.9876 28.1857C49.0289 20.1092 48.9979 19.6291 48.3987 18.1517C47.7374 16.5142 46.7662 15.4554 45.2888 14.766L44.6172 14.4582L39.069 14.4212L33.5104 14.3843V9.98904C33.5104 5.12592 33.4794 4.76888 32.8595 3.38997C32.4359 2.42966 31.4647 1.27236 30.6588 0.767578C29.3777 -0.0449905 30.0286 -0.00805664 16.9794 0.00425339C7.15374 0.00425339 5.05637 0.0411911 4.6121 0.176617ZM29.4397 2.97137C30.2249 3.46384 30.5452 3.83319 30.9378 4.69501L31.2891 5.47065V14.3966V23.3226L30.9378 24.0982C30.5452 24.96 30.2249 25.3294 29.4397 25.8219L28.9127 26.1543L22.9202 26.1789C19.6243 26.2035 16.8141 26.2528 16.6694 26.2897C16.5144 26.3266 15.2023 27.7917 13.3942 29.9463L10.367 33.529V30.3649C10.367 27.0284 10.3153 26.6344 9.88136 26.3882C9.77805 26.3266 8.67253 26.2528 7.42237 26.2158C5.20101 26.1543 5.13902 26.142 4.56044 25.8096C3.91986 25.4402 3.37227 24.7877 3.01065 23.9751L2.77302 23.4457L2.74202 14.6675C2.72136 8.86867 2.75235 5.72919 2.82468 5.40909C2.95899 4.7935 3.50658 3.85781 3.98185 3.40228C4.18849 3.2053 4.6121 2.93444 4.91172 2.81132C5.42832 2.58971 6.02757 2.58971 17.186 2.61433L28.9127 2.63896L29.4397 2.97137ZM44.7825 17.3637C45.4954 17.77 46.0947 18.4595 46.4356 19.272L46.6836 19.8753V27.5701V35.2649L46.446 35.7943C46.0843 36.6069 45.5368 37.2594 44.8962 37.6288C44.3176 37.9612 44.2659 37.9735 42.0342 38.0351C39.6166 38.0966 39.4306 38.1459 39.2033 38.7368C39.131 38.9215 39.0896 40.0049 39.0896 41.4823C39.0896 42.8366 39.0587 43.9447 39.0173 43.9447C38.9657 43.9447 37.8292 42.6273 36.486 41.0268L34.027 38.0966L28.9334 38.0351L23.8501 37.9735L23.3232 37.6411C22.5379 37.1486 22.2177 36.7793 21.825 35.9175L21.4738 35.1418L21.4428 31.9654L21.4118 28.8013H25.1106C28.1068 28.8013 28.9334 28.7644 29.4293 28.6166C31.2994 28.038 32.8698 26.1666 33.3554 23.9382C33.4691 23.3718 33.5104 22.4977 33.5104 20.1831C33.5104 18.5087 33.5414 17.1052 33.5827 17.0559C33.6241 17.0067 36.0314 16.9821 38.9347 17.0067L44.2039 17.0436L44.7825 17.3637Z" fill="white"/>
<path d="M7.546 8.11779C7.15339 8.48715 7.00874 9.10273 7.20505 9.63213C7.50467 10.5063 6.97775 10.457 17.0307 10.457C25.2962 10.457 26.1124 10.4447 26.3811 10.2477C26.9803 9.82912 27.0836 8.81956 26.598 8.2286L26.2984 7.87156H17.0514C7.94895 7.87156 7.8043 7.87156 7.546 8.11779Z" fill="#FFAC09"/>
<path d="M7.7117 13.2394C7.41208 13.4241 7.06079 14.0397 7.06079 14.3967C7.06079 14.4829 7.13311 14.7291 7.2261 14.9507C7.55672 15.7879 7.10212 15.751 16.9691 15.751C26.5468 15.751 26.3504 15.7633 26.7327 15.1231C26.9497 14.7537 26.9497 14.0397 26.7327 13.6703C26.3504 13.0301 26.5468 13.0424 16.9588 13.0424C9.07551 13.0424 8.00099 13.067 7.7117 13.2394Z" fill="#FFAC09"/>
<path d="M7.61857 18.5704C7.16396 18.9028 6.99865 19.5184 7.19496 20.0971C7.51525 20.9835 6.80235 20.9219 17.0619 20.9219H26.2986L26.5983 20.5649C26.9289 20.1709 26.9909 19.5923 26.7739 19.0136C26.5053 18.3119 26.8669 18.3365 17.0103 18.3365C8.24881 18.3365 7.92852 18.3488 7.61857 18.5704Z" fill="#FFAC09"/>
<path d="M36.4444 21.094C36.0208 21.3156 35.7832 21.7342 35.7832 22.2759C35.7832 22.8299 36.0208 23.2362 36.4651 23.4578C36.992 23.7164 41.2488 23.7041 41.724 23.4332C42.0443 23.2608 42.3956 22.6453 42.3956 22.2759C42.3956 21.9066 42.0443 21.291 41.724 21.1186C41.2591 20.8478 36.9404 20.8354 36.4444 21.094Z" fill="#FFAC09"/>
<path d="M35.3702 26.3018C34.5333 26.6711 34.4403 28.2347 35.2255 28.6656C35.4011 28.7518 36.517 28.801 38.5627 28.801C41.497 28.801 41.6623 28.7887 41.9102 28.5548C42.3029 28.1854 42.4475 27.5699 42.2512 27.0405C41.9722 26.2402 41.8379 26.2156 38.5007 26.2279C36.8683 26.2279 35.4528 26.2648 35.3702 26.3018Z" fill="#FFAC09"/>
<path d="M26.1643 31.8671C25.6787 32.458 25.7821 33.4676 26.3813 33.8862C26.6396 34.0708 27.3525 34.0955 34.0786 34.0955C42.3028 34.0955 41.9515 34.1324 42.2511 33.2706C42.4474 32.7412 42.3028 32.1256 41.9102 31.7563C41.6519 31.51 41.5072 31.51 34.0579 31.51H26.464L26.1643 31.8671Z" fill="#FFAC09"/>
</svg>
