<svg width="66" height="66" viewBox="0 0 66 66" fill="none" xmlns="http://www.w3.org/2000/svg">
<path d="M47.2505 7.48242C47.7319 7.48504 48.2134 7.48765 48.7095 7.49035C52.2181 7.53059 52.2181 7.53059 52.8047 8.11718C52.8668 14.7416 50.5776 20.4556 46.2031 25.3828C45.7076 25.7664 45.2121 26.15 44.7015 26.5452C42.781 28.0898 41.8442 30.0566 40.7124 32.2065C38.7554 35.6974 37.147 37.7986 33.5078 39.6016C32.9127 39.9548 32.3204 40.3129 31.7305 40.6747C31.096 41.0581 30.4613 41.441 29.8262 41.8232C29.3762 42.0968 29.3762 42.0968 28.9172 42.3758C26.9798 43.4961 26.2085 43.6641 23.8594 43.6641C24.027 41.318 24.1945 38.9719 24.3672 36.5547C23.6969 37.225 23.0266 37.8953 22.3359 38.5859C21.8332 38.5859 21.3305 38.5859 20.8125 38.5859C20.6973 38.942 20.5821 39.2981 20.4634 39.665C19.628 41.495 18.6811 42.7486 17.2578 44.1719C15.5757 44.6162 15.5757 44.6162 14.2109 44.6797C13.9596 43.1715 13.9596 43.1715 13.7031 41.6328C13.3365 41.8109 12.97 41.9889 12.5923 42.1724C11.0055 42.7013 10.2086 42.5931 8.625 42.1406C8.89449 40.2003 9.3852 39.0624 10.6562 37.5703C9.81836 37.2352 8.98047 36.9 8.11719 36.5547C8.21835 35.3744 8.21835 35.3744 8.625 34.0156C9.71402 33.2122 9.71402 33.2122 11.0688 32.5874C11.512 32.3747 11.9552 32.1619 12.4118 31.9427C13.7031 31.4766 13.7031 31.4766 15.7344 31.4766C15.902 30.8062 16.0695 30.1359 16.2422 29.4453C17.2477 29.1939 17.2477 29.1939 18.2734 28.9375C18.2734 28.6023 18.2734 28.2672 18.2734 27.9219C16.0949 27.9219 13.9164 27.9219 11.6719 27.9219C11.5043 27.2516 11.3367 26.5812 11.1641 25.8906C11.9651 24.8102 12.7338 23.9192 13.6714 22.9707C13.9061 22.7233 14.1407 22.4758 14.3825 22.2209C14.8838 21.6958 15.3915 21.177 15.9046 20.6635C16.5067 20.0462 17.088 19.4083 17.6539 18.7577C20.2628 15.8731 22.6389 14.8427 26.3667 13.8935C29.2872 13.1228 31.8218 12.4121 34.3033 10.6443C38.3281 7.78557 42.4212 7.37336 47.2505 7.48242ZM28.6541 19.049C26.8999 20.8385 25.093 22.5163 23.1591 24.1133C22.1375 25.0129 22.1375 25.0129 20.8125 26.9062C23.5775 30.6768 23.5775 30.6768 26.3984 34.5234C30.1392 32.7227 33.6563 30.7211 37.1577 28.4932C37.8779 28.0464 37.8779 28.0464 38.6127 27.5906C44.1652 24.0695 47.8902 20.2169 49.6646 13.7051C49.9048 12.5208 50.1119 11.3467 50.2656 10.1484C40.6873 9.71579 35.3117 12.2558 28.6541 19.049ZM24.0022 17.2697C21.6039 18.2227 20.1811 19.7055 18.5273 21.6377C18.1189 22.0933 18.1189 22.0933 17.7021 22.5581C16.3507 23.8052 16.3507 23.8052 15.7344 25.3828C17.0755 25.7264 17.0755 25.7264 18.7812 25.3828C20.3665 24.1909 21.6829 22.7669 23.0342 21.3203C23.408 20.9328 23.7817 20.5453 24.1668 20.146C25.0872 19.1898 25.9997 18.2272 26.9062 17.2578C25.7811 16.5538 25.7811 16.5538 24.0022 17.2697ZM19.2891 30.9687C20.0216 32.678 20.9814 33.767 22.3359 35.0312C22.5035 34.5285 22.6711 34.0258 22.8438 33.5078C21.9954 32.1088 21.9954 32.1088 20.8125 30.9687C20.3098 30.9687 19.807 30.9687 19.2891 30.9687ZM35.2395 32.0439C34.8831 32.2684 34.5267 32.4929 34.1594 32.7243C33.7873 32.9619 33.4152 33.1995 33.0317 33.4443C32.6616 33.678 32.2914 33.9117 31.91 34.1525C28.8484 35.7696 28.8484 35.7696 27.0649 38.3955C27.0126 38.7935 26.9602 39.1915 26.9062 39.6016C30.4642 38.5076 34.6059 36.9695 36.8919 33.8946C37.5161 32.6872 37.5161 32.6872 38.0781 30.9687C36.7999 30.9687 36.3147 31.3622 35.2395 32.0439ZM13.1953 34.5234C13.698 34.691 14.2008 34.8586 14.7188 35.0312C14.3836 36.2043 14.0484 37.3773 13.7031 38.5859C14.1849 38.565 14.6667 38.544 15.1631 38.5225C16.75 38.5859 16.75 38.5859 17.7656 39.6016C19.0852 37.5044 19.0852 37.5044 18.9717 35.1265C17.4439 32.6959 15.5213 33.7774 13.1953 34.5234Z" fill="white"/>
<path d="M41.125 46.2031C44.1414 46.2031 47.1578 46.2031 50.2656 46.2031C50.2656 51.2305 50.2656 56.2578 50.2656 61.4375C52.2766 61.4375 54.2875 61.4375 56.3594 61.4375C56.3594 62.1078 56.3594 62.7781 56.3594 63.4688C40.9422 63.4688 25.525 63.4688 9.64062 63.4688C9.64062 62.7984 9.64062 62.1281 9.64062 61.4375C11.3164 61.4375 12.9922 61.4375 14.7188 61.4375C14.7188 59.0914 14.7188 56.7453 14.7188 54.3281C17.7352 54.3281 20.7516 54.3281 23.8594 54.3281C23.8594 56.6742 23.8594 59.0203 23.8594 61.4375C25.2 61.4375 26.5406 61.4375 27.9219 61.4375C27.9219 58.0859 27.9219 54.7344 27.9219 51.2812C30.9383 51.2812 33.9547 51.2812 37.0625 51.2812C37.0625 54.6328 37.0625 57.9844 37.0625 61.4375C38.4031 61.4375 39.7437 61.4375 41.125 61.4375C41.125 56.4102 41.125 51.3828 41.125 46.2031ZM43.1562 48.2344C43.1562 52.5914 43.1562 56.9484 43.1562 61.4375C44.832 61.4375 46.5078 61.4375 48.2344 61.4375C48.2344 57.0805 48.2344 52.7234 48.2344 48.2344C46.5586 48.2344 44.8828 48.2344 43.1562 48.2344ZM29.9531 53.3125C29.9531 55.9938 29.9531 58.675 29.9531 61.4375C31.6289 61.4375 33.3047 61.4375 35.0312 61.4375C35.0312 58.7562 35.0312 56.075 35.0312 53.3125C33.3555 53.3125 31.6797 53.3125 29.9531 53.3125ZM16.75 56.3594C16.75 58.0352 16.75 59.7109 16.75 61.4375C18.4258 61.4375 20.1016 61.4375 21.8281 61.4375C21.8281 59.7617 21.8281 58.0859 21.8281 56.3594C20.1523 56.3594 18.4766 56.3594 16.75 56.3594Z" fill="white"/>
<path d="M41.125 35.0312C43.1359 35.0312 45.1469 35.0312 47.2188 35.0312C47.2188 37.0422 47.2188 39.0531 47.2188 41.125C46.5484 41.125 45.8781 41.125 45.1875 41.125C44.9361 40.3709 44.9361 40.3709 44.6797 39.6016C44.3766 39.8785 44.0735 40.1554 43.7613 40.4406C38.4822 45.0295 32.5626 48.2843 25.8589 50.2974C25.5148 50.401 25.1707 50.5045 24.8162 50.6113C22.3921 51.2742 20.2522 51.3672 17.7656 51.2812C17.7656 50.6109 17.7656 49.9406 17.7656 49.25C18.0514 49.1763 18.3373 49.1026 18.6317 49.0267C27.2665 46.7682 35.6446 44.0663 42.1406 37.5703C41.8055 37.4027 41.4703 37.2352 41.125 37.0625C41.125 36.3922 41.125 35.7219 41.125 35.0312Z" fill="#FFAC09"/>
<path d="M39.6016 15.2265C41.1568 16.2104 41.1568 16.2104 42.1406 17.7656C42.6217 20.1407 42.4788 21.7948 41.1885 23.8593C39.7885 25.177 39.3555 25.363 37.4116 25.5097C35.4169 25.3745 34.5456 25.0957 33 23.8593C31.6971 22.1221 31.7624 20.3819 31.9844 18.2734C34.0162 15.1579 36.0277 14.7027 39.6016 15.2265ZM35.0947 18.3686C34.3956 19.2937 34.3956 19.2937 34.6187 20.5903C34.9532 21.9014 34.9532 21.9014 36.0469 22.8437C37.9896 22.7484 37.9896 22.7484 39.6016 21.8281C39.7286 20.3259 39.7286 20.3259 39.6016 18.7812C38.6763 17.6489 38.6763 17.6489 37.3482 17.6069C36.045 17.6714 36.045 17.6714 35.0947 18.3686Z" fill="white"/>
</svg>
