<svg width="92" height="114" viewBox="0 0 92 114" fill="none" xmlns="http://www.w3.org/2000/svg">
<path d="M1.09609 0.8936L0.502112 1.42503V50.6702C0.502112 104.831 0.383317 100.956 1.92766 102.683C2.90178 103.79 4.80251 104.61 6.75075 104.787L8.34261 104.92V108.152C8.34261 111.85 8.60396 112.625 10.0295 113.334C11.2412 113.932 12.2391 113.71 15.0902 112.16C16.492 111.407 17.7987 110.854 17.9888 110.92C18.1789 110.987 19.3668 111.607 20.626 112.293C23.2395 113.688 24.2849 113.932 25.4254 113.4C26.8984 112.692 27.1123 112.005 27.1123 108.241V104.853L57.12 104.809L87.1039 104.743L88.3632 104.1C89.0284 103.746 89.86 103.126 90.1926 102.728C91.5706 101.023 91.4994 103.968 91.4994 56.4937C91.4994 13.0721 91.4756 12.8506 91.0004 11.8542C90.0026 9.79494 88.3157 8.75423 85.6784 8.55495L84.0153 8.4221L83.8965 6.20783C83.8014 4.74642 83.6351 3.75 83.3738 3.30715C82.7798 2.31073 80.9979 0.915749 79.9049 0.605751C79.2159 0.406464 69.2609 0.340034 40.3223 0.340034H1.66631L1.09609 0.8936ZM79.6436 4.30357L80.3326 4.9457V48.3895C80.3326 77.7507 80.2613 91.9662 80.095 92.2541C79.4298 93.3833 81.3542 93.3391 41.2489 93.3391H4.06597V48.5002V3.66143H41.5103H78.9546L79.6436 4.30357ZM87.1515 12.3856L87.8167 12.917L87.888 56.4494L87.9355 99.9818L87.2465 100.69L86.5575 101.421L56.8349 101.488L27.1123 101.532V99.0961V96.6604H52.8434C81.4493 96.6604 80.1901 96.7269 81.9957 95.199C82.4947 94.7783 83.1362 94.0033 83.3975 93.4719C83.8965 92.5419 83.8965 92.4534 83.8965 52.1981V11.8542H85.1795C86.2249 11.8542 86.6288 11.9649 87.1515 12.3856ZM8.34261 99.1183V101.598L7.05962 101.465C4.75499 101.244 4.06597 100.469 4.06597 98.0997V96.6604H6.20429H8.34261V99.1183ZM23.5484 103.325V109.99L22.4317 109.37C19.5094 107.776 18.2026 107.245 17.4423 107.355C17.0384 107.422 15.6604 108.042 14.4012 108.706C13.1419 109.392 12.0728 109.946 12.0015 109.946C11.954 109.946 11.9065 106.957 11.9065 103.303V96.6604H17.7274H23.5484V103.325Z" fill="white"/>
<path d="M13.9013 15.9284L13.0935 16.6813V22.7705C13.0935 28.594 13.1173 28.8597 13.5924 29.4354C14.5428 30.5647 15.0893 30.6754 19.7461 30.6754C23.9989 30.6754 24.0464 30.6754 24.6167 30.1218C25.3294 29.4576 25.377 28.7047 24.7117 27.9297L24.2365 27.354H20.4351H16.6574V22.9255V18.497H42.3172H67.977V22.9255V27.354H49.4924H30.9841L30.4852 27.8633C29.7486 28.594 29.7961 29.6347 30.5802 30.2104C31.2217 30.6754 31.3642 30.6754 50.1339 30.6754C71.2795 30.6754 70.2579 30.7418 71.137 29.1254C71.5171 28.439 71.5409 27.7304 71.4934 22.5269L71.4221 16.6813L70.543 15.9284L69.6401 15.1756H42.1746H14.7091L13.9013 15.9284Z" fill="white"/>
<path d="M33.1725 65.1081C32.4123 65.7946 32.3885 66.7467 33.125 67.3888L33.6715 67.876H47.9269H62.2061L62.7051 67.3667C63.3941 66.6803 63.3703 65.7724 62.6338 65.1081L62.0636 64.5546H47.9032H33.7428L33.1725 65.1081Z" fill="white"/>
<path d="M68.9977 64.8203C68.2374 65.1746 67.9047 66.2153 68.3324 66.9903C68.7838 67.8095 69.0452 67.876 71.8725 67.876C74.1059 67.876 74.3434 67.8317 74.8186 67.3667C75.5552 66.636 75.5076 65.5953 74.7236 65.0196C74.1771 64.621 73.7732 64.5546 71.8012 64.5767C70.542 64.5767 69.2828 64.6874 68.9977 64.8203Z" fill="white"/>
<path d="M33.0982 75.6915C32.4092 76.378 32.4329 77.2858 33.1694 77.9501L33.7397 78.5037H39.2993C44.5738 78.5037 44.9064 78.4815 45.5004 78.0387C46.2845 77.463 46.3557 76.2894 45.643 75.6251C45.1915 75.2044 44.8589 75.1823 39.3943 75.1823C33.6446 75.1823 33.5971 75.1823 33.0982 75.6915Z" fill="white"/>
<path d="M51.3948 75.6915C50.7058 76.378 50.7295 77.2858 51.4661 77.9501L52.0363 78.5037H63.0605C73.8709 78.5037 74.1085 78.5037 74.7262 78.0387C75.5103 77.463 75.5815 76.2894 74.8688 75.6251C74.4173 75.2044 74.0847 75.1823 63.1555 75.1823H51.8937L51.3948 75.6915Z" fill="white"/>
<path d="M33.5976 81.9344C32.1958 82.5101 32.2433 84.2815 33.6689 84.8351C34.3816 85.1008 35.926 85.145 42.9349 85.1008C51.2268 85.0343 51.3456 85.0343 51.8446 84.5472C52.5336 83.9051 52.5336 82.8422 51.8446 82.2001C51.3456 81.7129 51.2268 81.7129 42.8399 81.6687C35.926 81.6244 34.2153 81.6687 33.5976 81.9344Z" fill="white"/>
<path d="M58.3542 81.7573C57.0237 82.0673 56.5486 83.7723 57.5464 84.6137C58.0216 85.0123 58.5681 85.0344 65.4582 85.1008C69.521 85.1451 73.2037 85.1008 73.6313 85.0344C75.2232 84.7687 75.8409 83.3516 74.8906 82.2444L74.4392 81.713L66.6224 81.6687C62.3458 81.6687 58.6156 81.6909 58.3542 81.7573Z" fill="white"/>
</svg>
