<svg width="128" height="119" viewBox="0 0 128 119" fill="none" xmlns="http://www.w3.org/2000/svg">
<path d="M78.6557 5.32356C65.4847 8.94717 61.0199 10.2893 60.623 10.7187C59.9781 11.3361 59.8541 12.6782 60.375 13.376C60.5238 13.6176 62.7562 15.4428 65.3358 17.4828C67.8907 19.4959 69.9742 21.1869 69.9742 21.2138C69.9742 21.2406 69.5277 23.6832 68.982 26.6089C68.4364 29.5347 67.9899 32.5141 67.9899 33.212C67.9899 38.9829 75.9768 46.6059 84.9807 49.4243C90.14 51.0348 96.6883 51.33 101.5 50.1222C107.28 48.6996 111.794 45.5591 112.761 42.3113C112.885 41.9355 113.431 39.1708 114.002 36.1645L115.019 30.662L120.699 29.1052C125.411 27.79 126.503 27.4142 126.974 26.8505C127.718 25.9647 127.669 25.0521 126.85 24.0858C126.453 23.6295 120.475 18.7712 113.505 13.2955C96.5146 -0.152126 97.2836 0.438389 96.6635 0.465229C96.3906 0.492073 88.2797 2.66624 78.6557 5.32356ZM108.569 14.7181C118.169 22.3143 120.748 24.4884 120.401 24.6495C120.153 24.7569 113.505 26.6089 105.618 28.7563L91.3058 32.6751L85.4024 28.0047C82.1778 25.4547 76.6465 21.0796 73.1243 18.288C68.9572 14.9865 66.8241 13.1613 67.0473 13.0271C67.2209 12.9197 73.1739 11.2556 80.2679 9.32296C87.3619 7.39036 93.7366 5.64566 94.4063 5.43092C95.1008 5.21619 95.7953 5.0283 95.969 5.0283C96.1426 5.00146 101.823 9.37664 108.569 14.7181ZM81.6818 30.3936C86.0473 33.8562 89.8671 36.8356 90.1896 36.9966C90.6113 37.2114 92.8188 36.6745 100.607 34.554C106.039 33.0509 110.529 31.8699 110.579 31.9504C110.628 32.0041 110.331 34.0709 109.884 36.5403C109.14 40.7276 109.041 41.1302 108.272 42.0428C105.469 45.398 96.6635 47.4112 90.016 46.2301C83.0708 44.9954 76.969 41.4523 73.3972 36.594C71.8097 34.4198 71.7849 33.9367 72.7027 28.6489C73.1491 26.1258 73.5708 24.059 73.6204 24.059C73.67 24.059 77.2914 26.9042 81.6818 30.3936Z" fill="white"/>
<path d="M16.1989 32.9978C14.8595 33.5347 13.6441 34.7962 13.024 36.2725L12.4287 37.6683L12.4783 71.6766L12.5527 105.658H7.14538H1.73808L1.14278 106.329C-0.5439 108.127 1.29161 114.113 4.29291 116.69C6.6493 118.703 1.98612 118.542 62.0369 118.542C109.14 118.542 116.184 118.488 117.276 118.139C120.6 117.066 123.13 113.281 123.477 108.825C123.601 107.161 123.576 107 122.981 106.356L122.336 105.658H116.928H111.521L111.596 79.4875L111.645 53.2901L111.05 52.6459C110.231 51.7601 109.09 51.7601 108.297 52.6459L107.677 53.2901V78.8164V104.343L107.056 104.987L106.461 105.658H62.0369H17.6127L17.0174 104.987L16.3973 104.343V71.2203V38.0977L16.9678 37.5341L17.5383 36.9435H39.9117C55.7615 36.9435 62.4338 36.863 62.8555 36.6483C64.0709 36.0578 64.3685 34.3399 63.4012 33.3199L62.8059 32.6489L39.9117 32.6757C22.9456 32.6757 16.819 32.7831 16.1989 32.9978ZM119.335 110.087C119.335 110.167 119.111 110.677 118.863 111.241C118.293 112.449 117.226 113.576 116.284 113.952C115.291 114.355 8.78246 114.355 7.79029 113.952C6.84773 113.576 5.78116 112.449 5.21066 111.241C4.96262 110.677 4.73938 110.167 4.73938 110.087C4.73938 110.006 30.5357 109.953 62.0369 109.953C93.563 109.953 119.335 110.006 119.335 110.087Z" fill="white"/>
<path d="M48.6428 51.7068C48.1467 52.2437 48.1467 52.5926 48.1467 72.348V92.4792L48.7916 93.016C49.1637 93.3381 49.7342 93.5797 50.0566 93.5797C50.6519 93.5797 84.2368 74.7101 85.1297 73.878C85.7994 73.2875 85.9978 72.1333 85.5762 71.3549C85.0801 70.3886 51.1728 51.17 49.9822 51.17C49.4613 51.17 48.9405 51.3847 48.6428 51.7068ZM68.5605 66.0671C74.5135 69.4491 79.3999 72.2943 79.3999 72.3749C79.3999 72.4554 74.6872 75.1664 68.9326 78.4142C63.1532 81.6621 57.0266 85.1246 55.2903 86.1178L52.1154 87.9161V72.348V56.7531L54.9183 58.3367C56.4313 59.2225 62.5827 62.6851 68.5605 66.0671Z" fill="white"/>
</svg>
