<svg width="100" height="98" viewBox="0 0 100 98" fill="none" xmlns="http://www.w3.org/2000/svg">
<path d="M3.44135 5.24643V9.99199H1.78549H0.129639V11.4157V12.8393H1.78549H3.44135V15.5918V18.3442H1.78549H0.129639V19.7678V21.1915H1.78549H3.44135V23.9439V26.6964H1.78549H0.129639V28.12V29.5437H1.78549H3.44135V32.2961V35.0485H1.78549H0.129639V36.4722V37.8959H1.78549H3.44135V40.6483V43.4007H1.78549H0.129639V44.8244V46.2481H1.78549H3.44135V49.0005V51.7529H1.78549H0.129639V53.1766V54.6003H1.78549H3.44135V57.3527V60.1051H1.78549H0.129639V61.5288V62.9524H1.78549H3.44135V65.7049V68.4573H1.78549H0.129639V69.881V71.3046H1.78549H3.44135V74.0571V76.8095H1.78549H0.129639V78.2331V79.6568H1.78549H3.44135V82.4092V85.1617H1.78549H0.129639V86.5853V88.009H1.78549H3.44135V92.7546V97.5001H38.1169H72.7924V86.1108V74.7214H71.234H69.6755V84.6871V94.6528H38.1169H6.55825V91.3309V88.009H8.21411H9.86996V86.5853V85.1617H8.21411H6.55825V82.4092V79.6568H8.21411H9.86996V78.2331V76.8095H8.21411H6.55825V74.0571V71.3046H8.21411H9.86996V69.881V68.4573H8.21411H6.55825V65.7049V62.9524H8.21411H9.86996V61.5288V60.1051H8.21411H6.55825V57.3527V54.6003H8.21411H9.86996V53.1766V51.7529H8.21411H6.55825V49.0005V46.2481H8.21411H9.86996V44.8244V43.4007H8.21411H6.55825V40.6483V37.8959H8.21411H9.86996V36.4722V35.0485H8.21411H6.55825V32.2961V29.5437H8.21411H9.86996V28.12V26.6964H8.21411H6.55825V23.9439V21.1915H8.21411H9.86996V19.7678V18.3442H8.21411H6.55825V15.5918V12.8393H8.21411H9.86996V11.4157V9.99199H8.21411H6.55825V6.6701V3.34821H10.7466H14.9349V1.92454V0.50087H9.18814H3.44135V5.24643Z" fill="white"/>
<path d="M17.8569 1.9236V3.34727H43.7662H69.6754L69.7144 13.3509L69.7729 23.3735H71.2339H72.6949L72.7534 11.9272L72.7924 0.499928H45.3246H17.8569V1.9236Z" fill="white"/>
<path d="M26.4285 11.4158V12.8395H33.2467H40.0649V11.4158V9.99214H33.2467H26.4285V11.4158Z" fill="white"/>
<path d="M42.9871 11.4158V12.8395H46.3962H49.8053V11.4158V9.99214H46.3962H42.9871V11.4158Z" fill="white"/>
<path d="M22.5325 20.9052V22.3289H26.4286H30.3247V20.9052V19.4815H26.4286H22.5325V20.9052Z" fill="white"/>
<path d="M33.2468 20.9052V22.3289H40.0651H46.8833V20.9052V19.4815H40.0651H33.2468V20.9052Z" fill="white"/>
<path d="M49.8052 20.9052V22.3289H55.6494H61.4936V20.9052V19.4815H55.6494H49.8052V20.9052Z" fill="white"/>
<path d="M68.5068 31.5342L61.0068 38.8424L53.7015 37.8933C49.6885 37.3808 46.2015 36.9442 45.9677 36.9442C45.4417 36.9442 38.7793 39.9054 38.8378 40.1142C38.9741 40.6837 39.9092 42.449 40.0651 42.449C40.1625 42.449 41.5845 41.8606 43.2014 41.1203L46.1625 39.7915L52.0651 40.5508C55.2989 40.9684 58.0847 41.3101 58.221 41.3101C58.3574 41.3101 56.8963 42.8477 54.9678 44.7269L51.4612 48.1437H48.5197H45.5781L42.8897 49.2447L40.1819 50.3267L39.3443 54.3129C38.8378 56.7047 38.3897 59.5331 38.2339 61.3744C37.8832 64.981 37.5521 65.9301 36.1884 67.1829C35.3702 67.9232 33.578 68.8344 33.3442 68.6066C33.2858 68.5686 32.9741 66.3097 32.6429 63.5953L32.0195 58.6789L32.9741 51.9781L33.9092 45.2774L34.7079 44.9357C35.1365 44.7269 35.8962 44.4042 36.4027 44.1764L37.3378 43.7588L36.7339 42.5819C36.4027 41.9365 36.091 41.367 36.052 41.3291C36.0131 41.2911 34.9222 41.7087 33.6559 42.2782C32.0001 42.9995 31.2988 43.4171 31.2208 43.6829C31.1819 43.8917 30.6754 47.3275 30.1104 51.3327L29.078 58.584L29.7014 63.6522L30.3247 68.7205L29.8572 69.195C29.5455 69.5367 28.7663 71.5299 27.4416 75.4212C26.3702 78.5913 25.4935 81.1729 25.513 81.1729C25.552 81.1729 28.1819 80.3186 31.3962 79.2746C37.0456 77.4333 37.2598 77.3574 38.117 76.5222L39.0131 75.649L39.7534 76.2185C40.63 76.9018 41.9547 77.3384 43.2794 77.4144C43.8248 77.4523 46.2209 77.3954 48.6365 77.3195L53.0197 77.1486L58.4743 75.668L63.9288 74.1874L68.9938 71.416L74.0588 68.6446H76.4354H78.8121L78.8705 69.9164L78.9289 71.2072L89.4095 71.2641L99.8706 71.3021V69.8784V68.4547H90.9095H81.9484L81.9095 57.0084C81.8705 50.7253 81.8705 45.3913 81.9095 45.1445C81.9679 44.7269 82.0069 44.7269 85.0848 44.7269H88.1823V43.3032V41.8796H83.5069H78.8315V43.2083V44.5371H76.903C75.5783 44.5371 74.7406 44.4422 74.2341 44.2334C73.8055 44.0625 73.1627 43.7968 72.7925 43.6639L72.1302 43.3792L78.0134 37.6465L83.8965 31.9139L79.9419 28.0605L76.0068 24.2261L68.5068 31.5342ZM77.9549 33.7172L76.1043 35.5205L74.2146 33.6792L72.3055 31.819L74.1562 30.0157L76.0068 28.2123L77.8965 30.0536L79.8056 31.9139L77.9549 33.7172ZM60.0132 51.1999L46.0651 64.7912L44.0781 64.8861C42.8897 64.943 41.8183 65.0949 41.3508 65.2847L40.6105 65.6074L40.7274 65.1328C40.7858 64.8861 40.9027 64.1268 40.9612 63.4814L41.078 62.2855L55.6301 48.1057L70.1627 33.907L72.0523 35.7483L73.9614 37.6086L60.0132 51.1999ZM72.2666 46.5302C74.4484 47.3654 74.5848 47.3844 76.6692 47.3844H78.8315V56.5908V65.7972H76.0653H73.299L68.0587 68.6635L62.799 71.5299L57.7145 72.9156L52.6301 74.3013L48.4417 74.4721C42.3248 74.6999 42.091 74.6619 40.8832 73.3142C39.4417 71.7007 40.0261 69.0432 42.0521 68.1131C42.7923 67.7714 43.4157 67.7144 47.2729 67.6005L51.656 67.4866L54.6755 66.4426L57.695 65.3986L60.4613 61.9438L63.2275 58.489L61.5912 56.8756L59.9353 55.2621L64.8444 50.4785C67.5522 47.84 69.8315 45.676 69.9094 45.676C69.9678 45.676 71.0393 46.0557 72.2666 46.5302ZM48.4417 51.048C48.4417 51.067 46.9222 52.5666 45.0521 54.3889L41.6625 57.6918L42.2079 55.0912C42.5001 53.6676 42.7729 52.4527 42.8118 52.4147C42.8703 52.3768 43.5911 52.0351 44.4482 51.6744C45.656 51.1619 46.2794 51.01 47.2339 51.01C47.8963 50.9911 48.4417 51.01 48.4417 51.048ZM58.7275 58.0714L59.3314 58.6789L57.5976 60.8618L55.8639 63.0258L53.5651 63.842C49.7859 65.1518 49.7859 65.1518 53.9937 61.0517C56.0197 59.0585 57.7924 57.445 57.8898 57.445C58.0067 57.445 58.3769 57.7298 58.7275 58.0714ZM37.3962 72.9725C37.4741 73.0674 37.104 73.542 36.5975 74.0165C35.7598 74.8138 35.3897 75.0036 33.052 75.7629C31.6105 76.2375 30.3832 76.6171 30.3053 76.6171C30.2273 76.6171 30.539 75.5351 30.9871 74.2064L31.8247 71.7766L33.3637 71.5299C34.2014 71.397 35.3897 71.0553 35.9741 70.7706L37.0456 70.2391L37.1624 71.5109C37.2404 72.2132 37.3378 72.8586 37.3962 72.9725Z" fill="white"/>
<path d="M14.7402 28.5011V29.9248H19.6104H24.4806V28.5011V27.0775H19.6104H14.7402V28.5011Z" fill="white"/>
<path d="M27.4026 28.5011V29.9248H35.1948H42.9871V28.5011V27.0775H35.1948H27.4026V28.5011Z" fill="white"/>
<path d="M45.9092 28.5011V29.9248H47.3702H48.8313V28.5011V27.0775H47.3702H45.9092V28.5011Z" fill="white"/>
<path d="M51.7534 28.5011V29.9248H56.6236H61.4937V28.5011V27.0775H56.6236H51.7534V28.5011Z" fill="white"/>
<path d="M14.7402 36.0933V37.517H17.1753H19.6104V36.0933V34.6696H17.1753H14.7402V36.0933Z" fill="white"/>
<path d="M22.5325 36.0933V37.517H27.4026H32.2728V36.0933V34.6696H27.4026H22.5325V36.0933Z" fill="white"/>
<path d="M91.1042 43.3031V44.7268H95.4874H99.8705V43.3031V41.8795H95.4874H91.1042V43.3031Z" fill="white"/>
<path d="M14.7402 43.6828V45.1064H19.6104H24.4806V43.6828V42.2591H19.6104H14.7402V43.6828Z" fill="white"/>
<path d="M14.7402 51.2808V52.7045H19.6104H24.4806V51.2808V49.8571H19.6104H14.7402V51.2808Z" fill="white"/>
<path d="M84.7536 56.9344C84.6951 57.0863 84.6756 57.7506 84.7146 58.415L84.773 59.6299H86.2341H87.6951V58.2062V56.7825L86.2731 56.7256C85.2016 56.6876 84.8315 56.7446 84.7536 56.9344Z" fill="white"/>
<path d="M14.7402 58.8703V60.2939H19.6104H24.4806V58.8703V57.4466H19.6104H14.7402V58.8703Z" fill="white"/>
<path d="M84.7536 62.6328C84.6951 62.7846 84.6756 63.449 84.7146 64.1134L84.773 65.3282H86.2341H87.6951V63.9046V62.4809L86.2731 62.424C85.2016 62.386 84.8315 62.4429 84.7536 62.6328Z" fill="white"/>
<path d="M14.7402 66.4626V67.8862H19.6104H24.4806V66.4626V65.0389H19.6104H14.7402V66.4626Z" fill="white"/>
<path d="M14.7402 74.0585V75.4822H18.6364H22.5325V74.0585V72.6348H18.6364H14.7402V74.0585Z" fill="white"/>
<path d="M77.4678 81.2683V82.692H78.9288H80.3899V81.2683V79.8447H78.9288H77.4678V81.2683Z" fill="white"/>
<path d="M83.312 81.2683V82.692H84.7731H86.2341V81.2683V79.8447H84.7731H83.312V81.2683Z" fill="white"/>
<path d="M89.1562 81.2683V82.692H90.6173H92.0783V81.2683V79.8447H90.6173H89.1562V81.2683Z" fill="white"/>
<path d="M14.7402 81.8379V83.2616H16.2013H17.6623V81.8379V80.4143H16.2013H14.7402V81.8379Z" fill="white"/>
<path d="M63.9678 84.7052C63.8898 84.7811 63.8314 85.7682 63.8314 86.9071V88.9572H61.6885H59.5457V90.3809V91.8046H63.247H66.9483L66.9093 88.2359L66.8509 84.6862L65.4873 84.6293C64.7275 84.6103 64.0457 84.6293 63.9678 84.7052Z" fill="white"/>
<path d="M83.312 88.8653V90.2889H84.7731H86.2341V88.8653V87.4416H84.7731H83.312V88.8653Z" fill="white"/>
<path d="M89.1562 88.8653V90.2889H90.6173H92.0783V88.8653V87.4416H90.6173H89.1562V88.8653Z" fill="white"/>
<path d="M95.0005 88.8653V90.2889H96.4615H97.9226V88.8653V87.4416H96.4615H95.0005V88.8653Z" fill="white"/>
</svg>
