<svg width="127" height="139" viewBox="0 0 127 139" fill="none" xmlns="http://www.w3.org/2000/svg">
<path d="M33.5164 0.293076C27.5537 1.27153 21.2643 4.04384 17.0713 7.57716L15.9278 8.55563L17.1802 9.99614C17.8881 10.7843 18.4871 11.4638 18.5144 11.5182C18.5688 11.5725 19.4673 10.9474 20.5019 10.132C22.8434 8.3382 26.4919 6.43564 29.4052 5.48434C45.9592 0.130005 63.6023 9.66998 68.367 26.5484C69.0204 28.8315 69.1021 29.7012 69.211 34.8653L69.3471 40.6545H67.414H65.4809V38.2628C65.4809 34.1315 64.9908 29.7284 64.2557 27.2551C61.6147 18.1228 54.6446 11.4095 45.1151 8.80025C42.0929 7.95769 35.504 7.95769 32.4818 8.80025C22.2172 11.5997 14.9476 19.1828 12.7695 29.3751C12.47 30.7612 12.3066 33.914 12.1977 40.9807L12.0343 50.7109H10.1829H8.30423V40.9535C8.30423 30.6797 8.44037 28.9674 9.69281 25.1351C10.5368 22.4715 12.4972 18.7207 14.158 16.5192C14.9748 15.432 15.6555 14.4808 15.6555 14.4264C15.6555 14.209 13.0417 11.8443 12.7967 11.8443C12.3066 11.8443 9.42054 15.9756 8.03196 18.6664C7.29683 20.1069 6.31666 22.3628 5.88103 23.6946C4.38355 28.0976 4.19296 30.0817 4.02959 40.8448L3.86623 50.6838L1.93312 50.7653L0 50.8468V79.1135V107.38L0.598994 108.467C1.27967 109.745 2.34152 110.778 3.67564 111.484C4.57413 111.973 5.8538 112.001 29.8408 112.082L55.0257 112.164L55.3252 113.305C55.897 115.425 57.6395 119.203 59.1098 121.541C66.2705 132.956 78.7132 139.561 91.8911 138.963C94.641 138.854 100.44 137.93 100.822 137.549C100.876 137.495 100.658 136.598 100.331 135.511C99.8414 133.907 99.678 133.608 99.2696 133.744C97.5543 134.288 94.5866 134.723 91.755 134.859C84.567 135.212 77.3247 133.065 71.3347 128.797L70.1095 127.901V125.726C70.1095 123.144 70.4907 122.084 71.8248 120.915C73.1862 119.72 74.8198 119.04 78.9855 118.007L82.5795 117.11L83.0695 118.17C84.1859 120.616 87.562 122.736 90.3936 122.736C93.198 122.736 96.2474 120.861 97.6088 118.306L98.235 117.11L101.911 118.034C107.138 119.339 109.589 120.725 110.378 122.818C110.542 123.253 110.678 124.557 110.678 125.753V127.901L109.398 128.852C108.663 129.368 107.084 130.347 105.859 131.053C104.606 131.733 103.599 132.358 103.599 132.412C103.599 132.793 105.096 135.783 105.287 135.783C105.967 135.783 110.269 133.282 112.611 131.515C119.336 126.46 123.964 119.421 126.088 110.968C127.068 107.135 127.286 100.422 126.606 96.3452C124.455 83.3806 115.551 72.6176 103.136 67.9427C98.235 66.0945 91.4282 65.2791 86.2823 65.9314C83.8864 66.2304 79.5028 67.1817 78.2231 67.6981C77.7603 67.8884 77.7331 67.3448 77.6786 59.3812L77.5969 50.8468L47.021 50.7653L16.4451 50.7109L16.5268 40.3012L16.6357 29.9187L17.3708 27.7987C18.7049 23.9935 19.9302 22.0095 22.7073 19.0741C25.5934 16.0843 29.2962 13.8828 33.3531 12.7684C36.103 12.0074 41.7934 12.0618 44.6523 12.8772C50.9689 14.6982 56.7683 19.672 59.3821 25.57C60.8251 28.8858 61.1246 30.9515 61.1246 38.1269V44.7315H67.4413H73.7307L73.5673 37.8551C73.3767 30.3264 73.0228 27.5812 71.7159 23.6946C67.8224 12.0618 58.2113 3.41872 46.1497 0.673584C42.9914 -0.0330811 36.7564 -0.223328 33.5164 0.293076ZM73.3767 62.3166L73.3495 69.8724L71.3892 71.014C65.6171 74.3571 60.0083 80.554 57.1495 86.7237C54.5901 92.2411 53.6644 96.9975 53.8278 103.602L53.9367 108.06L29.6502 108.005C6.20775 107.924 5.33649 107.896 4.79195 107.407L4.22018 106.891V80.8258V54.7879H38.7985H73.3767V62.3166ZM95.24 70.1442C105.477 71.6935 114.408 78.0263 119.254 87.1586C121.814 92.0237 122.93 96.6442 122.93 102.352C122.93 107.842 121.868 112.354 119.472 117.165C118.41 119.23 116.15 122.655 115.306 123.416C114.789 123.878 114.762 123.878 114.762 123.253C114.762 122.03 113.264 119.393 111.794 118.034C109.915 116.268 107.764 115.316 102.891 114.066L98.834 113.033L98.7523 111.566L98.6706 110.098L100.44 108.304C102.428 106.266 103.68 104.01 104.307 101.346C104.96 98.5468 104.715 89.7678 103.925 87.6206C102.319 83.1904 99.079 80.0376 94.6138 78.5427C93.5519 78.1894 92.3267 78.0263 90.3936 78.0263C88.4605 78.0263 87.2353 78.1894 86.1734 78.5427C81.7082 80.0376 78.4682 83.1904 76.8618 87.6206C76.0722 89.7678 75.8272 98.5468 76.4806 101.346C77.1068 104.01 78.3593 106.266 80.3469 108.304L82.1166 110.098L82.0349 111.566L81.9532 113.033L77.8964 114.066C73.1317 115.289 70.8991 116.268 69.1293 117.899C67.5229 119.366 66.6517 120.725 66.216 122.492L65.8621 123.851L64.8819 122.682C61.6964 118.795 59.1643 113.196 58.2658 108.087C58.0479 106.836 57.8574 104.254 57.8574 102.352C57.8574 96.8616 58.892 92.3498 61.2607 87.675C67.5774 75.1453 81.3543 68.0514 95.24 70.1442ZM94.5321 82.9186C97.391 84.196 99.8686 87.3217 100.413 90.2842L100.577 91.1268L99.1607 90.6375C97.9355 90.2027 96.7647 90.1483 90.3936 90.1483C84.0225 90.1483 82.8517 90.2027 81.6265 90.6375L80.2107 91.1268L80.3741 90.2842C81.0275 86.6693 84.3492 83.1632 87.9976 82.2391C89.7674 81.8042 92.7896 82.1032 94.5321 82.9186ZM98.4256 94.7416C99.7052 95.3939 100.604 96.9432 100.604 98.5196C100.604 100.123 99.6236 102.868 98.5617 104.336C96.6286 106.918 93.7698 108.331 90.3936 108.331C85.7923 108.331 82.0894 105.641 80.728 101.292C79.7206 98.1391 80.2107 96.0734 82.2527 94.8504C83.2874 94.2252 83.4235 94.1981 90.3392 94.1981C96.8464 94.1981 97.4454 94.2252 98.4256 94.7416ZM94.3415 114.066C94.3415 115.48 94.2054 116.05 93.7153 116.784C92.1089 119.203 88.6783 119.203 87.0719 116.784C86.5818 116.05 86.4457 115.48 86.4457 114.066V112.272H90.3936H94.3415V114.066Z" fill="white"/>
<path d="M57.2311 59.0281C57.1222 59.1368 57.0405 60.0609 57.0405 61.0937V62.9419H59.2187H61.4241L61.3424 60.9578L61.2607 59.0009L59.3548 58.9193C58.293 58.8922 57.34 58.9193 57.2311 59.0281Z" fill="white"/>
<path d="M65.3991 59.0281C65.2902 59.1368 65.2085 60.0609 65.2085 61.0937V62.9419H67.3867H69.592L69.5104 60.9578L69.4287 59.0009L67.5228 58.9193C66.4609 58.8922 65.508 58.9193 65.3991 59.0281Z" fill="white"/>
<path d="M41.5213 72.8623L37.3012 77.0751L34.4423 74.2212L31.5835 71.3674L27.2272 75.7161L22.8708 80.0648L29.9499 87.1315C33.8433 91.0181 37.1378 94.1981 37.3012 94.1981C37.4645 94.1981 41.4397 90.3386 46.1499 85.6366L54.7264 77.0751L50.5062 72.8623C48.1919 70.552 46.1772 68.6494 46.0138 68.6494C45.8504 68.6494 43.8356 70.552 41.5213 72.8623ZM47.6474 75.7161L49.0088 77.0751L43.2094 82.8643L37.4373 88.6263L33.081 84.2776L28.7247 79.9289L30.1405 78.5156L31.5563 77.0751L34.4423 79.9289L37.3012 82.7828L41.5213 78.5699C43.8356 76.2597 45.8504 74.3571 46.0138 74.3571C46.1772 74.3571 46.9123 74.9823 47.6474 75.7161Z" fill="white"/>
</svg>
