<svg width="68" height="118" viewBox="0 0 68 118" fill="none" xmlns="http://www.w3.org/2000/svg">
<path d="M6.16407 1.00666C3.22799 1.71223 0.906436 4.21587 0.314667 7.33404C-0.00397757 9.0183 -0.00397757 109.027 0.314667 110.711C0.815394 113.283 2.4769 115.468 4.82121 116.561L6.11855 117.175H34H61.8814L63.1787 116.561C65.523 115.468 67.1845 113.283 67.6852 110.711C68.0039 109.027 68.0039 9.0183 67.6852 7.33404C67.1845 4.76212 65.523 2.57713 63.1787 1.48463L61.8814 0.870102L34.4552 0.824577C18.9099 0.824577 6.6648 0.89286 6.16407 1.00666ZM43.1041 6.90159C43.2862 7.22024 43.2862 7.49336 43.1041 7.812C42.8765 8.24445 42.6261 8.26721 34 8.26721C25.3738 8.26721 25.1234 8.24445 24.8958 7.812C24.7137 7.49336 24.7137 7.22024 24.8958 6.90159C25.1234 6.46915 25.3738 6.44638 34 6.44638C42.6261 6.44638 42.8765 6.46915 43.1041 6.90159ZM62.4504 57.9985V102.723H34H5.54954V57.9985V13.2745H34H62.4504V57.9985ZM35.2973 105.704C36.0711 106 37.1181 106.956 37.5506 107.775C38.2789 109.164 37.8009 111.28 36.5264 112.35C33.9317 114.535 30.1307 112.737 30.1307 109.323C30.1307 106.728 32.9075 104.794 35.2973 105.704Z" fill="white"/>
</svg>
