<svg width="128" height="127" viewBox="0 0 128 127" fill="none" xmlns="http://www.w3.org/2000/svg">
<path d="M11.2678 0.462479C6.47908 2.00994 2.58321 6.4589 1.0952 12.0685C0.5 14.3252 0.5 14.4541 0.5 37.6984C0.5 60.9426 0.5 61.0715 1.0952 63.3283C2.58321 69.0023 6.50614 73.419 11.376 74.9342C12.4041 75.2566 14.2438 75.4178 16.7869 75.4178H20.6557V86.3468V97.2758L21.3591 98.2752C22.0896 99.3068 23.4153 99.8226 24.4975 99.4358C24.8221 99.3068 29.6379 93.8585 35.157 87.2817L45.1943 75.3856L47.3316 75.4823L49.4689 75.579L49.6042 84.4447C49.7395 92.6979 49.7936 93.4393 50.3888 95.148C51.7145 99.2101 54.1223 102.466 57.2066 104.433C60.1555 106.303 60.7507 106.367 73.7911 106.367H85.7222L94.3797 116.684C102.604 126.484 103.118 127 104.038 127C105.364 127 106.23 126.484 106.771 125.388C107.177 124.614 107.231 123.293 107.231 115.426V106.367H111.099C113.67 106.367 115.482 106.206 116.537 105.884C121.326 104.401 125.195 100.081 126.764 94.471C127.359 92.4077 127.359 91.8919 127.468 73.8059C127.576 52.6572 127.495 51.3999 125.925 47.5312C124.194 43.2434 121.651 40.4709 117.782 38.6655L116.023 37.8596L101.495 37.7628L86.9397 37.6661V26.1568C86.9397 13.4225 86.8585 12.4876 85.2352 8.87682C84.126 6.36219 81.5828 3.33173 79.4726 2.00994C76.1178 -0.117821 77.8222 -0.0211105 43.6522 0.0111313C17.9232 0.0111313 12.4311 0.107849 11.2678 0.462479ZM76.2801 7.7807C78.3363 9.07025 79.175 10.0374 80.203 12.2941L81.1229 14.3252V37.6984V61.0715L80.203 63.1026C79.175 65.3593 78.3363 66.3265 76.2801 67.616L74.9003 68.4865L59.2086 68.5509C50.5782 68.6154 43.2193 68.7444 42.8406 68.8411C42.4347 68.9378 38.9988 72.7742 34.2642 78.416L26.3372 87.7975V79.5122C26.3372 70.7754 26.2019 69.7438 25.0656 69.099C24.7951 68.9378 21.9002 68.7444 18.6266 68.6477C12.8099 68.4865 12.6475 68.4542 11.1325 67.5838C9.45509 66.6166 8.0212 64.908 7.07428 62.7802L6.45203 61.3939L6.37086 38.4076C6.31675 23.2231 6.39792 15.0022 6.5873 14.164C6.93901 12.552 8.37291 10.1019 9.61742 8.90906C10.1585 8.39323 11.2678 7.68398 12.0523 7.3616C13.4051 6.7813 14.9742 6.7813 44.1933 6.84577L74.9003 6.91025L76.2801 7.7807ZM116.456 45.4679C118.323 46.5318 119.892 48.3372 120.785 50.465L121.434 52.0447V72.1939V92.3432L120.812 93.7295C119.865 95.8573 118.431 97.5659 116.754 98.5331C115.239 99.4035 115.104 99.4358 109.26 99.597C102.929 99.7582 102.442 99.8871 101.847 101.435C101.657 101.918 101.549 104.755 101.549 108.624C101.549 112.17 101.468 115.072 101.36 115.072C101.225 115.072 98.2485 111.622 94.7314 107.431L88.2924 99.7582L74.9544 99.597L61.6435 99.4358L60.2638 98.5653C58.2076 97.2758 57.3689 96.3086 56.3408 94.0519L55.421 92.0208L55.3398 83.7032L55.2586 75.4178H64.9442C72.7901 75.4178 74.9544 75.3211 76.2531 74.9342C81.15 73.419 85.2623 68.5187 86.5338 62.6835C86.8314 61.2005 86.9397 58.9115 86.9397 52.8506C86.9397 48.4661 87.0208 44.7909 87.129 44.6619C87.2373 44.533 93.541 44.4685 101.143 44.533L114.941 44.6297L116.456 45.4679Z" fill="white"/>
<path d="M18.9513 21.257C17.9232 22.2241 17.5444 23.8361 18.0585 25.2223C18.8431 27.5113 17.4633 27.3823 43.7875 27.3823C65.4312 27.3823 67.5685 27.3501 68.2719 26.8343C69.8411 25.7382 70.1117 23.0946 68.8401 21.5471L68.0555 20.6122H43.8416C20.0064 20.6122 19.6276 20.6122 18.9513 21.257Z" fill="white"/>
<path d="M19.3841 34.6682C18.5995 35.1518 17.6797 36.7638 17.6797 37.6987C17.6797 37.9244 17.8691 38.5691 18.1126 39.1494C18.9783 41.3417 17.7879 41.245 43.6251 41.245C68.7048 41.245 68.1907 41.2772 69.1918 39.6008C69.7599 38.6336 69.7599 36.7638 69.1918 35.7966C68.1907 34.1202 68.7048 34.1524 43.5981 34.1524C22.9553 34.1524 20.1417 34.2169 19.3841 34.6682Z" fill="white"/>
<path d="M19.1406 48.6273C17.9502 49.4978 17.5173 51.1097 18.0314 52.625C18.87 54.9462 17.0033 54.785 43.8686 54.785H68.0554L68.84 53.85C69.7058 52.8184 69.8681 51.3032 69.2999 49.7879C68.5965 47.9503 69.5434 48.0148 43.7333 48.0148C20.7909 48.0148 19.9522 48.047 19.1406 48.6273Z" fill="white"/>
<path d="M94.6231 55.2358C93.5139 55.8161 92.8916 56.9123 92.8916 58.3308C92.8916 59.7815 93.5139 60.8454 94.6772 61.4257C96.057 62.1027 107.204 62.0705 108.448 61.3612C109.287 60.9099 110.207 59.2979 110.207 58.3308C110.207 57.3636 109.287 55.7517 108.448 55.3003C107.231 54.5911 95.9217 54.5588 94.6231 55.2358Z" fill="white"/>
<path d="M91.8096 68.873C89.6181 69.8402 89.3746 73.9345 91.4308 75.0629C91.8907 75.2885 94.8126 75.4175 100.169 75.4175C107.853 75.4175 108.286 75.3852 108.935 74.7727C109.963 73.8055 110.342 72.1936 109.828 70.8073C109.097 68.7118 108.746 68.6473 100.007 68.6796C95.7325 68.6796 92.026 68.7763 91.8096 68.873Z" fill="white"/>
<path d="M67.7037 83.4452C66.4322 84.9926 66.7027 87.6362 68.2719 88.7323C68.9482 89.2159 70.815 89.2804 88.4276 89.2804C109.963 89.2804 109.043 89.3771 109.828 87.1204C110.342 85.7341 109.963 84.1222 108.935 83.155C108.259 82.5102 107.88 82.5102 88.3735 82.5102H68.4883L67.7037 83.4452Z" fill="white"/>
</svg>
