<svg width="68" height="66" viewBox="0 0 68 66" fill="none" xmlns="http://www.w3.org/2000/svg">
<path d="M7.90033 0.188736C4.56523 1.04273 2.12492 4.16048 2.12492 7.57646C2.12492 10.0029 3.41286 12.4835 5.35156 13.7713L6.13788 14.3L5.89385 15.2353C5.13464 18.2717 5.25665 21.9588 6.20567 24.8597C6.6395 26.1475 7.58851 28.0317 8.34772 29.0619C8.9578 29.8888 9.02559 30.0243 8.82223 30.1463C3.9416 33.115 1.35215 36.5716 0.376024 41.438C-0.20694 44.3253 -0.125597 45.7893 0.714956 47.4566C1.21658 48.4462 2.39606 49.6391 3.3993 50.1542L4.23986 50.588L3.91448 51.4826C2.49096 55.4137 3.34507 59.7786 6.11076 62.5303C9.1476 65.5803 13.4995 65.865 16.8753 63.2488C17.282 62.9505 17.7701 62.5032 17.9734 62.2592L18.3395 61.8119L19.1936 62.1508C21.539 63.0997 23.9115 63.0997 26.2569 62.1643L27.0839 61.8254L27.8025 62.5439C30.6224 65.3634 34.5676 65.8243 37.9162 63.7232C38.9601 63.0725 40.1938 61.7441 40.831 60.6055L41.3733 59.6295H53.9545H66.5357L66.8611 59.2906L67.2 58.9652V50.954V42.9427L66.8611 42.6173L66.5357 42.2785H63.065H59.6079V35.0534V27.8283L55.6085 22.1079C52.5988 17.8244 51.5142 16.374 51.2702 16.3062C50.4703 16.1029 50.416 16.1706 46.254 22.1079L42.2545 27.8283V31.3528V34.8636L41.2378 33.7656C40.0447 32.4779 38.933 31.5832 37.4824 30.6885C36.8994 30.3497 36.4249 30.0379 36.4249 30.0108C36.4249 29.9837 36.7503 29.5092 37.1434 28.9534C39.8278 25.2257 40.7497 19.8848 39.5431 15.2624C39.3804 14.6795 39.3397 14.2729 39.4211 14.2458C39.4889 14.2186 39.8956 13.934 40.3294 13.6087C42.2817 12.1447 43.4747 9.48779 43.2849 7.10202C42.8511 1.61206 37.2112 -1.61414 32.3306 0.825844C31.124 1.43584 29.9174 2.52028 29.3344 3.52338L28.9684 4.13337L27.9923 3.88938C24.8063 3.06249 20.8204 3.04894 17.7023 3.83516L16.4957 4.13337L16.0076 3.40138C14.6112 1.30028 12.5505 0.148064 9.98816 0.0396194C9.13405 0.0125122 8.42907 0.0531769 7.90033 0.188736ZM11.9133 2.65583C12.903 3.13027 13.5266 3.61827 14.0825 4.37737L14.4621 4.90604L13.4859 5.44825C10.9914 6.79025 8.78156 8.95913 7.41227 11.3991C7.18179 11.8329 6.93776 12.1853 6.88353 12.1853C6.8293 12.1853 6.53104 11.9684 6.21922 11.6973C3.69756 9.55556 3.67045 5.69225 6.13788 3.52338C7.73764 2.12717 10.0424 1.77472 11.9133 2.65583ZM37.9704 2.66938C39.177 3.23871 39.9905 4.02493 40.5599 5.1907C41.6309 7.35958 41.2242 9.70467 39.4753 11.4669C39.0686 11.86 38.689 12.1853 38.6212 12.1853C38.567 12.1853 38.1467 11.5889 37.6993 10.8704C36.3571 8.67446 34.2829 6.72247 31.8425 5.38048L31.002 4.90604L31.3816 4.37737C32.0866 3.41494 33.3067 2.58805 34.4862 2.28983C35.4488 2.04583 37.0079 2.22205 37.9704 2.66938ZM26.3654 5.74648C29.5107 6.35647 32.0188 7.67136 34.0117 9.71823C36.7503 12.5242 38.106 16.2791 37.862 20.3186C37.5095 26.2017 34.0524 30.8241 28.6159 32.6541C24.3725 34.091 19.1122 33.847 15.2891 32.0441C11.5879 30.2819 9.07982 27.259 7.99523 23.1924C7.66986 22.013 7.62918 21.6335 7.62918 19.5053C7.62918 17.3771 7.66986 16.9975 7.99523 15.8182C9.50009 10.2062 13.6486 6.61403 19.8308 5.61092C21.3492 5.36692 24.7927 5.4347 26.3654 5.74648ZM53.6562 23.1246C55.1069 25.185 56.3135 26.9201 56.327 26.9879C56.3541 27.0421 53.9274 27.0963 50.9312 27.0963C47.9351 27.0963 45.5083 27.0421 45.5354 26.9879C45.6439 26.7032 50.8499 19.3697 50.9312 19.3697C50.9855 19.3697 52.2056 21.0642 53.6562 23.1246ZM57.4387 35.7718V42.2785H51.3515H45.2507L45.1016 41.4922C45.0202 41.072 44.8304 40.3536 44.6813 39.9198C44.4508 39.1743 44.4237 38.6863 44.4237 34.1858V29.2652H50.9312H57.4387V35.7718ZM11.6828 32.4236C12.2116 32.8167 13.1335 33.3861 13.7435 33.7114L14.8552 34.2943L14.1096 35.3787C12.2658 38.1034 11.2761 40.95 10.8694 44.7862L10.788 45.6131L10.0153 45.7893C8.83578 46.0604 7.24958 46.9415 6.30057 47.8633C5.44646 48.6766 5.44646 48.6766 4.97195 48.514C3.71112 48.0531 2.57231 46.806 2.24693 45.4911C1.908 44.1356 2.55875 40.7603 3.56199 38.632C4.82282 35.9345 7.03266 33.6301 9.77124 32.1661C10.2186 31.9085 10.6253 31.7052 10.666 31.7052C10.7067 31.7052 11.1676 32.0305 11.6828 32.4236ZM35.8962 32.2881C40.1532 34.7145 42.6613 38.5643 43.2036 43.512C43.4069 45.3556 43.0951 46.4535 42.0512 47.4973C41.6038 47.9311 40.3972 48.6495 40.0989 48.6495C40.0312 48.6495 39.6109 48.2971 39.1499 47.8498C38.2145 46.9415 36.6147 46.0604 35.4488 45.7893L34.676 45.6131L34.5947 44.7862C34.188 40.95 33.1983 38.1034 31.3409 35.3787L30.6088 34.2807L31.3138 33.9283C32.1408 33.5081 33.7541 32.4779 34.2964 32.0305C34.5133 31.8543 34.7302 31.7052 34.7845 31.7052C34.8251 31.7052 35.3268 31.9628 35.8962 32.2881ZM18.936 35.4465C21.3221 35.8938 24.6572 35.8261 27.3415 35.2838L28.3583 35.067L28.7379 35.5278C30.758 37.9 32.0052 41.0314 32.4255 44.854L32.5068 45.5996L31.7205 45.7893C29.2666 46.3451 26.7857 48.5682 25.7553 51.1031C24.7249 53.6651 24.6436 56.1593 25.5248 58.8568C25.7282 59.4397 25.8502 59.9412 25.8095 59.9819C25.7824 60.009 25.3893 60.1717 24.9554 60.3343C23.8166 60.7546 21.6474 60.7546 20.5086 60.3343C20.0748 60.1717 19.6816 60.009 19.6545 59.9819C19.6138 59.9412 19.7359 59.4397 19.9392 58.8568C20.8204 56.1728 20.7391 53.6651 19.7087 51.1031C18.6784 48.5682 16.1974 46.3451 13.7435 45.7893L12.9708 45.5996L13.0521 44.7862C13.4182 41.2076 14.6248 38.1169 16.6177 35.6634C17.038 35.1347 17.1329 35.0805 17.4989 35.1618C17.7294 35.2161 18.3801 35.3381 18.936 35.4465ZM49.8466 50.954V57.4606H45.9286H42.0241L42.1325 56.8777C42.1868 56.5659 42.241 56.0779 42.2545 55.7933V55.2917H44.6271C46.9725 55.2917 47.0132 55.2917 47.3385 54.9528L47.6775 54.6275V50.954V47.2804L47.3385 46.9551C47.0538 46.6569 46.8911 46.6162 46.0913 46.6162H45.1558L45.3727 45.5318L45.5761 44.4473H47.7181H49.8466V50.954ZM65.0308 50.954V57.4606H58.5233H52.0158V50.954V44.4473H58.5233H65.0308V50.954ZM13.3097 47.904C16.211 48.6631 18.3937 51.8351 18.3937 55.2917C18.3937 57.447 17.5396 59.5617 16.1025 60.9986C14.1638 62.9234 11.6693 63.3979 9.33741 62.2592C8.22571 61.717 6.89709 60.3479 6.28701 59.0872C3.46709 53.3533 7.79187 46.4807 13.3097 47.904ZM35.0014 47.904C37.9027 48.6631 40.0854 51.8351 40.0854 55.2917C40.0854 57.447 39.2313 59.5617 37.7942 60.9986C35.2725 63.5063 31.8832 63.5063 29.3615 60.9986C26.4061 58.0435 26.3112 52.8382 29.1717 49.7611C30.7851 48.0124 32.8729 47.3618 35.0014 47.904ZM45.5083 50.954V53.1228H43.7865L42.0512 53.1093L41.6309 51.8486L41.2106 50.5744L41.8614 50.2626C42.2139 50.1 42.7968 49.7069 43.1629 49.3815C43.7865 48.8258 43.8543 48.7986 44.6678 48.7851H45.5083V50.954Z" fill="#FFAC09"/>
<path d="M15.4788 16.5909C14.5976 17.4584 15.6686 18.8682 16.7532 18.2853C17.1735 18.0684 17.3769 17.4042 17.1735 16.9298C16.8617 16.1842 16.0347 16.0215 15.4788 16.5909Z" fill="#FFAC09"/>
<path d="M28.494 16.5909C27.6127 17.4584 28.6838 18.8682 29.7684 18.2853C30.1886 18.0684 30.392 17.4042 30.1886 16.9298C29.8768 16.1842 29.0498 16.0215 28.494 16.5909Z" fill="#FFAC09"/>
<path d="M19.7901 18.7055C19.4919 18.8546 19.058 19.2341 18.8411 19.5323C18.5158 20.0068 18.4615 20.2237 18.4615 20.9963C18.4615 22.2028 18.8005 22.7043 20.4002 23.8294L21.6475 24.7105V26.3914V28.0858L21.0374 28.0045C18.6242 27.6656 16.2246 25.4019 16.2246 23.477C16.2246 23.0568 15.8856 22.4061 15.6145 22.2977C15.1671 22.135 14.7061 22.2299 14.3672 22.5688C14.0418 22.8941 14.0283 22.9754 14.0961 23.8701C14.2723 26.0254 15.845 28.0994 18.1226 29.2245C19.519 29.9158 20.5358 30.1869 22.0542 30.2954C26.5146 30.6207 30.6089 27.9638 31.3003 24.3039C31.5443 23.0025 31.1783 22.2163 30.3242 22.2163C29.687 22.2163 29.3074 22.6908 29.1854 23.6261C28.9684 25.5374 27.4093 27.1234 25.0504 27.8283C23.7624 28.2078 23.8167 28.2756 23.8167 26.3778V24.7105L25.1588 23.7345C26.0943 23.0568 26.5552 22.623 26.7315 22.2705C27.2467 21.1725 27.1246 20.1559 26.3519 19.2748C25.674 18.5021 25.3351 18.4208 22.705 18.4208C20.6171 18.4208 20.3053 18.4479 19.7901 18.7055ZM24.847 20.8879C24.9419 21.2132 24.7792 21.3759 23.4371 22.3112L22.7185 22.7992L21.7424 22.1214C20.6849 21.3759 20.4816 21.1454 20.6036 20.8066C20.6849 20.6168 20.9696 20.5897 22.7185 20.5897C24.6843 20.5897 24.7521 20.6032 24.847 20.8879Z" fill="#FFAC09"/>
<path d="M49.5755 31.6509C46.9725 32.5998 45.8744 35.4058 47.1488 37.8187C47.6368 38.7269 48.0707 39.1471 49.0875 39.6758C49.6704 39.974 49.9551 40.0282 50.9313 40.0417C52.0023 40.0417 52.1514 40.0011 52.9649 39.5538C56.0966 37.8322 55.9746 33.3725 52.7615 31.8542C51.8803 31.434 50.4296 31.3391 49.5755 31.6509ZM51.7854 33.7927C53.1953 34.3756 53.5207 36.1649 52.4226 37.2629C51.5278 38.1575 50.3076 38.1711 49.4264 37.2764C47.7453 35.6091 49.6026 32.8709 51.7854 33.7927Z" fill="#FFAC09"/>
<path d="M57.9404 46.7653C57.6286 46.9551 54.1851 53.8277 54.1851 54.275C54.1851 54.4648 54.3342 54.7766 54.524 54.9528L54.8494 55.2917H58.5234H62.1974L62.5228 54.9528C62.7126 54.7766 62.8617 54.4648 62.8617 54.275C62.8617 53.8006 59.4046 46.9415 59.0792 46.7517C58.7403 46.5755 58.2523 46.5891 57.9404 46.7653ZM59.3097 51.6995L60.0147 53.1228H58.5234H57.0321L57.7371 51.6995C58.1302 50.9133 58.4827 50.2762 58.5234 50.2762C58.5641 50.2762 58.9166 50.9133 59.3097 51.6995Z" fill="#FFAC09"/>
</svg>
