<svg width="48" height="48" viewBox="0 0 48 48" fill="none" xmlns="http://www.w3.org/2000/svg">
<circle cx="24" cy="24" r="23.5" stroke="white"/>
<path d="M31.5 24.0002C31.4939 23.3426 31.2289 22.7138 30.7625 22.2502L25.4 16.8752C25.1658 16.6424 24.849 16.5117 24.5188 16.5117C24.1885 16.5117 23.8717 16.6424 23.6375 16.8752C23.5203 16.9914 23.4273 17.1297 23.3639 17.282C23.3004 17.4343 23.2678 17.5977 23.2678 17.7627C23.2678 17.9277 23.3004 18.0911 23.3639 18.2434C23.4273 18.3958 23.5203 18.534 23.6375 18.6502L27.75 22.7502H15.25C14.9185 22.7502 14.6005 22.8819 14.3661 23.1163C14.1317 23.3507 14 23.6687 14 24.0002C14 24.3317 14.1317 24.6497 14.3661 24.8841C14.6005 25.1185 14.9185 25.2502 15.25 25.2502H27.75L23.6375 29.3627C23.4021 29.5964 23.2692 29.9141 23.2681 30.2458C23.2669 30.5775 23.3975 30.8961 23.6313 31.1314C23.865 31.3668 24.1826 31.4997 24.5143 31.5009C24.846 31.5021 25.1646 31.3714 25.4 31.1377L30.7625 25.7627C31.232 25.296 31.4972 24.6622 31.5 24.0002Z" fill="white"/>
</svg>
