<svg width="18" height="16" viewBox="0 0 18 16" fill="none" xmlns="http://www.w3.org/2000/svg">
<path d="M0.5 8.0002C0.506083 7.34257 0.771056 6.71382 1.2375 6.2502L6.6 0.87521C6.8342 0.642396 7.15102 0.511719 7.48125 0.511719C7.81148 0.511719 8.1283 0.642396 8.3625 0.87521C8.47966 0.991413 8.57265 1.12966 8.63611 1.28199C8.69957 1.43431 8.73225 1.59769 8.73225 1.76271C8.73225 1.92772 8.69957 2.0911 8.63611 2.24343C8.57265 2.39575 8.47966 2.534 8.3625 2.65021L4.25 6.7502H16.75C17.0815 6.7502 17.3995 6.8819 17.6339 7.11632C17.8683 7.35074 18 7.66868 18 8.0002C18 8.33172 17.8683 8.64966 17.6339 8.88408C17.3995 9.1185 17.0815 9.2502 16.75 9.2502H4.25L8.3625 13.3627C8.59788 13.5964 8.73077 13.9141 8.73195 14.2458C8.73312 14.5775 8.60247 14.8961 8.36875 15.1314C8.13503 15.3668 7.81737 15.4997 7.48567 15.5009C7.15396 15.5021 6.83538 15.3714 6.6 15.1377L1.2375 9.7627C0.768015 9.29601 0.502791 8.66217 0.5 8.0002V8.0002Z" fill="white"/>
</svg>
