<svg width="64" height="47" viewBox="0 0 64 47" fill="none" xmlns="http://www.w3.org/2000/svg">
<path d="M13.7146 0.0820503C10.7551 0.403999 8.13 1.80324 6.39643 3.97021C6.03733 4.41599 5.69062 4.77509 5.6287 4.77509C5.56679 4.77509 4.87336 4.56458 4.09325 4.31693C1.82722 3.59873 1.7034 3.72256 1.7034 6.75631C1.7034 9.90151 2.07488 13.8021 2.50827 15.3623C2.57018 15.548 2.48351 15.6718 2.22347 15.8204C1.56719 16.2043 0.799462 17.0835 0.440365 17.8636C-0.438805 19.721 0.0317365 22.0241 1.55481 23.3615C2.06249 23.8073 3.37506 24.4635 3.7713 24.4635C3.99419 24.4635 4.08087 24.5874 4.24185 25.1693C4.94766 27.6211 6.78029 30.1967 8.81105 31.5836L9.54163 32.0789L8.00618 32.1532C6.22307 32.2399 5.48011 32.4504 4.45235 33.1314C3.39982 33.8372 2.71878 34.7164 2.18632 36.0413C1.90152 36.7719 1.88914 36.8586 1.85199 41.5764L1.81484 46.3809L2.12441 46.6904C2.40921 46.9752 2.53304 47 3.49888 47C4.68762 47 4.99719 46.8886 5.18293 46.418C5.43058 45.7494 4.89813 45.1426 4.04372 45.1426H3.67224L3.70939 41.0811L3.74654 37.0319L4.06849 36.3509C4.46473 35.5336 5.14578 34.8278 5.97542 34.3944C6.54502 34.0973 6.74314 34.0725 8.47672 34.023L10.3589 33.9734L10.4951 34.5059C10.8418 35.8061 11.7086 36.97 12.8726 37.713C14.4576 38.7408 16.5502 38.8646 18.2219 38.0349C19.6954 37.3044 20.9585 35.7813 21.2185 34.4068L21.3052 33.9734L23.175 34.023C24.9333 34.0601 25.0943 34.0849 25.7505 34.4068C26.6173 34.8278 27.3727 35.6575 27.707 36.549C27.9423 37.1805 27.9547 37.5025 27.9547 41.1801V45.1426H18.1847C8.50148 45.1426 8.41481 45.1426 8.09286 45.4026C7.68423 45.7246 7.64708 46.3809 8.01856 46.7523C8.26621 47 8.42719 47 18.7667 47C29.1682 47 29.2672 47 29.5396 46.7523C29.8121 46.4923 29.8121 46.4675 29.8121 41.824C29.8121 37.552 29.7749 36.8091 29.5149 36.029C29.4406 35.7689 29.4653 35.7565 30.9513 35.707C31.9047 35.6699 32.6725 35.5708 32.9944 35.447L33.5269 35.2488L33.2916 35.707C32.6972 36.871 32.6601 37.2425 32.6601 41.985V46.4675L32.9449 46.7276L33.2297 47H45.699C58.0941 47 58.1684 47 58.416 46.7523C58.6637 46.5047 58.6761 46.3932 58.6389 41.7002L58.6018 36.9081L58.2551 36.1775C58.0693 35.7813 57.9331 35.4346 57.9455 35.4098C57.9703 35.3974 58.317 35.4593 58.7256 35.5584C59.1714 35.6575 60.1496 35.7318 61.165 35.7318H62.8614L63.1215 35.3974C63.3815 35.0631 63.3815 34.9888 63.3443 31.3978C63.2948 27.5097 63.2577 27.3239 62.5642 25.9371C62.0442 24.8969 60.9545 23.7825 59.7286 23.0395C59.5552 22.9281 59.5552 22.8662 59.7162 22.4204C59.9267 21.826 59.9515 20.6373 59.7657 19.9439C59.6915 19.6714 59.4933 19.2009 59.3076 18.8913C58.998 18.3589 58.998 18.2846 59.0228 16.3529C59.0599 13.2572 58.577 10.8178 57.8464 10.4959C57.413 10.2854 57.2644 10.3101 56.8806 10.6073C56.4967 10.9169 56.4843 11.1274 56.8187 12.4028C56.992 13.0591 57.1035 13.9506 57.1406 15.0775L57.2149 16.7863H54.0697C52.3361 16.7863 50.6892 16.7244 50.3921 16.6625C48.3489 16.1919 46.9497 14.6069 46.6153 12.3904C46.4915 11.6475 46.3925 11.3874 46.1696 11.2017C45.8352 10.9293 45.6619 10.9169 45.2409 11.1026C44.8694 11.276 44.7084 11.6599 44.6341 12.5886C44.4979 14.0992 43.3835 15.6099 41.8604 16.3281L41.0184 16.7244L37.5636 16.7615L34.1088 16.7987L34.1831 14.966C34.2574 12.8486 34.4184 12.1304 35.1985 10.5083C36.7959 7.21447 40.1021 4.91129 43.5816 4.68841L44.6589 4.61411L44.7456 4.94844C44.8446 5.34469 45.2285 5.64187 45.6619 5.64187C46.0334 5.64187 46.5287 5.18371 46.5287 4.837C46.5287 4.63887 46.6153 4.62649 47.6183 4.68841C48.9309 4.77509 49.8968 5.02274 51.0731 5.57996C52.2495 6.13718 52.9553 6.6201 54.045 7.64787C55.048 8.58895 55.4442 8.71278 55.9147 8.20509C56.41 7.67263 56.2862 7.25162 55.3575 6.3353C53.884 4.86176 52.1628 3.84639 50.0082 3.20248C48.9433 2.88054 48.8195 2.88054 45.6619 2.88054C45.4885 2.88054 44.7084 2.88054 43.9283 2.88054C42.1947 2.86815 40.9441 3.16534 39.26 3.97021C36.3873 5.36945 34.0965 7.87075 33.0439 10.7931C32.4372 12.4771 32.2762 13.6039 32.301 16.1176C32.3134 17.9255 32.2762 18.4208 32.1276 18.6561C32.0286 18.817 31.8924 19.0523 31.8304 19.1885C31.719 19.3866 31.6942 19.3495 31.6076 18.9409C31.4713 18.1855 30.9389 17.1825 30.3693 16.5758L29.8368 16.0186L29.7873 13.2201C29.7378 10.8674 29.6882 10.2606 29.4653 9.45573C28.2395 4.97321 24.9209 1.60512 20.5127 0.366852C19.4849 0.0820503 19.0763 0.0325203 17.0579 0.00775528C15.7949 -0.0170097 14.2966 0.0201378 13.7146 0.0820503ZM19.1877 1.9766C22.6796 2.67003 25.4657 4.82462 26.9517 8.00696C27.7442 9.69101 27.8556 10.2606 27.9175 12.861L27.9794 15.1889L20.7603 15.1518L13.5288 15.1146L12.6992 14.7927C11.5724 14.3593 10.718 13.7773 10.0493 13.0219C9.43018 12.3161 8.83582 11.1645 8.68722 10.4216C8.57578 9.81483 8.14239 9.35667 7.68423 9.35667C6.97842 9.35667 5.28199 11.6599 4.58856 13.5544L4.24185 14.4955L4.10564 13.8268C3.85798 12.7248 3.67224 10.7931 3.59795 8.37844L3.52365 6.11242L3.82083 6.19909C3.98181 6.24862 4.56379 6.42198 5.12102 6.59534C6.43358 7.01635 6.64408 6.95443 7.21369 6.01335C8.57578 3.77209 11.1514 2.19949 13.9003 1.93945C15.5968 1.76609 18.2095 1.79086 19.1877 1.9766ZM7.74614 12.9848C8.89773 15.0403 11.1885 16.551 13.6651 16.9101C14.148 16.972 17.3922 17.0339 21.0947 17.0339H27.6575L28.289 17.3435C29.2301 17.814 29.8121 18.7675 29.8121 19.8076C29.8121 21.3431 28.7472 22.5071 27.1869 22.6804C26.7783 22.73 26.3449 22.8538 26.2211 22.9652C26.0849 23.0767 25.8868 23.6091 25.7382 24.2159C24.8466 27.8069 22.2586 30.4939 18.581 31.596C17.6399 31.8808 17.2684 31.9303 15.8196 31.9303C14.3709 31.9303 13.9994 31.8808 13.0583 31.596C11.1142 31.014 9.81405 30.2091 8.43957 28.7727C7.10224 27.3735 6.28499 25.8504 5.86398 23.993C5.64109 23.0395 5.39343 22.73 4.86098 22.73C4.31614 22.73 3.39982 22.4328 2.95405 22.1232C2.09964 21.5165 1.65387 20.142 1.95105 19.0895C2.26062 17.9874 3.41221 17.0463 4.45235 17.0339C5.4182 17.0339 5.57917 16.8482 5.97542 15.2632C6.23546 14.2478 7.12701 12.3285 7.33751 12.3285C7.36228 12.3285 7.54802 12.6257 7.74614 12.9848ZM45.9467 15.7833C46.281 16.3529 47.5193 17.4302 48.3365 17.8636C49.5748 18.5199 50.3425 18.6437 53.3763 18.6437C56.2491 18.6437 56.6453 18.7056 57.2768 19.3C58.1436 20.1048 58.2922 21.5288 57.5988 22.5071C57.1654 23.1138 56.571 23.4605 55.7042 23.5596C55.3575 23.5967 54.986 23.6958 54.887 23.7701C54.7755 23.8444 54.5774 24.3521 54.4412 24.8969C53.4382 28.8594 50.1692 31.5836 46.1077 31.8436C42.7024 32.0665 39.2724 30.1348 37.7122 27.1134C37.3903 26.5067 37.0312 25.578 36.895 25.0455C36.5978 23.9187 36.3625 23.5967 35.83 23.5967C34.3441 23.5967 33.2421 22.4947 33.2544 21.0459C33.2544 20.3277 33.465 19.8572 33.985 19.3619C34.6661 18.7056 35.0128 18.6437 37.9599 18.6437C40.8326 18.6437 41.5013 18.5446 42.752 17.975C43.5816 17.5912 44.5722 16.7863 45.1294 16.0433C45.3895 15.6966 45.6247 15.4242 45.6619 15.4242C45.699 15.4242 45.8229 15.5852 45.9467 15.7833ZM31.719 22.8166C31.7561 22.8662 31.459 23.1138 31.0503 23.3739C29.6511 24.2902 28.5614 25.8256 28.1404 27.4973C28.0042 28.0421 27.9547 28.9213 27.9547 30.9149V33.6143L27.3355 33.1933C26.2211 32.4504 25.4657 32.2275 23.7198 32.1656L22.1596 32.116L23.1254 31.3854C25.1314 29.8748 26.8031 27.4354 27.447 25.0827C27.5956 24.5378 27.6203 24.5131 28.2271 24.3645C29.3539 24.1044 30.6541 23.0643 31.1494 22.0365L31.3599 21.5908L31.4961 22.1727C31.5828 22.4947 31.6818 22.7795 31.719 22.8166ZM33.4526 24.7855C33.7745 24.9712 34.2698 25.1817 34.5422 25.2684C35.0004 25.4046 35.0623 25.4665 35.2604 26.0857C35.3719 26.4571 35.5948 27.0515 35.7557 27.4106C35.991 27.9678 36.0282 28.2031 35.9663 29.0204C35.8548 30.7539 35.0995 32.1036 33.7621 32.9952C32.7963 33.6391 31.9914 33.8744 30.7779 33.8744H29.7997L29.8368 30.8654L29.874 27.8688L30.2702 27.0391C30.7903 25.9495 31.9543 24.7979 32.8582 24.4635C32.8706 24.4635 33.143 24.6121 33.4526 24.7855ZM59.0476 24.8226C59.741 25.256 60.4592 25.9742 60.8307 26.6305C61.3879 27.584 61.5117 28.3888 61.5117 31.2492V33.8991L60.3106 33.8496C59.2704 33.8125 58.9733 33.7505 58.2674 33.4162C57.1282 32.8838 56.3977 32.1779 55.8528 31.0511C55.4442 30.2339 55.3823 29.9986 55.3451 28.9956C55.308 28.0793 55.3328 27.7697 55.5061 27.423C55.6299 27.2001 55.8404 26.6553 55.989 26.2219C56.2491 25.4541 56.2738 25.4294 56.8806 25.2189C57.2273 25.1074 57.6978 24.8845 57.9331 24.736C58.1684 24.5874 58.3789 24.4635 58.4284 24.4635C58.4656 24.4635 58.738 24.6245 59.0476 24.8226ZM38.4552 31.014C38.839 31.3483 39.4953 31.8312 39.9039 32.0913L40.6469 32.5742L38.8514 32.6485C37.8608 32.698 36.9569 32.7723 36.8207 32.8218C36.6844 32.8838 36.6101 32.8714 36.6473 32.8095C36.6721 32.7475 36.895 32.277 37.155 31.7693C37.4026 31.2616 37.6131 30.7539 37.6131 30.6301C37.6131 30.5063 37.6503 30.4072 37.6874 30.4072C37.7246 30.4072 38.0713 30.6796 38.4552 31.014ZM53.7106 30.7539C53.7106 30.8778 53.9335 31.4102 54.1935 31.9303C54.5526 32.6361 54.6269 32.8838 54.4783 32.8095C54.3669 32.7599 53.4753 32.698 52.5095 32.6609C51.5313 32.6361 50.7388 32.5742 50.7388 32.5247C50.7388 32.4875 50.974 32.3265 51.2712 32.1656C51.556 32.017 52.1876 31.5588 52.6581 31.1626C53.5249 30.432 53.7106 30.3577 53.7106 30.7539ZM19.3363 34.2211C19.0391 35.1498 18.0238 36.2147 17.1322 36.5119C15.5225 37.0691 13.7765 36.5243 12.8478 35.1745C12.4763 34.6421 12.1172 33.5772 12.2534 33.4286C12.303 33.3914 12.7735 33.4534 13.306 33.5772C14.6309 33.8867 17.256 33.8744 18.5438 33.54C19.0515 33.4162 19.4973 33.3543 19.5097 33.4038C19.5344 33.4657 19.4601 33.8248 19.3363 34.2211ZM43.9035 33.5648C44.4731 33.6639 45.2656 33.7505 45.6619 33.7505C46.3553 33.7505 48.2622 33.4657 48.6956 33.3048C48.8938 33.2181 48.9061 33.3048 48.8566 34.2582C48.7452 36.3261 47.5564 37.5768 45.6866 37.5892C44.3988 37.5892 43.4701 37.0443 42.8758 35.9547C42.591 35.4222 42.5043 35.1003 42.4672 34.2582C42.4176 33.3048 42.43 33.2181 42.6281 33.3048C42.752 33.3419 43.3216 33.4657 43.9035 33.5648ZM40.684 35.2612C40.9936 36.9329 42.0214 38.2702 43.5321 38.9884C44.2998 39.3599 44.4608 39.3847 45.6619 39.3847C46.863 39.3847 47.024 39.3599 47.7917 38.9884C49.3148 38.2702 50.3302 36.9329 50.6397 35.2488L50.7883 34.4687L52.3981 34.5183C54.2802 34.5802 54.8994 34.7907 55.7785 35.707C56.7444 36.6976 56.8063 37.0443 56.8063 41.3659V45.1426H45.6619H34.5175V41.4402C34.5175 38.3074 34.5546 37.6387 34.728 37.0939C35.0871 35.9918 36.2758 34.8897 37.4274 34.6049C37.6379 34.5554 38.418 34.5183 39.1734 34.5059L40.5355 34.4935L40.684 35.2612Z" fill="white"/>
<path d="M9.75229 19.0154C9.5294 19.2383 9.50464 19.424 9.50464 20.687C9.50464 21.9872 9.5294 22.1234 9.77706 22.3587C10.1114 22.6683 10.6315 22.6807 11.0029 22.3711C11.2877 22.1482 11.3001 22.0615 11.3001 20.7118C11.3001 19.4859 11.263 19.2507 11.0649 19.0278C10.7553 18.6934 10.0866 18.6811 9.75229 19.0154Z" fill="#FFAC09"/>
<path d="M20.6116 18.9906C20.4383 19.1764 20.4011 19.4983 20.4011 20.6623C20.4011 21.9501 20.4259 22.1358 20.6488 22.3587C20.9583 22.6683 21.5651 22.6807 21.8747 22.3711C22.1966 22.0491 22.2957 21.4672 22.2461 20.266C22.209 19.5231 22.1347 19.2259 21.9613 19.0278C21.6518 18.6934 20.8964 18.6687 20.6116 18.9906Z" fill="#FFAC09"/>
<path d="M12.922 24.4758C12.6496 24.6863 12.6001 24.8225 12.6001 25.3673C12.6125 28.042 15.9063 29.4165 18.0237 27.621C18.7914 26.9771 19.3239 25.5159 19.0391 24.8349C18.8533 24.3891 18.3333 24.1662 17.8875 24.3272C17.516 24.4758 17.3674 24.7111 17.256 25.3797C17.1322 26.0732 16.5626 26.5685 15.9187 26.5685C15.0395 26.5685 14.5689 26.1474 14.3832 25.1568C14.2965 24.6863 13.8384 24.2157 13.4669 24.2157C13.3431 24.2157 13.1078 24.3272 12.922 24.4758Z" fill="#FFAC09"/>
<path d="M39.297 20.2409C38.876 20.6991 39.1485 21.7392 39.6809 21.7392C39.7924 21.7392 39.8419 21.9374 39.8419 22.4203C39.8419 22.9899 39.8914 23.1632 40.1515 23.4109C40.3124 23.5842 40.5972 23.7205 40.7706 23.7205C40.9439 23.7205 41.2287 23.5842 41.3897 23.4109C41.6745 23.1385 41.6993 23.027 41.6993 21.8259C41.6993 20.6496 41.6745 20.5257 41.4145 20.2781C41.0182 19.9066 39.619 19.8818 39.297 20.2409Z" fill="#FFAC09"/>
<path d="M49.8722 20.2534C49.6493 20.4763 49.6245 20.6621 49.6245 21.8508C49.6245 23.1634 49.6369 23.2129 49.9465 23.4605C50.3179 23.7577 50.4789 23.7825 50.8999 23.5844C51.2962 23.411 51.4819 22.9776 51.4819 22.2966C51.4819 21.8879 51.5314 21.7394 51.6553 21.7394C51.9153 21.7394 52.2249 21.2441 52.2249 20.8478C52.2249 20.2534 51.841 20.0058 50.9247 20.0058C50.2808 20.0058 50.0703 20.0553 49.8722 20.2534Z" fill="#FFAC09"/>
<path d="M42.8759 25.2683C42.5168 25.615 42.492 25.9122 42.7644 26.8037C43.0988 27.9553 44.3866 28.9211 45.5629 28.9211C46.7021 28.9211 47.9404 28.1287 48.3985 27.1257C48.8938 26.0607 48.5967 24.9587 47.8166 24.9587C47.2717 24.9587 47.0364 25.1816 46.8383 25.8874C46.504 27.0266 45.6991 27.3857 44.9314 26.7418C44.6961 26.5437 44.5228 26.2589 44.4732 25.9741C44.2999 25.0206 43.4826 24.6491 42.8759 25.2683Z" fill="#FFAC09"/>
</svg>
